<svg id="Layer_1" data-name="Layer 1" xmlns="http://www.w3.org/2000/svg" viewBox="0 0 700 550"><title>girl doing yoga</title><path d="M236.11739,169.99867c-53.63615,41.86785-85.62963,218.11205,14.94063,219.3635,52.93813.65863,147.0964,35.4502,209.1743,67.7459,60.36229,31.40285,46.947-140.07995-14.94066-219.36306S289.75353,128.13082,236.11739,169.99867Z" fill="#d5efc8"/><path d="M486.84473,474.53689c-4.55372,0-9.55469-1.38867-14.916-4.17871l.46094-.88672c12.43847,6.47168,22.43554,5.31836,29.707-3.42382,13.2832-15.96875,16.08984-56.05762,7.32324-104.62012-9.20508-50.99317-29.4082-100.2793-54.04492-131.83985-67.61133-86.61621-170.22949-119.917-228.75586-74.22949l-.61523-.78906c58.96-46.02539,162.209-12.64746,230.16015,74.40332,24.73047,31.68262,45.00781,81.13184,54.24024,132.27734,8.81738,48.84571,5.92871,89.24707-7.53809,105.43653C498.51953,471.91092,493.10449,474.53689,486.84473,474.53689Z" fill="#d5efc8"/><rect x="500.08848" y="283.45703" width="36.6599" height="16.19402" transform="translate(1036.83686 583.10808) rotate(-180)" fill="#bbceaf"/><rect x="478.81328" y="262.21172" width="36.6599" height="16.19402" transform="translate(994.28647 540.61746) rotate(-180)" fill="#bbceaf"/><rect x="456.69785" y="283.45703" width="36.6599" height="16.19402" transform="translate(950.0556 583.10808) rotate(-180)" fill="#bbceaf"/><rect x="486.39512" y="304.70234" width="36.6599" height="16.19402" transform="translate(1009.45014 625.59869) rotate(-180)" fill="#bbceaf"/><rect x="444.63512" y="304.70234" width="36.6599" height="16.19402" transform="translate(925.93014 625.59869) rotate(-180)" fill="#bbceaf"/><rect x="368.69335" y="140.80124" width="36.6599" height="16.19402" transform="translate(774.0466 297.7965) rotate(-180)" fill="#bbceaf"/><rect x="347.41815" y="119.55593" width="36.6599" height="16.19402" transform="translate(731.49621 255.30588) rotate(-180)" fill="#bbceaf"/><rect x="325.30272" y="140.80124" width="36.6599" height="16.19402" transform="translate(687.26534 297.7965) rotate(-180)" fill="#bbceaf"/><rect x="354.99999" y="162.04655" width="36.6599" height="16.19402" transform="translate(746.65988 340.28712) rotate(-180)" fill="#bbceaf"/><rect x="313.23999" y="162.04655" width="36.6599" height="16.19402" transform="translate(663.13988 340.28712) rotate(-180)" fill="#bbceaf"/><path d="M136.3577,458.27276c0,.097,1.0101-.14049.99827-.03164,0,0-9.93944,16.29577-11.03033,16.29577a2.74839,2.74839,0,0,1-.31473-.02425,2.22458,2.22458,0,0,1-1.89013-2.508l7.75385-13.76347Z" fill="#935b50"/><path d="M187.05641,458.27276c0,.097-1.01009-.14049-.99826-.03164,0,0,9.93944,16.29577,11.03033,16.29577a2.74874,2.74874,0,0,0,.31473-.02425,2.2246,2.2246,0,0,0,1.89013-2.508l-7.75386-13.76347Z" fill="#935b50"/><path d="M202.57788,421.64447H120.5166V386.83982a2.42315,2.42315,0,0,1,2.42315-2.42315h77.215a2.42315,2.42315,0,0,1,2.42315,2.42315Z" fill="#d6694b"/><path d="M131.87487,458.87114h-8.92932a2.42315,2.42315,0,0,1-2.42315-2.42316V421.63939h82.06007V456.448a2.42315,2.42315,0,0,1-2.42315,2.42316h-6.15481" fill="#d6694b"/><rect x="124.0855" y="388.25086" width="74.92348" height="29.55943" rx="2.42315" fill="#e19974"/><ellipse cx="161.54724" cy="403.03057" rx="4.12577" ry="4.08451" fill="#935b50"/><rect x="124.0855" y="425.47866" width="74.92348" height="29.55943" rx="2.42315" fill="#e19974"/><ellipse cx="161.54724" cy="440.25837" rx="4.12577" ry="4.08451" fill="#935b50"/><path d="M555.4184,447.29218a116.9513,116.9513,0,0,1-1.61377-16.68115,123.01269,123.01269,0,0,1,.66083-16.76722,89.48453,89.48453,0,0,1,3.42841-16.42932,72.54137,72.54137,0,0,1,3.06018-7.82043,59.70559,59.70559,0,0,1,4.18756-7.26184,62.89913,62.89913,0,0,0-6.77448,15.22924c-.76934,2.67469-1.46319,5.37073-2.0028,8.10218q-.7891,4.1001-1.25946,8.25329a131.44349,131.44349,0,0,0-.807,16.68421q.03882,4.18121.323,8.358C554.79755,441.74286,555.03394,444.52594,555.4184,447.29218Z" fill="#50661a"/><path d="M555.4184,405.45568s-29.38216,3.70052-42.16929-8.90756c-9.48919-9.35633-.46339-25.45988,12.5413-22.55062C534.49676,375.94518,545.23529,383.684,555.4184,405.45568Z" fill="#5e7c24"/><path d="M555.4184,405.45563c-4.12451-1.25537-8.18414-2.72534-12.18036-4.35266q-5.99157-2.4483-11.74847-5.44238-2.86312-1.5174-5.61829-3.233a56.50554,56.50554,0,0,1-5.33569-3.689,39.84873,39.84873,0,0,1-4.80048-4.36646,19.32212,19.32212,0,0,1-3.52771-5.4104,19.16655,19.16655,0,0,0,3.75788,5.195,39.99129,39.99129,0,0,0,4.8706,4.18774,82.17124,82.17124,0,0,0,10.95465,6.74744c3.78486,2.03674,7.69764,3.83142,11.63886,5.5564q2.95788,1.29144,5.96033,2.48193C551.38361,403.94306,553.39021,404.72748,555.4184,405.45563Z" fill="#50661a"/><path d="M523.55756,390.59845l.02875-4.33471c-.00806-1.4408.00037-2.87928-.08154-4.313a37.69991,37.69991,0,0,0-.38086-4.27429l-.19934-1.04993c-.07086-.34937-.19373-.68128-.28559-1.02649a7.58005,7.58005,0,0,0-.38751-.99231,8.69015,8.69015,0,0,0-.577-.90649,7.29956,7.29956,0,0,1,1.93591,3.88061,29.11872,29.11872,0,0,1,.53735,4.34155c.02893,1.45508.03,2.90845-.06836,4.35681A36.45264,36.45264,0,0,1,523.55756,390.59845Z" fill="#50661a"/><path d="M509.72968,390.59845c1.72705-.30066,3.43061-.54834,5.09577-.93188a15.31632,15.31632,0,0,0,2.41644-.76087,3.493,3.493,0,0,0,1.888-1.59082,3.03093,3.03093,0,0,1-1.65845,2.03821,9.85263,9.85263,0,0,1-2.49914.94031A15.87677,15.87677,0,0,1,509.72968,390.59845Z" fill="#50661a"/><path d="M515.04157,398.12677a48.94427,48.94427,0,0,0,6.82074-1.371,12.80786,12.80786,0,0,0,3.12921-1.34241,4.47271,4.47271,0,0,0,2.08179-2.59362,4.05209,4.05209,0,0,1-1.79474,3.00634,10.42619,10.42619,0,0,1-3.22992,1.546A20.25207,20.25207,0,0,1,515.04157,398.12677Z" fill="#50661a"/><path d="M531.47077,395.29145q.73453-2.15351,1.34924-4.32361c.39789-1.45069.79035-2.90186,1.05-4.379a25.96372,25.96372,0,0,0,.4021-8.94348,15.06329,15.06329,0,0,1,.68665,4.50964,26.97586,26.97586,0,0,1-.457,4.55664,35.64973,35.64973,0,0,1-1.21125,4.40466A28.09391,28.09391,0,0,1,531.47077,395.29145Z" fill="#50661a"/><path d="M527.07331,403.79352c.93671-.24585,1.843-.553,2.73077-.88147a15.2505,15.2505,0,0,0,2.54169-1.2074,9.35154,9.35154,0,0,0,2.14771-1.74218,7.5824,7.5824,0,0,0,1.34185-2.46375,5.45417,5.45417,0,0,1-.94494,2.77234,7.6183,7.6183,0,0,1-2.21344,1.98584,10.62511,10.62511,0,0,1-2.71845,1.13159A10.945,10.945,0,0,1,527.07331,403.79352Z" fill="#50661a"/><path d="M541.96143,384.25983a14.29659,14.29659,0,0,1,1.38147,3.84277,16.49367,16.49367,0,0,1,.32276,4.10218,13.381,13.381,0,0,1-.86145,4.03039,12.09025,12.09025,0,0,1-2.08332,3.515,18.33774,18.33774,0,0,0,1.61493-3.677,14.65785,14.65785,0,0,0,.68738-3.90515,18.86121,18.86121,0,0,0-.16608-3.97937A24.13709,24.13709,0,0,0,541.96143,384.25983Z" fill="#50661a"/><path d="M540.06165,405.45563c1.06787-.53528,2.1175-.99438,3.12439-1.53381a12.44637,12.44637,0,0,0,2.81916-1.94739,5.29032,5.29032,0,0,1-2.51691,2.516A8.20991,8.20991,0,0,1,540.06165,405.45563Z" fill="#50661a"/><path d="M549.36262,394.17426a14.38565,14.38565,0,0,1,1.00934,4.56714,10.26624,10.26624,0,0,1-.11329,2.36389,4.54478,4.54478,0,0,1-.89605,2.18274,7.19974,7.19974,0,0,0,.39648-2.23938,20.01974,20.01974,0,0,0-.03-2.27112C549.65028,397.25556,549.46674,395.73578,549.36262,394.17426Z" fill="#50661a"/><path d="M554.35049,405.30766s-22.89271-18.78641-22.533-36.74038c.2669-13.32346,18.165-17.84521,24.99628-6.40319C561.38709,369.82426,563.15368,382.94235,554.35049,405.30766Z" fill="#c4ce6e"/><path d="M554.35047,405.30768a125.61649,125.61649,0,0,1-5.34381-11.78833q-2.386-6.02307-4.17206-12.27222-.862-3.12872-1.50384-6.31689a53.84313,53.84313,0,0,1-.96881-6.429,39.9099,39.9099,0,0,1-.08252-6.50781,18.59917,18.59917,0,0,1,1.58923-6.27661,19.94351,19.94351,0,0,0-1.09985,6.30591,39.95486,39.95486,0,0,0,.358,6.39612,83.816,83.816,0,0,0,2.67,12.56018c1.10816,4.14648,2.49695,8.21606,3.92645,12.27063q1.07255,3.04192,2.24988,6.04846C552.72608,401.31574,553.53931,403.30927,554.35047,405.30768Z" fill="#8b9d36"/><path d="M543.226,371.95954c2.031-2.089,4.121-4.05628,6.11408-6.10926.99407-1.02612,1.95306-2.07812,2.85308-3.1748a18.31152,18.31152,0,0,0,1.21106-1.73462,7.50228,7.50228,0,0,0,.48737-.93921,10.0602,10.0602,0,0,0,.30658-1.02942,7.02249,7.02249,0,0,1-1.37006,4.15686,24.37759,24.37759,0,0,1-2.77044,3.41687A33.57392,33.57392,0,0,1,543.226,371.95954Z" fill="#8b9d36"/><path d="M533.71656,361.9206c1.50446.94628,2.86511,1.97924,4.27869,2.91015a18.729,18.729,0,0,0,2.16241,1.24866,3.71669,3.71669,0,0,0,2.40729.40747,2.93983,2.93983,0,0,1-2.66626.32861,9.10817,9.10817,0,0,1-2.45313-1.15A13.04634,13.04634,0,0,1,533.71656,361.9206Z" fill="#8b9d36"/><path d="M531.904,370.95429c1.94488,1.34228,3.79431,2.72619,5.77411,3.85449a13.84973,13.84973,0,0,0,3.06665,1.36719,4.65385,4.65385,0,0,0,3.28631-.13636,3.953,3.953,0,0,1-3.445.90039,10.00053,10.00053,0,0,1-3.40351-1.2633,17.52814,17.52814,0,0,1-2.8858-2.10352A15.76248,15.76248,0,0,1,531.904,370.95429Z" fill="#8b9d36"/><path d="M545.26087,380.93183c1.35889-.68872,2.68372-1.40955,4.0047-2.12146,1.31091-.73084,2.615-1.46314,3.86786-2.27173a42.47209,42.47209,0,0,0,3.63721-2.5835,27.07928,27.07928,0,0,0,3.22766-3.12475,13.7648,13.7648,0,0,1-2.70673,3.70568,23.1938,23.1938,0,0,1-3.62207,2.84607A27.37082,27.37082,0,0,1,545.26087,380.93183Z" fill="#8b9d36"/><path d="M536.06422,383.58625c.87365.44616,1.72674.86706,2.5841,1.255a17.61515,17.61515,0,0,0,2.60608.96509,10.16887,10.16887,0,0,0,2.68048.39416,8.65689,8.65689,0,0,0,2.725-.582,5.05368,5.05368,0,0,1-2.64905,1.35864,7.32878,7.32878,0,0,1-3.02527-.20825,9.88722,9.88722,0,0,1-2.70935-1.24511A9.25218,9.25218,0,0,1,536.06422,383.58625Z" fill="#8b9d36"/><path d="M560.4842,380.96149a14.11963,14.11963,0,0,1-4.48126,6.83716,15.67008,15.67008,0,0,1-1.694,1.22741c-.29914.17945-.6175.32789-.9245.49219a5.26571,5.26571,0,0,1-.95593.42029,11.06391,11.06391,0,0,1-4.04334.77515,21.53633,21.53633,0,0,0,3.72125-1.486,16.56208,16.56208,0,0,0,3.25183-2.19287,22.1364,22.1364,0,0,0,2.77539-2.80566A30.01132,30.01132,0,0,0,560.4842,380.96149Z" fill="#8b9d36"/><path d="M543.78962,394.15875c1.19653.28663,2.24786.69581,3.31872,1.04493a20.97556,20.97556,0,0,0,3.296.876,3.6477,3.6477,0,0,1-1.803.39771,6.33321,6.33321,0,0,1-1.811-.32617,7.52846,7.52846,0,0,1-1.63373-.79187A5.43313,5.43313,0,0,1,543.78962,394.15875Z" fill="#8b9d36"/><path d="M558.37617,393.153a9.50524,9.50524,0,0,1-1.0437,2.12536,12.75049,12.75049,0,0,1-1.44855,1.87012,9.19129,9.19129,0,0,1-1.83991,1.53235,4.14593,4.14593,0,0,1-2.28442.73962,8.91195,8.91195,0,0,0,1.81494-1.36291c.543-.50952,1.07416-1.03662,1.5824-1.59485C556.20338,395.3725,557.19715,394.22357,558.37617,393.153Z" fill="#8b9d36"/><path d="M553.66249,436.77366s-29.59515,1.06406-41.20628-12.6347c-8.6165-10.16571,1.81019-25.39968,14.50342-21.34164C535.45746,405.51408,545.46264,414.18017,553.66249,436.77366Z" fill="#c4ce6e"/><path d="M553.66248,436.77362a125.60228,125.60228,0,0,1-11.80719-5.30188c-3.84967-1.95788-7.59936-4.11572-11.249-6.44018q-2.71665-1.77521-5.30756-3.74085a53.83621,53.83621,0,0,1-4.98065-4.17895,39.89738,39.89738,0,0,1-4.36834-4.82459,18.59865,18.59865,0,0,1-2.96192-5.75732,19.94622,19.94622,0,0,0,3.34827,5.45557,39.95018,39.95018,0,0,0,4.50085,4.55847,83.82448,83.82448,0,0,0,10.31342,7.65c3.57464,2.37549,7.309,4.50757,11.06372,6.60144q2.81708,1.57086,5.68933,3.0459C549.803,434.85565,551.73188,435.8122,553.66248,436.77362Z" fill="#8b9d36"/><path d="M523.25446,419.13288c.14032-2.91028.4054-5.76819.54126-8.62635.06623-1.42712.08905-2.85034.03815-4.26819a18.32243,18.32243,0,0,0-.23993-2.10205,7.50234,7.50234,0,0,0-.2561-1.02661,10.03044,10.03044,0,0,0-.45136-.97461,7.02232,7.02232,0,0,1,1.72357,4.0232,24.37581,24.37581,0,0,1,.184,4.395A33.57624,33.57624,0,0,1,523.25446,419.13288Z" fill="#8b9d36"/><path d="M509.4817,417.899c1.75409-.28613,3.45788-.412,5.1336-.64954a18.71333,18.71333,0,0,0,2.44757-.49475,3.71625,3.71625,0,0,0,2.07453-1.28747,2.94013,2.94013,0,0,1-1.78156,2.01074,9.10858,9.10858,0,0,1-2.60028.761A13.0446,13.0446,0,0,1,509.4817,417.899Z" fill="#8b9d36"/><path d="M514.10065,425.87128c2.34638-.28064,4.64875-.46692,6.87977-.931a13.84188,13.84188,0,0,0,3.20385-1.0044,4.65312,4.65312,0,0,0,2.37366-2.27685,3.95274,3.95274,0,0,1-1.98706,2.95471,10.00383,10.00383,0,0,1-3.38764,1.30518,17.52547,17.52547,0,0,1-3.5556.33252A15.75671,15.75671,0,0,1,514.10065,425.87128Z" fill="#8b9d36"/><path d="M530.71729,424.51312c.56311-1.41564,1.07935-2.83276,1.59864-4.2406.49926-1.4154.9923-2.82739,1.39666-4.26269a42.47965,42.47965,0,0,0,1.01728-4.34375,27.07886,27.07886,0,0,0,.35217-4.47864,13.7675,13.7675,0,0,1,.42291,4.56946,23.19565,23.19565,0,0,1-.83234,4.53064A27.36992,27.36992,0,0,1,530.71729,424.51312Z" fill="#8b9d36"/><path d="M525.5788,432.58905c.9502-.24377,1.86829-.49267,2.76776-.76916a17.60281,17.60281,0,0,0,2.5926-1.001,10.16594,10.16594,0,0,0,2.27044-1.47827,8.65714,8.65714,0,0,0,1.65788-2.23962,5.0524,5.0524,0,0,1-1.087,2.7716,7.3276,7.3276,0,0,1-2.40594,1.84583,9.88763,9.88763,0,0,1-2.85522.85937A9.2574,9.2574,0,0,1,525.5788,432.58905Z" fill="#8b9d36"/><path d="M542.15046,414.46161a14.119,14.119,0,0,1,1.16455,8.09131,15.65943,15.65943,0,0,1-.45776,2.04126c-.10553.33252-.246.65442-.36744.98083a5.25787,5.25787,0,0,1-.43859.94764,11.0605,11.0605,0,0,1-2.5185,3.25683,21.53356,21.53356,0,0,0,1.80664-3.57654,16.55862,16.55862,0,0,0,.987-3.796,22.14416,22.14416,0,0,0,.22418-3.94006A30.01231,30.01231,0,0,0,542.15046,414.46161Z" fill="#8b9d36"/><path d="M538.367,435.40338c1.08679-.57678,2.14575-.96582,3.17975-1.41259a20.982,20.982,0,0,0,3.05072-1.52442,3.64643,3.64643,0,0,1-1.08862,1.49134,6.33477,6.33477,0,0,1-1.57361.95385,7.52962,7.52962,0,0,1-1.74884.48731A5.427,5.427,0,0,1,538.367,435.40338Z" fill="#8b9d36"/><path d="M548.63752,424.99689a9.50472,9.50472,0,0,1,.624,2.28418,12.75316,12.75316,0,0,1,.15143,2.3606,9.18883,9.18883,0,0,1-.36542,2.36645,4.14614,4.14614,0,0,1-1.2232,2.06616,8.91025,8.91025,0,0,0,.45874-2.2229c.07-.74121.11944-1.48791.131-2.2428C548.47724,428.09882,548.462,426.57978,548.63752,424.99689Z" fill="#8b9d36"/><path d="M555.41056,407.44365s29.53663,2.14315,41.63984-11.12284c8.98167-9.84456-.88225-25.44881-13.71509-21.8566C574.744,376.86911,564.4293,385.16438,555.41056,407.44365Z" fill="#5e7c24"/><path d="M555.41059,407.44367c1.98688-.83435,3.94922-1.72364,5.89734-2.64075q2.93271-1.35187,5.82092-2.79334c3.84461-1.93066,7.65711-3.92968,11.3291-6.16357a82.1692,82.1692,0,0,0,10.58289-7.31665,39.99244,39.99244,0,0,0,4.64258-4.43921,19.164,19.164,0,0,0,3.47815-5.38611,19.31835,19.31835,0,0,1-3.23694,5.58911,39.86087,39.86087,0,0,1-4.563,4.614,56.54639,56.54639,0,0,1-5.13336,3.9657q-2.65851,1.857-5.4397,3.52526-5.57839,3.299-11.44458,6.05542C563.43928,404.28961,559.463,405.97211,555.41059,407.44367Z" fill="#50661a"/><path d="M586.442,390.924a36.45406,36.45406,0,0,1-.7492-4.28466c-.17469-1.441-.25043-2.89258-.2984-4.34717a29.11187,29.11187,0,0,1,.30725-4.36377,7.2985,7.2985,0,0,1,1.72827-3.97742,8.66,8.66,0,0,0-.52838.93567,7.577,7.577,0,0,0-.33454,1.01135c-.07348.34961-.17865.6875-.231,1.04016l-.14362,1.05909a37.68043,37.68043,0,0,0-.15454,4.28833c-.0061,1.436.07831,2.87207.14642,4.31128Z" fill="#50661a"/><path d="M600.25062,390.19354a15.882,15.882,0,0,1-5.25141-.02758,9.85129,9.85129,0,0,1-2.54535-.80713,3.03037,3.03037,0,0,1-1.76379-1.94776,3.4929,3.4929,0,0,0,1.96942,1.489,15.32481,15.32481,0,0,0,2.45325.63208C596.79584,389.82721,598.51008,389.98456,600.25062,390.19354Z" fill="#50661a"/><path d="M595.34388,397.992a20.252,20.252,0,0,1-7.03723-.38355,10.42581,10.42581,0,0,1-3.30707-1.37317,4.05225,4.05225,0,0,1-1.95105-2.90722,4.47231,4.47231,0,0,0,2.21594,2.47985,12.80682,12.80682,0,0,0,3.19574,1.1753A48.94166,48.94166,0,0,0,595.34388,397.992Z" fill="#50661a"/><path d="M578.78779,396.02851a28.09811,28.09811,0,0,1-2.03772-4.07325,35.63,35.63,0,0,1-1.4422-4.33447,26.96515,26.96515,0,0,1-.69714-4.52624,15.06465,15.06465,0,0,1,.44744-4.53955,25.96321,25.96321,0,0,0,.874,8.90966c.33728,1.46143.80584,2.8899,1.27984,4.31751Q577.936,393.92048,578.78779,396.02851Z" fill="#50661a"/><path d="M583.62824,404.28644a10.94777,10.94777,0,0,1-2.90252-.25207,10.62521,10.62521,0,0,1-2.77442-.98645,7.61847,7.61847,0,0,1-2.31531-1.86609,5.45369,5.45369,0,0,1-1.09-2.71863,7.58276,7.58276,0,0,0,1.47009,2.38952,9.35654,9.35654,0,0,0,2.23675,1.62635,15.25984,15.25984,0,0,0,2.60193,1.07141C581.75861,403.83148,582.67988,404.0904,583.62824,404.28644Z" fill="#50661a"/><path d="M567.729,385.56647a24.14342,24.14342,0,0,0-.68689,3.9707,18.85943,18.85943,0,0,0,.04437,3.98255,14.65469,14.65469,0,0,0,.89277,3.8634,18.34123,18.34123,0,0,0,1.80688,3.58655,12.09012,12.09012,0,0,1-2.26605-3.4,13.38033,13.38033,0,0,1-1.07324-3.97924,16.49636,16.49636,0,0,1,.10559-4.11353A14.29635,14.29635,0,0,1,567.729,385.56647Z" fill="#50661a"/><path d="M570.74592,406.63239a8.21136,8.21136,0,0,1-3.4729-.78284,5.29065,5.29065,0,0,1-2.6463-2.37964,12.4482,12.4482,0,0,0,2.91809,1.7959C568.5788,405.75116,569.65119,406.15424,570.74592,406.63239Z" fill="#50661a"/><path d="M560.86188,395.8581c-.02148,1.56482-.12438,3.09216-.12274,4.61621a20.02605,20.02605,0,0,0,.09,2.26953,7.2006,7.2006,0,0,0,.51428,2.21533,4.54439,4.54439,0,0,1-1.01013-2.13245,10.26282,10.26282,0,0,1-.238-2.35461A14.38623,14.38623,0,0,1,560.86188,395.8581Z" fill="#50661a"/><path d="M554.287,436.43741s29.53662,2.14316,41.63983-11.12283c8.98167-9.84456-.88225-25.44881-13.71509-21.85661C573.62049,405.86287,563.30577,414.15814,554.287,436.43741Z" fill="#8b9d36"/><path d="M554.28706,436.43744c1.96441-.8905,3.92688-1.77588,5.86218-2.72034q2.9208-1.37493,5.79669-2.8363c3.82861-1.95557,7.63824-3.95,11.29718-6.19336a83.8091,83.8091,0,0,0,10.58569-7.26868,39.9622,39.9622,0,0,0,4.66419-4.39111,19.94631,19.94631,0,0,0,3.545-5.32983,18.59628,18.59628,0,0,1-3.17,5.64538,39.8909,39.8909,0,0,1-4.5415,4.662,53.83625,53.83625,0,0,1-5.12977,3.99451q-2.65923,1.86712-5.44049,3.54467c-3.732,2.1897-7.55792,4.20936-11.47644,6.0254A125.60786,125.60786,0,0,1,554.28706,436.43744Z" fill="#5e7c24"/><path d="M585.31849,419.91779a33.572,33.572,0,0,1-1.22553-8.63,24.37838,24.37838,0,0,1,.34418-4.38537,7.02248,7.02248,0,0,1,1.86926-3.95764,10.05092,10.05092,0,0,0-.48663.95752,7.4924,7.4924,0,0,0-.2934,1.0166,18.31509,18.31509,0,0,0-.31646,2.09192c-.1026,1.41491-.13172,2.83813-.11762,4.26672C585.12379,414.13861,585.28443,417.00434,585.31849,419.91779Z" fill="#5e7c24"/><path d="M599.12708,419.18732a13.04682,13.04682,0,0,1-5.28277.14734,9.10926,9.10926,0,0,1-2.57074-.85535,2.94007,2.94007,0,0,1-1.707-2.07446,3.71621,3.71621,0,0,0,2.02618,1.3623,18.72468,18.72468,0,0,0,2.42786.58374C595.68653,418.64936,597.38459,418.83734,599.12708,419.18732Z" fill="#5e7c24"/><path d="M594.22034,426.98578a15.76936,15.76936,0,0,1-3.53851.25122,17.52792,17.52792,0,0,1-3.54108-.46216,10.00018,10.00018,0,0,1-3.33783-1.42785,3.95292,3.95292,0,0,1-1.87792-3.02527,4.65379,4.65379,0,0,0,2.28906,2.36206,13.84476,13.84476,0,0,0,3.165,1.12048C589.59168,426.34955,591.88575,426.61969,594.22034,426.98578Z" fill="#5e7c24"/><path d="M577.66425,425.02228a27.37252,27.37252,0,0,1-3.65252-8.3645,23.18879,23.18879,0,0,1-.66645-4.558,13.76672,13.76672,0,0,1,.58936-4.551,27.07708,27.07708,0,0,0,.18848,4.48852,42.46731,42.46731,0,0,0,.85815,4.37806c.35168,1.449.79291,2.87817,1.24023,4.31079C576.689,422.152,577.15321,423.587,577.66425,425.02228Z" fill="#5e7c24"/><path d="M582.50471,433.28021a9.25166,9.25166,0,0,1-2.93817-.11853,9.88585,9.88585,0,0,1-2.822-.96289,7.33022,7.33022,0,0,1-2.337-1.93237,5.05327,5.05327,0,0,1-.98511-2.80945,8.65609,8.65609,0,0,0,1.57507,2.29859,10.16375,10.16375,0,0,0,2.215,1.56018,17.59949,17.59949,0,0,0,2.55432,1.09485C580.65565,432.71979,581.564,433.002,582.50471,433.28021Z" fill="#5e7c24"/><path d="M566.60548,414.56024a30.01567,30.01567,0,0,0-.546,3.988,22.14724,22.14724,0,0,0,.08032,3.94556,16.56088,16.56088,0,0,0,.84778,3.82947,21.53627,21.53627,0,0,0,1.675,3.64013,11.063,11.063,0,0,1-2.398-3.34656,5.26069,5.26069,0,0,1-.40368-.963c-.1095-.33056-.2381-.65747-.33142-.99353a15.66788,15.66788,0,0,1-.383-2.05664A14.11925,14.11925,0,0,1,566.60548,414.56024Z" fill="#5e7c24"/><path d="M569.62238,435.62616a5.43062,5.43062,0,0,1-1.818-.07092,7.53088,7.53088,0,0,1-1.72992-.55078,6.33463,6.33463,0,0,1-1.53778-1.01062,3.64683,3.64683,0,0,1-1.03345-1.53015,20.97252,20.97252,0,0,0,2.99311,1.63476C567.51331,434.58271,568.55738,435.01007,569.62238,435.62616Z" fill="#5e7c24"/><path d="M559.73835,424.85187c.11761,1.58826.047,3.10559.05505,4.61682-.016.75476.00623,1.50281.04908,2.2461a8.91229,8.91229,0,0,0,.37738,2.23815,4.14675,4.14675,0,0,1-1.147-2.10949,9.19317,9.19317,0,0,1-.27887-2.37818,12.75847,12.75847,0,0,1,.23749-2.35351A9.50627,9.50627,0,0,1,559.73835,424.85187Z" fill="#5e7c24"/><path d="M564.157,383.92633s-8.18918-28.45948,2.2952-43.03865c7.78035-10.81905,25.08358-4.38569,24.21547,8.91213C590.08647,358.7024,584.097,370.50628,564.157,383.92633Z" fill="#8b9d36"/><path d="M564.157,383.92633a125.604,125.604,0,0,1,2.28937-12.73889c.96881-4.20886,2.15588-8.36914,3.52881-12.47241q1.06557-3.06537,2.34625-6.05469A53.84239,53.84239,0,0,1,575.172,346.817a39.907,39.907,0,0,1,3.625-5.4054,18.6,18.6,0,0,1,4.87024-4.26623,19.947,19.947,0,0,0-4.484,4.56811,39.971,39.971,0,0,0-3.33477,5.46961,83.82545,83.82545,0,0,0-4.929,11.8573c-1.44049,4.043-2.60632,8.182-3.73,12.33166q-.84311,3.11334-1.57977,6.25708C565.08472,379.71759,564.62312,381.8205,564.157,383.92633Z" fill="#5e7c24"/><path d="M573.921,350.15485c2.85785-.56763,5.695-1.00147,8.5011-1.56079,1.40087-.28089,2.78741-.60291,4.15081-.99512a18.34,18.34,0,0,0,1.98163-.74109,7.50455,7.50455,0,0,0,.93421-.49682,10.03961,10.03961,0,0,0,.8366-.67359,7.02273,7.02273,0,0,1-3.48706,2.64527,24.38088,24.38088,0,0,1-4.22009,1.24133A33.57159,33.57159,0,0,1,573.921,350.15485Z" fill="#5e7c24"/><path d="M571.78767,336.4925c.70184,1.63281,1.236,3.25561,1.87164,4.82421a18.71013,18.71013,0,0,0,1.072,2.25525,3.71718,3.71718,0,0,0,1.75092,1.70166,2.93981,2.93981,0,0,1-2.38184-1.24255,9.10379,9.10379,0,0,1-1.36725-2.339A13.04477,13.04477,0,0,1,571.78767,336.4925Z" fill="#5e7c24"/><path d="M565.169,342.90216c.83966,2.209,1.57721,4.398,2.56708,6.45056a13.84759,13.84759,0,0,0,1.74927,2.86585,4.65406,4.65406,0,0,0,2.78332,1.75256,3.95285,3.95285,0,0,1-3.34753-1.2135,10.00144,10.00144,0,0,1-2.08563-2.97156,17.52813,17.52813,0,0,1-1.1825-3.36962A15.76316,15.76316,0,0,1,565.169,342.90216Z" fill="#5e7c24"/><path d="M570.505,358.69733c1.50977.204,3.00971.36218,4.50134.52563,1.49408.14222,2.98346.27918,4.47388.32447a42.47778,42.47778,0,0,0,4.46094-.06336,27.08178,27.08178,0,0,0,4.43085-.74133,13.76711,13.76711,0,0,1-4.33155,1.51538,23.18554,23.18554,0,0,1-4.59747.288A27.37212,27.37212,0,0,1,570.505,358.69733Z" fill="#5e7c24"/><path d="M561.42622,355.66413c.46624.86316.92981,1.69384,1.41558,2.49975a17.60943,17.60943,0,0,0,1.59821,2.27356,10.16557,10.16557,0,0,0,1.98346,1.84558,8.65777,8.65777,0,0,0,2.5741,1.06714,5.05349,5.05349,0,0,1-2.95221-.38452,7.32786,7.32786,0,0,1-2.37287-1.88818,9.88513,9.88513,0,0,1-1.52429-2.56275A9.25393,9.25393,0,0,1,561.42622,355.66413Z" fill="#5e7c24"/><path d="M583.023,367.36042a14.11935,14.11935,0,0,1-7.56964,3.08666,15.648,15.648,0,0,1-2.09137.04944c-.34815-.022-.69446-.08044-1.04047-.11938a5.25663,5.25663,0,0,1-1.02563-.19641,11.06215,11.06215,0,0,1-3.76917-1.65613,21.53742,21.53742,0,0,0,3.90729.88818,16.55885,16.55885,0,0,0,3.92193.03968,22.13953,22.13953,0,0,0,3.87732-.73523A30.02255,30.02255,0,0,0,583.023,367.36042Z" fill="#5e7c24"/><path d="M561.78779,368.75348c.82251.91492,1.45605,1.84839,2.13971,2.74365a20.97426,20.97426,0,0,0,2.21686,2.59156,3.64634,3.64634,0,0,1-1.71033-.69568,6.33183,6.33183,0,0,1-1.30609-1.29627,7.53366,7.53366,0,0,1-.89582-1.579A5.43235,5.43235,0,0,1,561.78779,368.75348Z" fill="#5e7c24"/><path d="M574.36909,376.20258a9.50538,9.50538,0,0,1-2.06549,1.15784,12.75126,12.75126,0,0,1-2.254.71777,9.18524,9.18524,0,0,1-2.38452.21765,4.14663,4.14663,0,0,1-2.30072-.68713,8.91783,8.91783,0,0,0,2.26788-.09241c.73615-.11145,1.47266-.244,2.208-.41528C571.3205,376.79718,572.79072,376.4151,574.36909,376.20258Z" fill="#5e7c24"/><path d="M534.45173,439.72574v5.34633a1.85289,1.85289,0,0,0,1.83438,1.87085h36.75276a1.85289,1.85289,0,0,0,1.83439-1.87085v-4.927a1.85338,1.85338,0,0,0-1.81387-1.87073l-36.75276-.41936A1.85239,1.85239,0,0,0,534.45173,439.72574Z" fill="#d6694b"/><polygon points="536.206 446.943 537.513 474.537 570.947 474.537 573.119 446.943 536.206 446.943" fill="#e19974"/><path d="M137.09956,351.94691s14.03451,10.34456,18.625,9.15925" fill="none" stroke="#8b9d36" stroke-linecap="round" stroke-linejoin="round" stroke-width="1.78757"/><line x1="152.71283" y1="332.27814" x2="154.87047" y2="361.86045" fill="none" stroke="#8b9d36" stroke-linecap="round" stroke-linejoin="round" stroke-width="1.78757"/><path d="M163.94458,362.64641s2.326-13.12415,14.50728-18.80821" fill="none" stroke="#8b9d36" stroke-linecap="round" stroke-linejoin="round" stroke-width="1.78757"/><path d="M162.877,359.59757c-.72672-1.42325-4.632-1.42522-7.12585.32336a6.82913,6.82913,0,0,0-2.40193,3.15187c-.42461,1.09374-1.10421,2.84385-.16007,4.04084a3.5431,3.5431,0,0,0,3.92314.72719,19.12243,19.12243,0,0,0,3.36278-3.31344C161.92176,362.69572,163.46274,360.7448,162.877,359.59757Z" fill="#5e7c24"/><path d="M165.91962,359.436c-.27215.71469.26779,1.534,1.281,3.071a14.75489,14.75489,0,0,0,3.52286,3.7177,4.203,4.203,0,0,0,4.96414.56561,4.021,4.021,0,0,0,1.84136-3.39434c-.01651-2.09386-1.80552-3.38951-2.48186-3.87927C171.77164,357.14438,166.57771,357.70846,165.91962,359.436Z" fill="#5e7c24"/><path d="M175.52733,346.02044c.23869-.40689.85725-.20016,2.24185-.40426a25.78665,25.78665,0,0,0,3.44293-1.05055,13.25005,13.25005,0,0,1,2.9625-.72741c.41962.002,2.79135.01272,3.60278,1.61638.85009,1.68-.72368,3.70214-.80057,3.79838-1.52143,1.90094-4.12078,1.80821-4.96414,1.778a7.664,7.664,0,0,1-5.36443-2.586C176.45843,348.23247,175.11271,346.7268,175.52733,346.02044Z" fill="#5e7c24"/><path d="M153.66955,338.181c-.8451-.42552-.35055-3.12907-.08015-4.60646a27.42187,27.42187,0,0,1,1.52122-4.60667c1.4011-3.6914,1.72081-4.08908,2.24185-4.2831a3.35071,3.35071,0,0,1,3.68315,1.69706c.92632,1.79242-.49368,4.05838-2.00164,6.46531C157.58574,335.15847,154.76876,338.73433,153.66955,338.181Z" fill="#5e7c24"/><path d="M153.34919,345.293c.6216-1.01153-.52213-2.98964-1.68128-4.04084-.973-.88241-1.96863-1.12224-3.68315-1.53549-1.92562-.46411-4.0452-.97492-4.64378-.0809-.57078.85237.5458,2.52685.80079,2.9094a7.07779,7.07779,0,0,0,3.28264,2.50536C149.13523,345.75868,152.5471,346.59811,153.34919,345.293Z" fill="#c4ce6e"/><path d="M153.42933,353.13226c.02281-.8048-1.14069-.97163-3.52285-2.90941-1.89109-1.53833-1.945-2.07325-3.04265-2.42446-1.68041-.53755-3.87405-.02565-4.2435,1.05055-.09035.26352-.07753.57811,1.36115,2.9094,1.11919,1.81347,1.69,2.72722,2.24185,3.071a5.26006,5.26006,0,0,0,4.00329.404C151.23157,354.99549,153.39849,354.22292,153.42933,353.13226Z" fill="#5e7c24"/><path d="M154.30489,343.83064c-.78472-.88853.00488-3.03574.96761-4.27253.80815-1.03819,1.748-1.44732,3.36658-2.15209,1.81784-.79153,3.81878-1.66273,4.56079-.886.70752.74056-.10707,2.58395-.29306,3.00508a7.111,7.111,0,0,1-2.80677,3.038C158.53539,343.55769,155.31743,344.977,154.30489,343.83064Z" fill="#5e7c24"/><path d="M154.88552,352.1822c-.15961-.78884.95812-1.1552,2.97455-3.47769,1.60076-1.84375,1.56266-2.38005,2.58414-2.91661,1.56376-.8213,3.81194-.6979,4.35928.29812.13391.24389.17489.556-.84506,3.10236-.79347,1.98076-1.2,2.98-1.68511,3.41444a5.26779,5.26779,0,0,1-3.87476,1.09309C157.36805,353.63608,155.10177,353.25126,154.88552,352.1822Z" fill="#5e7c24"/><path d="M142.06,356.3648c-.11229-.87692-1.5564-1.361-3.28264-1.93953-1.55966-.52264-2.79787-.93786-4.2435-.48493-.25564.08-2.52964.79229-2.72229,2.50536-.17288,1.53658,1.46648,2.65838,1.60136,2.74782a4.8434,4.8434,0,0,0,3.76307.40405C139.42739,359.16437,142.22526,357.65475,142.06,356.3648Z" fill="#5e7c24"/><path d="M148.54533,360.40565c-1.20563-.86026-3.48115.59893-4.56385,1.29323a9.57133,9.57133,0,0,0-2.80222,2.74761c-.834,1.25159-1.62763,2.44288-1.20107,3.47524.61335,1.484,3.26114,1.46182,3.603,1.45459a5.75839,5.75839,0,0,0,3.92314-1.778,6.12527,6.12527,0,0,0,1.52143-3.071C149.1715,363.855,149.73511,361.25472,148.54533,360.40565Z" fill="#c4ce6e"/><path d="M138.93741,352.16238c-.67829-.98631-.44068-1.68544-.72065-3.39433-.445-2.7167-1.39176-3.06462-1.04078-4.44489.27627-1.08629,1.21237-2.24579,2.24186-2.26289,1.44194-.02412,2.36956,2.20457,2.562,2.66693.69979,1.68105.44176,3.14661,0,5.65723-.28844,1.639-.50845,2.81228-1.20086,2.99029C140.10959,353.54682,139.31272,352.70805,138.93741,352.16238Z" fill="#8b9d36"/><path d="M169.60254,351.91991c.21394-.60529,1.3479-.69693,2.72229-.80808,1.71712-.13877,3.0042-.2429,4.2435.56562.19069.1243,2.19711,1.471,1.84135,3.07119-.278,1.25027-1.83158,1.9062-2.96228,1.93952-1.22692.03618-2.06115-.65747-3.603-1.93952C170.62964,353.73865,169.33909,352.6653,169.60254,351.91991Z" fill="#8b9d36"/><path d="M171.60418,347.31345c-.30819-.07015-.3273-.4994-.72064-1.69727-.879-2.67614-1.567-2.91927-1.44107-4.04085.13944-1.24084,1.1635-2.56214,2.08157-2.50536,1.00082.06182,1.5994,1.744,1.84157,2.42468A5.243,5.243,0,0,1,173.686,344C173.46139,345.73741,172.27248,347.46582,171.60418,347.31345Z" fill="#5e7c24"/><path d="M151.74783,335.67585c-.46718.66252-3.11975-.12211-4.884-1.69728-.45045-.40206-2.44406-2.18221-1.92149-3.87927a1.99927,1.99927,0,0,1,1.60135-1.45459c.748-.01841,1.23431.74144,2.48207,2.586C151.59145,335.0243,151.95264,335.38537,151.74783,335.67585Z" fill="#8b9d36"/><path d="M166.3199,353.5363c-1.34355.36567-3.1015-2.47182-3.52285-3.15187a10.4262,10.4262,0,0,1-1.60136-5.8188c.05755-1.28513.16246-3.62826,1.52121-4.20242,1.30185-.55,3.06284.816,3.92314,1.85863,1.69758,2.057,1.42761,4.71827,1.20107,6.95025C167.66475,350.911,167.42888,353.23442,166.3199,353.5363Z" fill="#c4ce6e"/><path d="M166.51467,384.41667H153.31272l-4.2472-22.53274a.8956.8956,0,0,1,.874-1.0658h19.94846a.89559.89559,0,0,1,.87394,1.0658Z" fill="#e19974"/><path d="M170.455,363.512l.30689-1.62809a.89559.89559,0,0,0-.87394-1.06581H149.93946a.89559.89559,0,0,0-.87394,1.06581l.30689,1.62809Z" fill="#d6694b"/><polygon points="154.368 378.035 151.579 375.22 154.368 372.405 157.157 375.22 154.368 378.035" fill="#d6694b"/><polygon points="159.946 378.035 157.157 375.22 159.946 372.405 162.735 375.22 159.946 378.035" fill="#d6694b"/><polygon points="165.459 378.035 162.67 375.22 165.459 372.405 168.248 375.22 165.459 378.035" fill="#d6694b"/><rect x="100.5166" y="472.53689" width="500" height="2" fill="#935b50"/><rect x="202.08324" y="252.72915" width="36.6599" height="16.19402" transform="translate(440.82637 521.65233) rotate(-180)" fill="#bbceaf"/><rect x="180.80804" y="231.48385" width="36.6599" height="16.19402" transform="translate(398.27598 479.16171) rotate(-180)" fill="#bbceaf"/><rect x="158.69261" y="252.72915" width="36.6599" height="16.19402" transform="translate(354.04511 521.65233) rotate(-180)" fill="#bbceaf"/><rect x="188.38988" y="273.97446" width="36.6599" height="16.19402" transform="translate(413.43965 564.14295) rotate(-180)" fill="#bbceaf"/><rect x="146.62988" y="273.97446" width="36.6599" height="16.19402" transform="translate(329.91965 564.14295) rotate(-180)" fill="#bbceaf"/><path d="M349.63527,449.05708a42.45975,42.45975,0,0,1-24.12258,14.3561,7.076,7.076,0,0,0-2.51984.9967l-.06849.045a2.76493,2.76493,0,0,0,1.50132,5.082h34.14894a7.09916,7.09916,0,0,0,7.09916-7.09916l-.19851-13.38065Z" fill="#f9977a"/><path d="M442.51522,228.01713s2.33427-5.16-.36-12.12005c-2.88-7.44-2.05822-18.48891.65243-26.17256a7.07468,7.07468,0,0,0,.421-2.67688l-.0039-.0819a2.765,2.765,0,0,0-5.14039-1.28748l-17.34167,29.418a7.0992,7.0992,0,0,0,2.5105,9.72082l4.86206,3.20008Z" fill="#f7987a"/><path d="M299.41527,201.55708s37.62.66,66.66,9.54l53.68283,5.04-1.12283,11.88-54-4.44-38.76-.42-7.8,18.42S294.67527,241.45708,299.41527,201.55708Z" fill="#f7987a"/><path d="M282.3424,214.69708s-36.25913-.99228-66.62529-.7231L162.8126,203.56432l-2.29648,11.70989,53.03826,11.075,62.16345,8.46484S275.55847,254.30082,282.3424,214.69708Z" fill="#f7987a"/><path d="M328.15527,299.33708l14.64,79.52,5.68741,68.36581a2,2,0,0,0,1.99312,1.83419h14.08477a2,2,0,0,0,1.9981-1.91288l6.1166-140.28712s34.89638,9.67929,68.3972,10.946a19.5559,19.5559,0,0,0,19.82459-24.01557c-3.15185-13.4767-6.62886-33.984-15.94408-64.35021a2.0111,2.0111,0,0,0-1.91608-1.4202H428.4384a2,2,0,0,0-1.97778,2.29732l8.85465,58.90268-51.84-14.4s-18-15.84-32.76-10.08C350.71527,264.73708,343.99527,286.73708,328.15527,299.33708Z" fill="#ffba55"/><path d="M339.19526,301.57709a19.96323,19.96323,0,0,0,3.88995,1.7605,38.35561,38.35561,0,0,0,4.08734,1.20337,66.96312,66.96312,0,0,0,8.39759,1.44592c2.82318.36218,5.67083.50085,8.5205.672l4.28516.12195c1.43066.02685,2.86188.01928,4.29944.07629-1.425.16943-2.85645.27441-4.28839.41382l-4.309.1571q-2.15726.00348-4.31659-.08484c-1.4364-.1084-2.87683-.17175-4.30768-.36377a47.52312,47.52312,0,0,1-8.48279-1.69983A23.25214,23.25214,0,0,1,339.19526,301.57709Z" fill="#e6952a"/><path d="M435.31525,289.2171a7.55284,7.55284,0,0,1,2.858.42591,7.4702,7.4702,0,0,1,2.542,1.374,7.46775,7.46775,0,0,1-2.858-.4259A7.55306,7.55306,0,0,1,435.31525,289.2171Z" fill="#e6952a"/><path d="M369.43525,375.97711a5.69377,5.69377,0,0,1-1.6861,1.84412,5.63105,5.63105,0,0,1-2.27386,1.03589,5.62854,5.62854,0,0,1,1.68609-1.84412A5.69155,5.69155,0,0,1,369.43525,375.97711Z" fill="#e6952a"/><path d="M443.2353,310.45709a7.8342,7.8342,0,0,1,1.02154-4.33361,10.086,10.086,0,0,1,3.05774-3.3562,13.41336,13.41336,0,0,1,4.10767-1.86561c.72577-.1798,1.465-.29882,2.19452-.42187.746-.03418,1.48187-.101,2.2185-.10266-.70977.22681-1.42028.38867-2.12066.583l-2.05481.68481a21.14813,21.14813,0,0,0-1.953.86841l-.94152.48877-.87836.58447a11.70407,11.70407,0,0,0-2.96674,2.94214A10.60064,10.60064,0,0,0,443.2353,310.45709Z" fill="#e6952a"/><path d="M347.47529,372.73712a7.08414,7.08414,0,0,1,2.54169,2.42212,6.178,6.178,0,0,1,.98382,3.48975,6.88435,6.88435,0,0,1-1.10016,3.44055,11.95824,11.95824,0,0,1-1.09033,1.3971c-.43634.39587-.87579.78112-1.335,1.13049.30145-.50586.63244-.968.94885-1.43372.25623-.50451.57562-.96533.79236-1.46924a7.89413,7.89413,0,0,0,.78516-3.088,6.69461,6.69461,0,0,0-.66712-3.09472A12.418,12.418,0,0,0,347.47529,372.73712Z" fill="#e6952a"/><path d="M383.47529,274.81708a4.3844,4.3844,0,0,1,1.66229,1.41357,4.33625,4.33625,0,0,1,.85767,2.00647,4.33673,4.33673,0,0,1-1.6623-1.41357A4.38487,4.38487,0,0,1,383.47529,274.81708Z" fill="#e6952a"/><path d="M285.01012,247.09708c-6.95358-2.40091-8.57122-21.13417-11.50018-30.78115a7.72731,7.72731,0,0,0-8.11466-5.45885h0s-9.26849,4.32-9.1338-.91195a3.42936,3.42936,0,0,0-1.29327-2.803.96223.96223,0,0,1-.02313-1.47825,9.8866,9.8866,0,0,0,2.63654-3.14023.68482.68482,0,0,0-.76-.94562l-3.78926.7586a.55079.55079,0,0,1-.65787-.57393l.03109-.50481a.58747.58747,0,0,0-.56037-.623l-1.328-.05882a1.397,1.397,0,0,1-1.26546-1.83158l1.6772-5.10664a3.85848,3.85848,0,0,0-.12193-2.72406c-1.08578-2.53788-3.20267-8.471-2.3382-14.518,0,0,4.72232,8.08246,19.21706,15.63518,0,0,.46146-9.606,7.45313-4.74869,0,0,2.72121,1.795,2.16012,8.79094l2.81609,2.01661a10.8697,10.8697,0,0,1,4.36709,6.187c.86564,3.61877,8.07453-2.07169,9.59624-.71254C294.07853,203.56432,294.57135,250.39836,285.01012,247.09708Z" fill="#f9977a"/><path d="M258.80356,190.39854a.54121.54121,0,0,0,.26387-1.03,20.67337,20.67337,0,0,0-8.64261-1.73968.54054.54054,0,0,0-.52016.56151.5498.5498,0,0,0,.56087.5207,19.88362,19.88362,0,0,1,8.14069,1.63718A.53729.53729,0,0,0,258.80356,190.39854Z" fill="#350500"/><path d="M256.12678,191.83982a3.93817,3.93817,0,0,0-2.09708-.80859,3.26033,3.26033,0,0,0-2.18312.545c.38453-.01572.73393-.06155,1.08925-.05339a7.1966,7.1966,0,0,1,1.04845.04733C254.68831,191.60185,255.373,191.75443,256.12678,191.83982Z" fill="#350500"/><ellipse cx="253.47638" cy="192.4607" rx="1.19093" ry="0.68223" transform="translate(45.79704 433.62597) rotate(-86.47547)" fill="#050505"/><path d="M275.06076,189.61012a4.59323,4.59323,0,0,0-3.07414-1.02034,3.06305,3.06305,0,0,0-1.58951.58854,2.82869,2.82869,0,0,0-.95768,1.33326,4.83155,4.83155,0,0,1,1.18858-.9794,3.52765,3.52765,0,0,1,1.39808-.40272A9.00326,9.00326,0,0,1,275.06076,189.61012Z" fill="#dd765e"/><path d="M274.76551,194.40366a10.54687,10.54687,0,0,1-1.95519-2.50756,6.15076,6.15076,0,0,1-.57279-1.44518,9.38939,9.38939,0,0,1-.25535-1.58895,3.89155,3.89155,0,0,0-.1601,1.666,4.371,4.371,0,0,0,.51109,1.62344,5.26742,5.26742,0,0,0,1.03515,1.33973A4.50064,4.50064,0,0,0,274.76551,194.40366Z" fill="#dd765e"/><path d="M272.67263,214.468s15.40264,55.18908,19.36264-12.01092c0,0,4.68-2.7,7.38-.9,0,0,.19584,10.31426,4.12568,18.44128a13.66961,13.66961,0,0,0,22.17826,3.32472q.07776-.08229.15606-.166s10.68,18.42,24.84,41.58c0,0-6.36,22.18-22.56,34.6,0,0-29.37384-18.16-37.02-34.78,0,0-14.64261.61038-14.4-16.41937,0,0-3.0466-11.95469-6.8266-14.11469C269.90867,234.023,267.39263,209.308,272.67263,214.468Z" fill="#f73c4f"/><path d="M248.4688,176.3958s2.12865,7.71493,19.21706,15.63518c0,0,.83144-5.6854,4.5232-5.75038a3.62286,3.62286,0,0,1,3.079,1.73878,12.46508,12.46508,0,0,1,2.011,8.05385,28.45015,28.45015,0,0,0,1.5568,8.80262c1.25391,3.01861,2.43226,8.43085,4.87512,7.07037,15.0504-8.3819,10.80654-21.32666,7.02065-32.94612C283.306,156.14812,251.90776,160.72392,248.4688,176.3958Z" fill="#84382a"/><circle cx="289.63039" cy="166.9323" r="13.25983" fill="#84382a"/><circle cx="275.24345" cy="197.18041" r="3.12623" fill="#f73c4f"/><path d="M273.23,216.34563c.07678.25268.21071.65069.28579.91546l.2222-.16462c1.7727-5.16052-.46033-11.66931-.46033-11.66931a24.47866,24.47866,0,0,1-7.88232,5.42993A7.43122,7.43122,0,0,1,273.23,216.34563Z" fill="#dd765e"/><path d="M291.13526,264.55707a5.74086,5.74086,0,0,1,2.1806-.57117,9.522,9.522,0,0,1,1.07538-.02209c.36481.00452.7052.04907,1.124.05322a1.91676,1.91676,0,0,1-.98713.715,4.35236,4.35236,0,0,1-1.13055.24987A4.08854,4.08854,0,0,1,291.13526,264.55707Z" fill="#b02336"/><path d="M314.2353,278.23712c1.20984.33326,2.41717.65015,3.64056.897,1.21478.27539,2.43665.5122,3.66474.69226a41.22328,41.22328,0,0,0,7.38079.52014,21.80847,21.80847,0,0,0,7.1872-1.298,14.52929,14.52929,0,0,0,5.96667-4.23145,13.3016,13.3016,0,0,1-2.43048,2.90039,14.69292,14.69292,0,0,1-3.23834,2.04028,19.20218,19.20218,0,0,1-7.457,1.58777,31.33134,31.33134,0,0,1-7.54858-.76635A34.83653,34.83653,0,0,1,314.2353,278.23712Z" fill="#b02336"/><path d="M445.5953,216.1171a7.94905,7.94905,0,0,1-.17,1.13,14.178,14.178,0,0,1-1.97,4.76989l-8.06994,5.08008a9.5055,9.5055,0,0,1-5.52,1.45l-11.23-.53,1.11987-11.87988,8.25-6.23a5.73344,5.73344,0,0,1,2.64014-1.11011l9.78991-1.46a10.46955,10.46955,0,0,1,2.43006,1.79,8.07977,8.07977,0,0,1,.74.79,8.76647,8.76647,0,0,1,1.47,2.49,5.67771,5.67771,0,0,1,.31006.96A8.69853,8.69853,0,0,1,445.5953,216.1171Z" fill="#f9977a"/><path d="M419.7552,216.13715l4.50933-3.62427,2.26117-1.80347a15.60472,15.60472,0,0,1,2.40192-1.70568,6.00611,6.00611,0,0,1,1.44037-.48694l1.4375-.24256,2.8526-.47326c1.90027-.3252,3.80743-.604,5.71161-.90271l.14117-.02222.119.06226a11.53576,11.53576,0,0,1,3.44794,2.81994,9.405,9.405,0,0,1,1.20153,1.90064,7.52209,7.52209,0,0,1,.40332,1.05285,6.11041,6.11041,0,0,1,.2948,1.0979,9.00287,9.00287,0,0,1,.12116,2.25257,14.72331,14.72331,0,0,1-.41168,2.19873,15.78377,15.78377,0,0,1-1.83728,3.99927l-.05811.09326-.08948.05566-5.6416,3.50867c-.94616.5896-1.86914,1.15564-2.85492,1.73218a9.81275,9.81275,0,0,1-3.24872,1.09729,14.29558,14.29558,0,0,1-3.37988.01281l-3.3147-.23108-6.62689-.512,6.64557.11438,3.32153.08215a13.7291,13.7291,0,0,0,3.24561-.11377,9.09984,9.09984,0,0,0,2.97888-1.11572l2.77832-1.78906,5.60315-3.57007-.14734.14868a14.84485,14.84485,0,0,0,1.68811-3.77331,9.37385,9.37385,0,0,0,.26288-4.02112,5.17653,5.17653,0,0,0-.25079-.96875,6.58348,6.58348,0,0,0-.35-.94861,8.45468,8.45468,0,0,0-1.06311-1.7207,10.71884,10.71884,0,0,0-3.10724-2.6051l.25971.03991c-1.90875.2699-3.81452.55969-5.72718.8031l-2.86682.37976a9.0629,9.0629,0,0,0-2.726.58606,15.30611,15.30611,0,0,0-2.35181,1.56568l-2.35351,1.68127Z" fill="#dd765e"/><path d="M443.60531,209.91715l-9.31006,3.57a.569.569,0,0,1-.17993.0299.50121.50121,0,0,1-.18006-.97l8.93006-3.41992A8.07977,8.07977,0,0,1,443.60531,209.91715Z" fill="#dd765e"/><path d="M445.38534,213.3671l-8.17005,3.13a.56889.56889,0,0,1-.18.0299.50118.50118,0,0,1-.17993-.97l8.22-3.1499A5.67771,5.67771,0,0,1,445.38534,213.3671Z" fill="#dd765e"/><path d="M445.5953,216.1171a7.94905,7.94905,0,0,1-.17,1.13l-7.46,2.86a.39174.39174,0,0,1-.18.04.52217.52217,0,0,1-.47-.32007.50237.50237,0,0,1,.29-.6499Z" fill="#dd765e"/><path d="M163.09527,203.811a91.92564,91.92564,0,0,0-8.37048-7.081c-.69534-.47574-1.37886-.963-2.04967-1.47281-1.76727-1.343-4.98352-3.60724-6.263-3.34623-1.80641.36848,5.52085,7.41043,5.52085,7.41043l-17.45045-3.48072a3.26171,3.26171,0,0,0-1.29105-.01229c-.72886.14932-1.42486.554.54786,1.64743,1.57115.87087,10.22451,3.76287,10.22451,3.76287l-11.41041-1.53689s-5.21486.09735-1.02378,1.944a51.78668,51.78668,0,0,0,10.85915,2.809l-9.50331.00751s-4.79225-.10216-.15706,1.62459a23.20265,23.20265,0,0,0,8.6473,1.47217s-.75062.81957-7.33066.31653c0,0-5.87047.09565,2.24368,2.13406a77.74729,77.74729,0,0,1,9.197,2.55822c1.97307.70708,4.465,2.11836,6.5609,2.12547l8.46954.58088Z" fill="#f9977a"/><path d="M151.2311,200.49688a3.9379,3.9379,0,0,0-.64634,1.63159,6.05727,6.05727,0,0,0-.05318,1.76974,6.78989,6.78989,0,0,0,.44154,1.70552c.1066.27286.24638.53165.36974.79372.15867.24759.30761.4968.48622.72767a30.2028,30.2028,0,0,1-.6634-3.30174A11.17862,11.17862,0,0,1,151.2311,200.49688Z" fill="#dd765e"/><path d="M148.89952,201.12624c-.96636.887-1.8401,1.81179-2.77557,2.666q-.68628.655-1.42832,1.23362a7.58314,7.58314,0,0,1-1.62374.98826,4.03353,4.03353,0,0,0,1.89229-.57667,7.79671,7.79671,0,0,0,1.59468-1.17772,10.788,10.788,0,0,0,1.31109-1.46428A9.26339,9.26339,0,0,0,148.89952,201.12624Z" fill="#dd765e"/><rect x="231.38982" y="469.53689" width="279.74365" height="5" rx="2.5" fill="#376f92"/></svg>