<svg xmlns="http://www.w3.org/2000/svg" data-name="Layer 1" viewBox="0 0 700 550"><path d="M414.39177,395.14325a1.6698,1.6698,0,0,0-.19719-.00778h-.02278q-11.592-.421-23.19175-.75839h-.015q-17.04138-.4888-34.06719-.80394h-.02259c-.0911,0-.1896-.00741-.28069-.00741-.06073,2.14632-.11369,4.33781-.15924,6.30971.12887,0,.25774-.00741.38679-.01519h.00759q28.76973-.96707,57.53167-2.41182h.02277c.08351-.00741.15924-.00741.23515-.01482Zm-84.121-1.99486h-.00759c-2.28278-.03777-4.558-.06813-6.84073-.09072l-26.56657-.24293c-8.8428-.0985-17.701-.10628-26.55138-.10628-8.858.00778-17.71616-.053-26.56656.00778l-26.559.22-26.56656.40957-6.636.0985-3.31409.06073-1.44087.02259-.00778-1.25128-.08332-6.64335c-.12146-10.46606-.22755-20.93175-.37919-31.39q-.14776-10.86378-.38679-21.73569l-1.38033-53.118c-.417-17.716-.78117-35.42456-.78117-53.133-.09091-8.858.06073-17.701.0911-26.559.15164-8.8504.25014-17.70839.51565-26.559l.77358-25.27715.81912-26.6273c.053-.06832.13646-.12127.19719-.09868a.12687.12687,0,0,1,.05314.00777h.02259l.23515.00741,1.66084.02277,6.636.06073,13.27948.12128.948.00759,12.33908.09869,13.27949.03036c2.11595.00741,4.2243.01519,6.34025.02259q18.08758.03417,36.16018-.08332l10.62511-.04555,26.56656-.12127.81135-.00759,25.74-.24274c10.07909-.06832,8.42566-.21237,18.50474-.34124-.12127-.32624-.22755-.6673-.33365-1.00872a12.52534,12.52534,0,0,1-.44751-2.222,7.31851,7.31851,0,0,1,.31865-3.22317c-9.91986-.14405-8.11478-.23515-18.04223-.30347l-26.14182-.24255-.40956-.00759-8.8504-.038-17.71616-.08332q-5.52882-.02277-11.065-.05314-4.59591-.02277-9.18405-.038-13.50333-.05693-26.99131-.038c-1.9643.00759-3.92084.01518-5.88514.02277l-3.27613.00759-10.00336.02278-12.76364.0985-.52344.00759-8.72153.0835-4.558.038-6.636.06055-1.66084.02277-.20478.00759-.38679.00759a9.11357,9.11357,0,0,0-2.3585.53084,7.538,7.538,0,0,0-4.27745,4.52,7.43161,7.43161,0,0,0-.34883,1.55475,6.904,6.904,0,0,0-.04555.79635l.00759.26551v.21219l.038,1.661.09091,3.31408.18219,6.65114.40957,13.27189.28051,9.23737.51565,17.3292c.27311,8.85058.37161,17.70857.531,26.559.02258,8.858.17441,17.701.09091,26.559,0,17.70839-.35643,35.417-.78117,53.133l-1.38033,53.118q-.1933,8.25919-.31847,16.51025c-.19719,12.20281-.31087,24.40525-.45492,36.61547l-.07592,6.64335-.01518,1.66084v.19738l.00759.43215a7.16673,7.16673,0,0,0,.08351.87985,7.62756,7.62756,0,0,0,.45492,1.7138,6.64375,6.64375,0,0,0,.46271,1.00131,8.31309,8.31309,0,0,0,4.48963,3.8527,8.42218,8.42218,0,0,0,1.73675.417c.2881.04555.59157.04555.88726.06814l.52325.00778h1.65343l3.32168.01518,4.67183.00741h1.97171l26.56656.00777,26.559-.1596c8.8504-.07554,17.70857-.25774,26.56656-.38661,8.8504-.12886,17.7008-.27291,26.55138-.49288l26.56638-.6373q7.20105-.19331,14.40208-.40179c.12887,0,.25774-.0074.39438-.0074.24256-1.66084.63694-4.38373,1.0465-7.18216-.08332,0-.15923,0-.24274-.0074C336.14831,393.22431,333.20565,393.17876,330.27076,393.14839Zm57.05073-278.45947c.43993,1.51678,2.78648,3.90777,2.82443,4.067.1896.75839,5.69556.19525,6.07475.88532a1.1288,1.1288,0,0,1,.06814.13646c.07591.13664.14424.2807.21256.42475.53084-.00741,1.05408-.01519,1.58492-.03037.00759.00778.00759.00778.01519,0,13.56777-.21978,30.74532.33365,44.30532.03037.62193-.713-.46134-2.1338.08468-2.71019.66748-.71285-.65348-1.34711-.08468-1.86277C426.46534,115.25771,403.263,114.95443,387.32149,114.68892Z"/><path d="M145.40205,450.67457c-1.33448-11.97294-2.0271-23.94587-2.52686-35.91881-.117-2.99329-.22889-5.98647-.308-8.97976l-.03322-1.12244-.01661-.56128c-.004-.19614-.01649-.33122-.005-.66771a7.97708,7.97708,0,0,1,.82584-3.39539,8.19767,8.19767,0,0,1,5.3708-4.30439,8.95124,8.95124,0,0,1,1.74045-.2359l1.12314-.04024,2.24629-.07169,4.49292-.14339,8.98713-.2159,8.98818-.13334c1.49624-.0166,2.9968-.01742,4.50555.01193l2.25868.02889.58339.00877c.29742.01579.59543.02363.891.0634a8.332,8.332,0,0,1,1.73986.42163,8.16953,8.16953,0,0,1,4.89362,4.84473,7.63118,7.63118,0,0,1,.42677,1.712,8.6617,8.6617,0,0,1,.06772,1.55542l-.06678,2.24488c-.08,2.99329-.18818,5.98647-.30771,8.97976-.49766,11.97294-1.19262,23.94587-2.53576,35.91881-1.343-11.97294-2.0381-23.94587-2.53564-35.91881-.11953-2.99329-.22771-5.98647-.30771-8.97976l-.06679-2.24488a3.31154,3.31154,0,0,0-.025-.4414,1.12339,1.12339,0,0,0-.035-.24117,1.78414,1.78414,0,0,0-.14328-.45309,2.14191,2.14191,0,0,0-1.36138-1.19414,2.19462,2.19462,0,0,0-.44315-.07847c-.07544-.00515-.153.00257-.22866-.00632l-.53905.00561-2.23108.02878c-1.48478.009-2.977.04807-4.47339.10327l-8.96783.21052-8.969.12784-4.4852.02854-2.24266.01426-1.1215.00281a2.97335,2.97335,0,0,0-.48432.03275,2.18089,2.18089,0,0,0-1.48185,1.05273,2.39769,2.39769,0,0,0-.29006.91449,3.82636,3.82636,0,0,0-.02421.45415l-.01649.56128L148.237,405.776c-.07906,2.99329-.1911,5.98647-.30794,8.97976C147.42928,426.7287,146.73665,438.70163,145.40205,450.67457Z"/><path d="M189.36265 461.66467c14.94006 0 14.96481-23.2186 0-23.2186-14.94006 0-14.96481 23.2186 0 23.2186zM145.4021 462.28384c14.94006 0 14.9648-23.2186 0-23.2186-14.94007 0-14.96481 23.2186 0 23.2186zM191.52973 114.54657a24.45543 24.45543 0 01.94841-4.57239 17.34092 17.34092 0 01.87121-2.22225 6.51856 6.51856 0 011.49413-2.08939 2.72571 2.72571 0 011.42162-.69706 2.45043 2.45043 0 011.64957.37023 6.14684 6.14684 0 011.83951 1.99511 19.02829 19.02829 0 011.87307 4.4793 22.33868 22.33868 0 01.71052 4.75157c.0269 1.623-.04433 3.11873-.12152 4.66626-.14643 3.07446-.36386 6.14892-.77987 9.22338-.41614-3.07446-.63356-6.14892-.78-9.22338-.10737-1.52624-.07591-3.10733-.20807-4.55544a22.11472 22.11472 0 00-.749-4.33865 18.49788 18.49788 0 00-1.574-4.04966 4.6068 4.6068 0 00-1.13975-1.46927.82479.82479 0 00-.532-.19 1.09416 1.09416 0 00-.63917.25087 5.72654 5.72654 0 00-1.3311 1.52 17.52293 17.52293 0 00-1.09975 1.94331C192.69673 111.68936 192.115 113.111 191.52973 114.54657zM223.48859 114.54657a24.465 24.465 0 01.94841-4.57239 17.35939 17.35939 0 01.87133-2.22225 6.515 6.515 0 011.49413-2.08939 2.72486 2.72486 0 011.4215-.69706 2.45076 2.45076 0 011.64969.37023 6.14684 6.14684 0 011.83951 1.99511 19.02789 19.02789 0 011.873 4.4793 22.34587 22.34587 0 01.71064 4.75157c.0269 1.623-.04433 3.11873-.12164 4.66626-.14631 3.07446-.36374 6.14892-.77987 9.22338-.416-3.07446-.63344-6.14892-.77987-9.22338-.10749-1.52624-.076-3.10733-.20807-4.55544a22.11472 22.11472 0 00-.749-4.33865 18.49788 18.49788 0 00-1.574-4.04966 4.60531 4.60531 0 00-1.13987-1.46927.8245.8245 0 00-.53192-.19 1.0936 1.0936 0 00-.63917.25087 5.72664 5.72664 0 00-1.33121 1.52 17.53994 17.53994 0 00-1.09964 1.94331C224.65559 111.68936 224.07385 113.111 223.48859 114.54657zM259.64459 114.54657a24.45623 24.45623 0 01.94841-4.57239 17.34092 17.34092 0 01.87121-2.22225 6.51859 6.51859 0 011.49414-2.08939 2.72564 2.72564 0 011.42161-.69706 2.45041 2.45041 0 011.64957.37023 6.14684 6.14684 0 011.83951 1.99511 19.02829 19.02829 0 011.87307 4.4793 22.338 22.338 0 01.71052 4.75157c.0269 1.623-.04433 3.11873-.12152 4.66626-.14643 3.07446-.36385 6.14892-.77987 9.22338-.41614-3.07446-.63356-6.14892-.78-9.22338-.10737-1.52624-.07591-3.10733-.20807-4.55544a22.10657 22.10657 0 00-.749-4.33865 18.49841 18.49841 0 00-1.574-4.04966 4.6068 4.6068 0 00-1.13975-1.46927.82479.82479 0 00-.532-.19 1.09416 1.09416 0 00-.63917.25087 5.72845 5.72845 0 00-1.33109 1.52 17.50148 17.50148 0 00-1.09964 1.94331C260.81159 111.68936 260.22984 113.111 259.64459 114.54657zM297.65132 114.54657a24.46584 24.46584 0 01.94841-4.57239 17.35939 17.35939 0 01.87133-2.22225 6.51491 6.51491 0 011.49414-2.08939 2.72482 2.72482 0 011.4215-.69706 2.45073 2.45073 0 011.64968.37023 6.14684 6.14684 0 011.83951 1.99511 19.02792 19.02792 0 011.873 4.4793 22.34649 22.34649 0 01.71063 4.75157c.0269 1.623-.04433 3.11873-.12164 4.66626-.14631 3.07446-.36373 6.14892-.77987 9.22338-.416-3.07446-.63344-6.14892-.77987-9.22338-.10748-1.52624-.076-3.10733-.20807-4.55544a22.11471 22.11471 0 00-.749-4.33865 18.49841 18.49841 0 00-1.574-4.04966 4.60543 4.60543 0 00-1.13986-1.46927.82454.82454 0 00-.53193-.19 1.09363 1.09363 0 00-.63917.25087 5.72681 5.72681 0 00-1.33121 1.52 17.53827 17.53827 0 00-1.09963 1.94331C298.81832 111.68936 298.23658 113.111 297.65132 114.54657z"/><path d="M185.95729 142.666c2.2726-2.66675 4.70964-5.1511 7.1854-7.59247 1.25331-1.20367 2.49341-2.422 3.776-3.59305 1.27811-1.17613 2.55049-2.35863 3.86159-3.49814l.01777-.01544a.97477.97477 0 011.37519.09631 1.08594 1.08594 0 01.07883.104q2.30207 3.50214 4.435 7.1168c.719 1.19963 1.40512 2.42108 2.08605 3.646.67508 1.22881 1.33682 2.46645 1.95062 3.736-.93414-1.05642-1.82021-2.14477-2.69307-3.242-.86689-1.10109-1.72875-2.20564-2.55762-3.33206q-2.51049-3.36345-4.85233-6.8392l1.47155.18485c-1.26875 1.18653-2.57622 2.33-3.878 3.47989-1.29718 1.1549-2.637 2.2626-3.96358 3.385C191.56692 138.51309 188.84438 140.68078 185.95729 142.666zM216.05863 142.666c2.2726-2.66675 4.70976-5.1511 7.18552-7.59247 1.25332-1.20367 2.4933-2.422 3.776-3.59305 1.27811-1.17613 2.55038-2.35863 3.86147-3.49814l.01778-.01544a.97475.97475 0 011.37518.09631 1.06488 1.06488 0 01.07883.104q2.30208 3.50214 4.43515 7.1168c.71893 1.19963 1.405 2.42108 2.08605 3.646.67508 1.22881 1.33682 2.46645 1.95062 3.736-.93414-1.05642-1.82021-2.14477-2.69307-3.242-.86688-1.10109-1.72874-2.20564-2.55762-3.33206q-2.51049-3.36345-4.85233-6.8392l1.47156.18485c-1.26876 1.18653-2.57623 2.33-3.878 3.47989-1.29718 1.1549-2.637 2.2626-3.96358 3.385C221.66838 138.51309 218.94573 140.68078 216.05863 142.666zM252.21463 142.666c2.2726-2.66675 4.70965-5.1511 7.18552-7.59247 1.2532-1.20367 2.4933-2.422 3.776-3.59305 1.278-1.17613 2.55037-2.35863 3.86147-3.49814l.01778-.01544a.97476.97476 0 011.37518.09631 1.06647 1.06647 0 01.07883.104q2.30208 3.50214 4.43515 7.1168c.71893 1.19963 1.405 2.42108 2.08593 3.646.67508 1.22881 1.33694 2.46645 1.95074 3.736-.93414-1.05642-1.82033-2.14477-2.69307-3.242-.867-1.10109-1.72875-2.20564-2.55774-3.33206q-2.51031-3.36345-4.85221-6.8392l1.47144.18485c-1.26864 1.18653-2.57623 2.33-3.878 3.47989-1.29718 1.1549-2.63692 2.2626-3.96346 3.385C257.82426 138.51309 255.10173 140.68078 252.21463 142.666zM310.66623 133.63368c-.70314-.71572-1.36162-1.46115-2.00465-2.21693-.64057-.75712-1.26887-1.52307-1.87319-2.30388l1.0856.1359q-1.80208 1.89165-3.706 3.67013c-1.2615 1.19437-2.56359 2.34365-3.87562 3.48206-1.32712 1.12156-2.675 2.22-4.0603 3.27714-1.39752 1.04344-2.81095 2.06922-4.32087 2.988 1.06981-1.40688 2.23622-2.7068 3.41843-3.98907 1.1946-1.26863 2.4264-2.49593 3.679-3.70006 1.26782-1.18735 2.54558-2.36383 3.86381-3.49516q1.96945-1.70594 4.0334-3.30709l.08421-.06509a.6765.6765 0 01.94887.12187.75828.75828 0 01.05275.07918c.48841.85935.95157 1.73443 1.40314 2.61786C309.84391 131.81347 310.27735 132.70872 310.66623 133.63368z"/><path d="M193.45637,204.09609h-.24256a6.18125,6.18125,0,0,0,.45493,1.08445A4.43472,4.43472,0,0,1,193.45637,204.09609Zm0,0h-.24256a6.18125,6.18125,0,0,0,.45493,1.08445A4.43472,4.43472,0,0,1,193.45637,204.09609Zm0,0h-.24256a6.18125,6.18125,0,0,0,.45493,1.08445A4.43472,4.43472,0,0,1,193.45637,204.09609Zm-10.27628-61.42232A45.63656,45.63656,0,0,0,186.828,150.887a14.26711,14.26711,0,0,0,2.64679,3.32945,5.42424,5.42424,0,0,0,3.45832,1.51679,5.323,5.323,0,0,0,3.572-1.19832,9.43952,9.43952,0,0,0,2.48-3.27613,31.90385,31.90385,0,0,0,2.4496-8.60026C193.244,150.56858,183.58225,142.99223,183.18009,142.67377Zm10.27628,61.42232h-.24256a6.18125,6.18125,0,0,0,.45493,1.08445A4.43472,4.43472,0,0,1,193.45637,204.09609Zm19.43773,46.27722q-2.00217-9.704-3.64033-19.46792c-1.10722-6.49948-2.10836-13.02175-3.07153-19.5516-.9404-6.52967-1.85044-13.05934-2.65438-19.612q-1.22868-9.81727-2.09317-19.68788,2.00217,9.70369,3.63273,19.46792c1.11482,6.49949,2.10836,13.02934,3.07913,19.54383.9404,6.53744,1.85043,13.05952,2.64678,19.61974q1.25147,9.81727,2.10077,19.68788h10.59474c7.50044-7.11365,9.90467-31.572,7.66745-38.07893-.85708-2.50274-6.49949-17.32938-7.66745-19.49829-1.168-2.16908-3.17-21.97824-1.61547-36.532a9.94674,9.94674,0,0,0-2.47219-8.19069,14.34089,14.34089,0,0,0-5.40745-3.47332,35.64735,35.64735,0,0,0-12.559-1.94154A20.38785,20.38785,0,0,1,200.411,151.873a10.06433,10.06433,0,0,1-2.69992,4.118,7.15039,7.15039,0,0,1-4.84624,1.74452c-.15924-.01518-.31847-.023-.4777-.04554.31846,3.70846.50047,7.43211.62952,11.14076.15164,4.0423.21219,8.092.27292,12.1419.03037,4.0347.04555,8.08441.03037,12.11912l-.01519,6.05956c-.00759,1.00872.02278,2.01726.038,3.026.02277.50807.03037,1.00873.08351,1.5092.0074.144.02258.27292.03018.40956a16.7378,16.7378,0,0,1,2.51792.21237,9.46323,9.46323,0,0,1,2.19186.62194,3.27451,3.27451,0,0,1,1.729,1.48642,4.21777,4.21777,0,0,0-1.9793-.53843,18.39957,18.39957,0,0,0-2.04763-.01518c-1.37274.05295-2.75307.197-4.14839.29569-1.39551.1061-2.79862.20478-4.21672.26533a34.39155,34.39155,0,0,1-4.3304-.00741A18.2714,18.2714,0,0,1,187.26794,204.9a24.87527,24.87527,0,0,1,4.3-.7358c.54621-.04536,1.092-.06814,1.64584-.06814-.1746-.60675-.28828-1.23609-.41715-1.858-.1896-1.00113-.33365-2.00985-.47029-3.01858-.25015-2.01726-.43975-4.0497-.5688-6.07455-.30328-4.04989-.40956-8.10719-.47011-12.15708-.02277-4.05748.00759-8.0996.16683-12.15708.15164-3.72383.35642-7.43989.7508-11.15595a7.3685,7.3685,0,0,1-4.01953-2.0704,13.733,13.733,0,0,1-2.72251-3.98157,25.20176,25.20176,0,0,1-2.29037-8.96427,23.80986,23.80986,0,0,0-5.58945,5.20267,56.65144,56.65144,0,0,0-5.286,7.94795c-14.28062,25.29233-24.90573,74.98992-25.65653,84.9705a17.14014,17.14014,0,0,0,9.28273,16.95759c-.00759-4.884.20478-9.75285.50066-14.622.28051-4.85346.70526-9.71488,1.18314-14.56094.51566-4.84624,1.08445-9.6923,1.85044-14.508.364-2.41183.80394-4.82347,1.29682-7.21993.25774-1.19073.53084-2.389.84931-3.5646.16682-.60656.34124-1.19054.53861-1.77452.11369-.28829.21978-.56879.34883-.85708.144-.25792.27292-.59157.56121-.72044a1.43215,1.43215,0,0,0-.41716.78117c-.0835.2881-.144.57639-.20478.87967-.11368.59916-.19719,1.19832-.2881,1.79748-.15942,1.19833-.29588,2.41164-.41715,3.61756-.26551,2.41164-.48548,4.83087-.72044,7.25029l-1.41069,14.51558c-.51566,4.83846-1.01632,9.67711-1.63066,14.51558-.59139,4.82328-1.2285,9.65434-2.04,14.47022,2.48,11.70215-5.56649,74.98991-5.56649,74.98991,7.40952,6.43117,14.26543,11.81584,20.59791,16.29029q4.03851,2.85564,7.79632,5.22544c46.96729,29.767,61.68765,6.22638,61.99871,5.72572v-.0074C231.778,350.36764,212.8941,250.37331,212.8941,250.37331ZM209.777,157.55336a12.64414,12.64414,0,0,1,2.30555-3.13967,9.15241,9.15241,0,0,1,3.35963-2.17649,5.623,5.623,0,0,1,3.9512,0,10.8918,10.8918,0,0,0-3.26853,1.4181,16.69625,16.69625,0,0,0-2.6392,2.17649c-1.66843,1.63066-3.13226,3.519-4.92956,5.37708A10.95025,10.95025,0,0,1,209.777,157.55336Zm-16.32065,46.54273h-.24256a6.18125,6.18125,0,0,0,.45493,1.08445A4.43472,4.43472,0,0,1,193.45637,204.09609Zm0,0h-.24256a6.18125,6.18125,0,0,0,.45493,1.08445A4.43472,4.43472,0,0,1,193.45637,204.09609Zm0,0h-.24256a6.18125,6.18125,0,0,0,.45493,1.08445A4.43472,4.43472,0,0,1,193.45637,204.09609Zm0,0h-.24256a6.18125,6.18125,0,0,0,.45493,1.08445A4.43472,4.43472,0,0,1,193.45637,204.09609Zm0,0h-.24256a6.18125,6.18125,0,0,0,.45493,1.08445A4.43472,4.43472,0,0,1,193.45637,204.09609Z"/><path fill="#fff" d="M193.666,205.17726a6.006,6.006,0,0,1-.44983-1.07937h.23986A4.39413,4.39413,0,0,0,193.666,205.17726Z"/><path fill="#fff" d="M193.666,205.17726a6.006,6.006,0,0,1-.44983-1.07937h.23986A4.39413,4.39413,0,0,0,193.666,205.17726Z"/><path d="M213.97469,144.50383c5.3853-.173,10.76745-.25643,16.14738-.38111l16.13674-.2276,1.00817-.01421.252-.00357c-.10257-.05333.60163.09971.55637.18971a.87015.87015,0,0,1,.195.23082,1.41781,1.41781,0,0,1,.11193.23607,4.21028,4.21028,0,0,1,.16444.59789c.149.71169.22549,1.38144.3083,2.06079.15707,1.35244.28011,2.69692.39859,4.04223l.638,8.0634c.384,5.37448.81087,10.74312,1.13613,16.11814l1.98827,32.24506c.33988,5.3739.70654,10.74652,1.172,16.11071.44315,5.36607.90829,10.73085,1.49658,16.08306,1.101,10.71184,2.48582,21.39368,4.06194,32.04061,1.58383,10.64547,3.30884,21.26662,5.37115,31.815a280.33009,280.33009,0,0,0,7.77873,31.21115,100.25478,100.25478,0,0,0,5.93956,14.81758,42.4554,42.4554,0,0,0,4.18708,6.66739,16.7795,16.7795,0,0,0,5.7694,4.92684l.05836.02748a.85267.85267,0,0,1,.0207,1.5325,25.38936,25.38936,0,0,1-5.98963,2.03892c-1.00618.26268-2.03365.38923-3.04849.58934-1.02385.12842-2.04723.26526-3.07212.36807a63.41675,63.41675,0,0,1-12.29247-.20362,89.81106,89.81106,0,0,1-12.05972-2.09845c-1.9712-.51824-3.93222-1.07157-5.89138-1.61834l-5.79594-1.90758a.09982.09982,0,0,1-.06363-.12608.10431.10431,0,0,1,.12632-.06374l5.86038,1.6422c1.97553.45707,3.94849.91952,5.92624,1.34629a101.873,101.873,0,0,0,11.99913,1.65951,64.45527,64.45527,0,0,0,12.0389-.15064c.99286-.11883,1.98115-.27052,2.9692-.41262.97286-.21263,1.96524-.35193,2.92055-.62233a24.20114,24.20114,0,0,0,5.48671-1.95986l.07918,1.55986a18.55517,18.55517,0,0,1-6.52939-5.32765,41.03683,41.03683,0,0,1-4.49678-6.92668,96.94614,96.94614,0,0,1-6.17582-15.09857,254.46419,254.46419,0,0,1-7.61113-31.5146c-3.968-21.23182-6.10939-42.7086-8.22035-64.146l-3.09668-32.17383-1.45519-16.09773c-.46736-5.36759-.8201-10.74331-1.21718-16.11516-.39543-5.37192-.66513-10.75185-1.01624-16.12335l-.54373-8.04983c-.10234-1.33835-.20959-2.6771-.34795-4.00129-.07029-.65789-.14854-1.32712-.25438-1.93781a3.20345,3.20345,0,0,0-.08737-.37906c-.00491-.01965-.011-.02439.00865.00631a.51659.51659,0,0,0,.11754.13228c-.07263.05725.58526.20152.442.14848l-.25286-.00357-1.01134-.01421-16.17662-.2276c-5.39115-.12467-10.78008-.20807-16.166-.38116a.1.1,0,0,1,.00071-.19988Z"/><path d="M237.6574 156.683c1.74419 3.37691 3.20019 6.74429 4.98812 9.89109a27.1301 27.1301 0 002.99014 4.4117 8.47368 8.47368 0 004.40193 2.88189 5.32637 5.32637 0 01-2.90979-.23977 8.73225 8.73225 0 01-2.57353-1.518 16.0269 16.0269 0 01-3.64919-4.55391 26.36505 26.36505 0 01-2.22044-5.27624A22.73536 22.73536 0 01237.6574 156.683zM219.392 148.07354c2.49318.07363 4.94625.2814 7.39054.52058l7.30271.76005q1.81664.21623 3.6341.37824c1.20887.13678 2.42.217 3.6258.30994a35.72983 35.72983 0 003.60779.08152 9.32844 9.32844 0 001.76933-.195 2.74141 2.74141 0 001.56933-.7866 2.66857 2.66857 0 01-1.37846 1.30683 8.58446 8.58446 0 01-1.8174.64578 21.128 21.128 0 01-3.75574.50724 47.57247 47.57247 0 01-7.46937-.26181 71.28608 71.28608 0 01-7.33007-1.21127A51.01124 51.01124 0 01219.392 148.07354z"/><path d="M232.39443 144.60377a13.26972 13.26972 0 01.31029 2.74493 25.86382 25.86382 0 01-.09286 2.61991c-.07649.86215-.17672 1.71009-.303 2.56031-.1276.86011-.28619 1.68331-.37871 2.6502a4.95611 4.95611 0 01-1.19238-2.60493 10.24821 10.24821 0 01-.11719-2.77389 12.29038 12.29038 0 01.535-2.68282A8.73328 8.73328 0 01232.39443 144.60377zM237.15425 144.60377a9.57763 9.57763 0 01.51181 2.77 13.25906 13.25906 0 01-.17193 2.73786 19.77838 19.77838 0 01-.64338 2.55476 3.78888 3.78888 0 00-.18807 1.1277c-.02515.42333.04678.88537.02725 1.385a4.35472 4.35472 0 01-.97-1.11191 3.43937 3.43937 0 01-.43532-1.53338 13.681 13.681 0 01.23894-2.75347 23.15528 23.15528 0 01.587-2.59049A12.03979 12.03979 0 01237.15425 144.60377zM257.3057 257.74469v-.03777l-7.42471-86.199-.02277-.31087L247.985 149.52968l-.42475-4.92956V133.35307a14.6135 14.6135 0 004.86124 9.12351c4.01193 3.35963 11.30777 5.23284 24.52653.144 1.38792-.53084 2.83639-1.14518 4.36077-1.83526 0 0-.09851 4.71719.19719 12.976.31087 8.68376 1.06926 21.28058 2.85156 36.42569v.00759l.0076.0911q.47769 4.04988 1.05408 8.33474c-2.586 1.39551-4.35317 3.30649-4.07248 5.91551a25.67144 25.67144 0 00.59157 3.49609l-17.883 15.06938 8.9415 7.46248 15.04642-14.872c.12146.71284.25033 1.43328.37919 2.16131-2.7377 2.79084-5.43762 5.80941-5.43762 6.88628a2.83815 2.83815 0 00.29587 1.312c-1.94153 1.38792-3.82233 2.83639-5.7335 4.26208-.95558.70544-1.88839 1.44106-2.82879 2.1615l-2.45719 1.90357c-2.207-1.90357-4.43668-3.77678-6.66632-5.65l-3.52664-2.9273-2.86657-2.36628c3.65533-3.39759 7.28807-6.81036 10.87526-10.27628 1.91116-1.82766 3.792-3.6781 5.67277-5.52872 1.85044-1.8808 3.74642-3.72365 5.56668-5.64241-2.05522 1.66843-4.0423 3.40519-6.05956 5.104-2.00227 1.72916-3.99675 3.45832-5.96865 5.21007-3.9588 3.48869-7.86445 7.04551-11.75511 10.61011l-.63693.59139.67489.55361 3.557 2.88953 3.572 2.88193c2.38887 1.91117 4.77774 3.81474 7.19715 5.688l.364.28829.33365-.28829 2.69992-2.33572c.89486-.78136 1.7973-1.55475 2.67716-2.3511 1.76693-1.5927 3.56441-3.155 5.30875-4.77792.61416 1.23628 2.12336 1.63066 3.52646.50825.38679-.31106 1.40311-1.09982 2.81361-2.22223 2.36628 12.39223 5.42245 25.558 9.33588 39.04211C298.95664 263.37969 301.41383 277.18261 257.3057 257.74469z"/><path d="M329.30758 164.1969a27.1245 27.1245 0 01-1.54715 6.12029c-.74321 1.47883-3.51128 3.8527-7.06828 6.47672-.34884-1.30442-.72044-2.624-1.16778-3.89825A54.1217 54.1217 0 00316.286 165.38a46.37391 46.37391 0 00-4.323-6.92423c1.896 5.10416 3.96639 10.04131 5.67278 15.09215q.78514 2.19547 1.42587 4.42909c-5.31635 3.78437-11.831 7.872-16.05532 10.45828a5.32467 5.32467 0 00.28828-.95577c.12887-.69007.30347-1.40292.37161-2.10817.05314-.71285.0985-1.42588.13646-2.13113l-.02278-2.13114a58.51421 58.51421 0 00-1.04649-8.39528 81.51564 81.51564 0 00-2.08559-8.16792 59.04138 59.04138 0 00-2.99562-7.86464c.41716 2.79084.948 5.52872 1.494 8.259l1.63047 8.15273q.80764 4.08378 1.44865 8.16014l.27292 2.04782.182 2.04762c.07591.69008.03795 1.35737.06832 2.05522a5.16431 5.16431 0 01-.06073 1.0315l-.01518.20478-.38554.23116c-.2731-.11369-.22881.40577-.49413.29949-10.90581-4.156-17.42788 1.115-17.42788 1.115l-.0076-.0911v-.00759L281.506 153.76139c2.98043-11.46682 6.91645-16.38879 6.91645-16.38879s.21238 9.63916 20.21132 8.08441q.11358.35272.2731.728c.11368.27311.235.5538.37142.81913a22.97012 22.97012 0 004.80828 6.15806 13.29006 13.29006 0 003.87548 2.51033 25.05731 25.05731 0 006.3023 1.91117 3.11526 3.11526 0 012.3585 1.64565C327.222 160.37475 328.14722 162.10373 329.30758 164.1969zM267.93325 320.87961c1.006.47532 1.91553 1.04426 2.87177 1.52916.99285.427 1.89752.981 2.89564 1.36571 1.95038.85175 3.93281 1.59355 5.9391 2.32383.999.37854 1.99108.802 3.02054 1.12683l1.54033.51023c.51847.15362 1.04829.26186 1.57565.38093a22.76248 22.76248 0 003.20557.48455 27.87831 27.87831 0 003.243.14234c1.083.00456 2.16231-.0045 3.24264-.03889 1.07952-.02854 2.15389.00322 3.23189-.04491 2.1533-.04813 4.30333-.15748 6.4557-.23128 4.30965-.1048 8.62351-.29421 13.01327-.244a.101.101 0 01.02714.19807 60.87684 60.87684 0 01-12.9424 2.1757 62.82776 62.82776 0 01-6.57839-.00918 46.04665 46.04665 0 01-6.54435-.71519c-1.08467-.15649-2.15845-.3855-3.2368-.55959l-3.23376-.52c-1.08665-.12988-2.16734-.30163-3.25972-.457a25.40089 25.40089 0 01-3.25937-.61146 18.734 18.734 0 01-3.15-1.062 23.87016 23.87016 0 01-2.99177-1.46787 10.04822 10.04822 0 01-1.4132-.88508c-.46022-.3128-.911-.63824-1.35612-.96683a24.43108 24.43108 0 01-2.42277-2.26932.10017.10017 0 01.11438-.16053zM271.261 318.519a1.50008 1.50008 0 000-2.99837 1.50008 1.50008 0 000 2.99837z"/><path d="M281.69533 323.0166a1.50008 1.50008 0 000-2.99837 1.50008 1.50008 0 000 2.99837zM295.00811 324.99552a1.50008 1.50008 0 000-2.99837 1.50008 1.50008 0 000 2.99837zM309.40029 324.27592a1.50009 1.50009 0 000-2.99838 1.50009 1.50009 0 000 2.99838zM318.72133 178.28343l-.44163-.61754c.56046-.40046 2.25962-1.64957 2.78265-2.03506l.451.61005C320.98843 176.62824 319.28366 177.88109 318.72133 178.28343zM400.56606 127.00114a24.41512 24.41512 0 00-6.67616 3.63609 18.58112 18.58112 0 00-5.02263 5.61057l-.456.82613c-.14562.2783-.25111.57625-.37871.863l-.732 1.76261c-.46245 1.206-1.05683 2.33774-1.60466 3.49656-1.15846 2.281-2.35224 4.54309-3.6231 6.75868-5.057 8.88023-10.44665 17.55028-15.937 26.16391l-.36818.57765-.53882-.43736-21.89468-17.77227.83262.04-15.26412 10.24617.2338-.98963a286.00949 286.00949 0 0015.93721 24.5 132.38163 132.38163 0 009.19426 11.31611 63.22337 63.22337 0 005.18859 5.0632c.91764.77929 1.86313 1.519 2.841 2.20366.50339.314.98186.68244 1.50548.95361a10.6 10.6 0 001.52992.768 5.73668 5.73668 0 003.27913.02234 12.49666 12.49666 0 003.21049-1.382 31.50147 31.50147 0 005.65349-4.44339 89.32256 89.32256 0 009.4442-11.09652 268.0399 268.0399 0 0015.83007-24.63966 245.03867 245.03867 0 01-15.20938 25.09007 90.13684 90.13684 0 01-9.3773 11.35072 32.49263 32.49263 0 01-5.78331 4.679 13.588 13.588 0 01-3.47949 1.55244 6.901 6.901 0 01-3.94684.0076 11.419 11.419 0 01-1.75729-.83935c-.56607-.28514-1.06771-.65771-1.60466-.98332a34.35634 34.35634 0 01-2.97037-2.25973 64.499 64.499 0 01-5.32565-5.14461 133.6961 133.6961 0 01-9.34643-11.387 266.75921 266.75921 0 01-16.10925-24.59235l-.34924-.60257.58315-.3873 15.31395-10.17162.43356-.28806.39941.32812L366.00957 175.303l-.90677.14023c5.60367-8.512 11.11915-17.09994 16.29113-25.87889 1.29366-2.1947 2.5554-4.406 3.7555-6.64856.56911-1.1325 1.19039-2.25067 1.66945-3.41726l.77812-1.7529c.13848-.29228.255-.59544.41134-.87806l.48865-.83754a18.91939 18.91939 0 015.24683-5.58945A24.40993 24.40993 0 01400.56606 127.00114z"/><path d="M367.07541 184.88176a1.35776 1.35776 0 01-1.10315-.54543 3.65589 3.65589 0 01-.61835-1.12227 9.76632 9.76632 0 01-.50947-2.49324c-.04818-.42268-.0697-.84443-.07812-1.26583-.02164-.42362-.02188-.84508-.01-1.26531-.00222-.84636.06831-1.68056.11334-2.52394l1.49916.23064c-.16538.794-.35871 1.59115-.47918 2.3926-.0738.40117-.13555.80268-.17625 1.20484-.054.40333-.09532.80654-.11076 1.20946a9.23462 9.23462 0 00.11508 2.40394 3.38261 3.38261 0 00.4062 1.11542A1.26631 1.26631 0 00367.07541 184.88176zM368.19805 292.49454l-10.22314 96.24013a37.37191 37.37191 0 01-11.39109 4.65665h-.00759a35.92006 35.92006 0 01-16.30547-.24293h-.00759a46.99931 46.99931 0 01-18.52011-9.3281l6.43894-55.53718 7.09088-61.12663a154.30989 154.30989 0 0022.183 15.94146A101.01993 101.01993 0 00368.19805 292.49454zM436.24114 387.64263c-2.69993 4.0497-6.8635 6.4993-11.61106 7.88722-12.96083 3.80716-30.22948-.27292-33.65-1.15277h-.015c-.38679-.0985-.59157-.15923-.59157-.15923L373.924 294.01133c14.11361 3.12467 28.93266 1.50161 41.55226-10.46606z"/><rect width="96.13" height=".758" x="308.868" y="337.621" fill="#fff" transform="rotate(-84.332 356.933 338)"/><path fill="#fff" d="M342.73129 382.7307c-16.61918 0-29.64638-10.674-29.81667-10.81623l.48655-.582c.21988.18433 22.31455 18.27437 45.489 6.87149l.335.68116A36.96639 36.96639 0 01342.73129 382.7307zM407.25626 384.17723a55.9756 55.9756 0 01-19.29143-3.389l.29193-.69987c.24514.102 24.78562 10.02372 45.34581-4.86169l.44537.61379A44.99268 44.99268 0 01407.25626 384.17723z"/><path d="M343.6252,159.18842q-1.26664-1.18173-2.43833-2.46505a25.90822,25.90822,0,0,1-2.22547-2.6892l-.97074-1.48519a4.26651,4.26651,0,0,1-.71344-1.74576,5.19987,5.19987,0,0,1-.08258-.96332l.016-.86116c.00128-.559-.025-1.11607-.07029-1.66676a9.48615,9.48615,0,0,0-.72315-3.11879,3.4527,3.4527,0,0,0-.37427-.63613c-.14678-.21421-.34268-.493-.49683-.75017a9.61818,9.61818,0,0,1-.78771-1.66582l-.64175-1.59068c-.21789-.52754-.48478-1.02625-.71367-1.54548l-1.41565-3.09312-.02562-.056a.68086.68086,0,0,1-.06046-.28935l.00023-.00737.08573.34462a19.764,19.764,0,0,0-2.61412-4.07831,2.49313,2.49313,0,0,0-1.701-.98747.85318.85318,0,0,0-.68911.35005,1.81843,1.81843,0,0,0-.2262.96233,15.188,15.188,0,0,0,1.17566,4.74783l.90841,2.36119a11.05861,11.05861,0,0,1,.40444,1.23823,1.67184,1.67184,0,0,1-.27661,1.40109,2.10733,2.10733,0,0,1-2.6009.54046,6.13846,6.13846,0,0,1-2.03424-1.6712,26.62894,26.62894,0,0,1-2.90019-4.22129q-.63034-1.11069-1.2077-2.24915a3.87594,3.87594,0,0,0-.6028-.93367,2.91485,2.91485,0,0,0-.852-.60075,2.81877,2.81877,0,0,0-2.01564-.1148,2.51663,2.51663,0,0,0-1.47788,1.26186l-.05625.088a.09152.09152,0,0,0,.03871-.05234l-1.05133.31339a2.52287,2.52287,0,0,0-.69251-.29128.84279.84279,0,0,0-.53145.0104.64337.64337,0,0,0-.29766.3379c-.049.08988-.07906.21988-.124.32759l-.0807.39818a.7943.7943,0,0,1-1.19075.52052l-.00737-.00473a1.06667,1.06667,0,0,0-.47636-.14778.297.297,0,0,0-.25778.12275,2.56869,2.56869,0,0,0-.401,1.3153,16.10212,16.10212,0,0,0,.17883,3.598.8459.8459,0,0,1-.287.7552l-.06035.05105a2.65828,2.65828,0,0,0-.49731.6611,3.56585,3.56585,0,0,0-.32865.9025,5.18154,5.18154,0,0,0-.01964,2.03582,12.60957,12.60957,0,0,0,1.70512,4.106,22.69175,22.69175,0,0,0,2.865,3.64252,14.00858,14.00858,0,0,0,3.52475,2.88956,28.16938,28.16938,0,0,0,4.31187,1.81845,22.39472,22.39472,0,0,0,2.25061.61479l.57637.10795a3.742,3.742,0,0,1,.6835.18661,3.65488,3.65488,0,0,1,1.19121.73209,3.61164,3.61164,0,0,1,.81344,1.11285l.53613,1.07741,1.05917,2.16342,2.12441,4.33223a.08433.08433,0,0,1-.14655.08292q-1.31646-2.02682-2.54674-4.10685l-1.234-2.0795-.6104-1.04408a2.6239,2.6239,0,0,0-2.02618-1.34255c-.19485-.02392-.41145-.04088-.61566-.07287a17.39071,17.39071,0,0,1-2.43412-.51759,29.311,29.311,0,0,1-4.641-1.73986,15.23826,15.23826,0,0,1-4.0307-3.03575,24.42024,24.42024,0,0,1-3.15914-3.86919,13.535,13.535,0,0,1-1.96524-4.753,6.61712,6.61712,0,0,1,.06164-2.75254,5.32286,5.32286,0,0,1,.52993-1.34261,4.01721,4.01721,0,0,1,1.0125-1.20057l-.34724.80595a17.55772,17.55772,0,0,1-.09369-4.01041,3.896,3.896,0,0,1,.86923-2.216,1.89517,1.89517,0,0,1,1.44314-.59508,2.53967,2.53967,0,0,1,1.3146.44l-1.19788.51572.13334-.58192a4.65166,4.65166,0,0,1,.24607-.60274,2.1047,2.1047,0,0,1,1.11063-1.01952,2.299,2.299,0,0,1,1.43706-.02181,3.84793,3.84793,0,0,1,1.12525.53648l-1.051.31333a1.90314,1.90314,0,0,1,.14467-.26432l-.056.08766a3.87022,3.87022,0,0,1,2.34044-1.84062,3.92273,3.92273,0,0,1,2.89762.32087,4.03085,4.03085,0,0,1,1.14525.9225,4.9849,4.9849,0,0,1,.6994,1.22122q.49316,1.151,1.05566,2.26961a23.73351,23.73351,0,0,0,2.60792,4.23439,5.468,5.468,0,0,0,1.786,1.571,1.58594,1.58594,0,0,0,1.975-.349,1.118,1.118,0,0,0,.18491-.99191,10.86889,10.86889,0,0,0-.39824-1.15648c-.303-.77858-.64-1.55243-.969-2.33172a17.53041,17.53041,0,0,1-1.506-4.95169,2.71056,2.71056,0,0,1,.28046-1.479,1.87285,1.87285,0,0,1,1.399-.89876,2.51212,2.51212,0,0,1,1.54817.32917,5.49153,5.49153,0,0,1,1.13729.84432,17.6787,17.6787,0,0,1,3.05376,4.25129.66993.66993,0,0,1,.08538.3135l.00047.03152.00011.00737-.086-.345c.97929,2.11179,2.07693,4.20211,2.83715,6.383a8.14351,8.14351,0,0,0,.65649,1.46313c.13812.23877.273.43134.44362.69684a4.82574,4.82574,0,0,1,.46666.86689,10.75377,10.75377,0,0,1,.71753,3.59808,17.77233,17.77233,0,0,1-.014,1.78348l-.06234.863a4.092,4.092,0,0,0,.02339.75695,9.068,9.068,0,0,0,1.32185,2.92253,49.84,49.84,0,0,0,4.07141,5.51811.08441.08441,0,0,1-.123.115Z"/><path d="M314.60583 132.68177c.45707.94308.84911 1.88319 1.31027 2.7892.45836.90554.9373 1.79442 1.47168 2.6502.52128.86355 1.0946 1.69512 1.69775 2.51113.60479.81666 1.25578 1.59963 1.90279 2.42155a13.99584 13.99584 0 01-4.31772-4.4924A14.35758 14.35758 0 01314.60583 132.68177zM311.727 133.924c.3076 1.21244.50245 2.43225.87367 3.57475a16.29806 16.29806 0 001.4622 3.28153 16.46552 16.46552 0 002.14641 2.881c.84817.85846 1.73272 1.75617 2.54195 2.69528a34.80429 34.80429 0 01-2.99867-2.22283 11.88122 11.88122 0 01-3.78486-6.46834A15.85354 15.85354 0 01311.727 133.924zM309.47315 139.55805a23.66381 23.66381 0 011.145 2.44686 16.90964 16.90964 0 001.22256 2.29775 23.13114 23.13114 0 001.55168 2.11921 21.73961 21.73961 0 011.53272 2.23488 21.73074 21.73074 0 01-2.02558-1.80026 11.23786 11.23786 0 01-1.76969-2.10348 9.74359 9.74359 0 01-1.1284-2.52886A20.46927 20.46927 0 01309.47315 139.55805zM308.51234 207.25859a34.63015 34.63015 0 01-4.19783 4.86508c-1.51472 1.51927-3.08055 2.98575-4.66579 4.42964-3.19036 2.86517-6.48505 5.61016-9.79764 8.32527l-2.48546 2.02681a3.86683 3.86683 0 01-1.65519.89 2.67407 2.67407 0 01-2.0271-.33678 2.95864 2.95864 0 01-1.20876-1.62682 3.69772 3.69772 0 01-.16105-.96414 1.97029 1.97029 0 01.07368-.60326 2.78169 2.78169 0 01.1862-.47771 15.32868 15.32868 0 011.94886-2.76166c2.79844-3.33183 6.00436-6.17892 9.056-9.21742l-.17123.87782-2.67107-5.64512.395.37221-4.05281-1.649.9842-.87461a14.34819 14.34819 0 01.26538 5.79425 8.30914 8.30914 0 01-.39836 1.44448 3.65171 3.65171 0 01-.85414 1.43782 2.03375 2.03375 0 01-1.87015.57268 3.0041 3.0041 0 01-1.49507-.89472 11.28774 11.28774 0 01-2.40733-5.28777 25.88886 25.88886 0 01-.44468-2.78756 5.81164 5.81164 0 01.276-2.96885 8.28031 8.28031 0 014.13492-3.97983 23.96146 23.96146 0 015.27232-1.87641 54.32361 54.32361 0 0110.9712-1.42349 60.755 60.755 0 00-10.80593 2.03033 26.92339 26.92339 0 00-5.03491 2.02155 7.39326 7.39326 0 00-3.57691 3.59013 4.7204 4.7204 0 00-.13146 2.47131 24.79117 24.79117 0 00.50783 2.64786 16.533 16.533 0 00.84748 2.5123 6.88619 6.88619 0 001.327 2.10757 1.72939 1.72939 0 00.83039.51444.65359.65359 0 00.63742-.22918 4.66124 4.66124 0 00.8187-2.15067 13.53151 13.53151 0 00-.288-5.15993l-.34034-1.40542 1.32466.5307 4.0617 1.62717.26923.10789.126.26456 2.683 5.63945.23052.48444-.40174.39368c-3.03458 2.97312-6.23208 5.84-9.00023 9.02228a14.456 14.456 0 00-1.79647 2.43306 1.50953 1.50953 0 00-.11251.26544.42681.42681 0 00-.02807.18765 2.36654 2.36654 0 00.09064.6159 1.65041 1.65041 0 00.63976.91578 1.84621 1.84621 0 002.20313-.416l2.552-1.95161c3.3948-2.60043 6.74751-5.25 10.03448-7.9796 1.65074-1.35577 3.283-2.73481 4.86613-4.16807A40.52373 40.52373 0 00308.51234 207.25859z"/><polygon points="286.98 205.151 286.434 202.057 287.18 201.926 287.727 205.02 286.98 205.151"/><rect width="2.492" height=".758" x="291.414" y="206.345"/><rect width="3.734" height=".757" x="293.585" y="210.713" transform="rotate(-42.997 295.452 211.092)"/><polygon points="273.018 231.076 263.465 223.102 281.694 207.742 282.183 208.322 264.646 223.101 272.975 230.053 290.819 212.414 287.516 210.126 287.948 209.503 292.002 212.312 273.018 231.076"/><path d="M472.363,121.25426l-2.5581,34.72777-2.63809,34.59725-2.69774,34.51509-2.74686,34.46245c-.89157,11.49394-1.894,22.93981-2.85634,34.40731l-1.46068,17.19579-1.538,17.18047c-2.022,22.91629-4.19526,45.847-6.1198,68.82543l-.1938-.37847,11.44733,6.927-.24292-.04807c13.75022-2.03974,27.47881-4.22123,41.21932-6.32483l41.19406-6.4902-.52841.57134,4.72262-69.64788,4.9107-69.63408,5.13022-69.61806c1.70173-23.20665,3.57539-46.40066,5.35466-69.60163l.36386.78578-6.71254-4.94414.63484.15432L514.85445,115.108Zm-.16643-.15514,42.14527-6.95886,42.44375-6.91388.34421-.05608.2911.21047,6.756,4.88443.39871.28824-.03462.49783c-1.61834,23.21273-3.14218,46.43235-4.83806,69.63946l-5.06274,69.623-5.28215,69.607-5.4701,69.59309-.0393.49964-.48935.07193-41.25827,6.0688c-13.74367,2.08267-27.49915,4.08755-41.23312,6.23419l-.129.02012-.11427-.06819-11.48616-6.86236-.21462-.12831.02059-.2504c1.89787-23.01431,3.54685-46.07616,5.34718-69.15251l1.32863-17.314,1.40607-17.29866c.94887-11.52879,1.85763-23.07927,2.87715-34.58163l2.98662-34.52649,3.03575-34.47386,3.0954-34.39169Z"/><polygon points="461.19 404.056 460.434 403.998 481.753 126.677 482.044 126.628 563.586 112.612 563.715 113.359 482.464 127.325 461.19 404.056"/><rect width=".759" height="11.424" x="476.814" y="118.376" transform="rotate(-59.348 477.194 124.089)"/><path d="M468.29871,479.83815c-25.2151-20.62943-17.75134-77.78888-17.42105-80.21224l6.76295.91975c-.07486.55578-7.28412,55.79433,14.98084,74.00975Z"/><path d="M424.4331 469.10145l-3.0727-6.09489c25.68386-12.95327 30.62882-68.43976 30.6756-68.99835l6.80225.56794C458.63428 397.01355 453.52183 454.43124 424.4331 469.10145zM561.48948 468.69538c-25.21416-20.62943-17.7504-77.78889-17.42011-80.21224l6.76295.91975c-.07485.55578-7.28411 55.79433 14.97991 74.00975z"/><path d="M517.62482,457.95868l-3.07271-6.09489c25.7138-12.96824,30.62789-68.43883,30.67467-68.99742l6.80225.567C551.82505,385.87077,546.71354,443.28847,517.62482,457.95868Z"/><rect width="154.374" height="6.066" x="476.769" y="317.096" transform="rotate(-86.038 553.956 320.13)"/><rect width="154.374" height="6.066" x="383.626" y="321.479" transform="rotate(-86.038 460.813 324.512)"/><rect width="92.957" height="6.068" x="465.778" y="248.85" transform="rotate(-.937 512.26 251.885)"/><path fill="#020202" d="M358.483,421.687a9.87677,9.87677,0,0,1-.8419,2.46478,6.1525,6.1525,0,0,1-1.34237,1.83526,4.30057,4.30057,0,0,1-.35642.29587,3.92488,3.92488,0,0,1-1.28165.64434,3.382,3.382,0,0,1-.71284.144l-.63712.04555a11.92381,11.92381,0,0,0-2.29036.50066,18.01946,18.01946,0,0,1-5.03566.42474c-1.66843-.04554-3.31427-.21255-4.94474-.41733-3.27632-.417-6.51467-.9554-9.76821-1.47124q-2.43433-.39828-4.85365-.83431c-1.62288-.26514-3.246-.55324-4.86124-.84172-6.35544-1.10722-12.65774-2.43441-18.94467-3.8527q-.19358-.045-.38679-.09072l-.02277-.00778a.65012.65012,0,0,1-.50825-.65211,1.763,1.763,0,0,1,.06832-.51585,3.11288,3.11288,0,0,1,.12905-.40178,5.05559,5.05559,0,0,1,.37142-.69766,4.56286,4.56286,0,0,1,.44752-.59917,5.47467,5.47467,0,0,1,.50825-.52324,10.52,10.52,0,0,1,2.28259-1.61566,25.66709,25.66709,0,0,1,5.02825-1.95672c.86449-.22737,1.72916-.43956,2.59365-.62175.86467-.16664,1.74434-.35624,2.59383-.50029.0985-.01555.1896-.03036.2881-.05332,1.62307-.2807,3.24595-.55362,4.86124-.87208,2.35869-.46252,4.71719-.96318,7.01515-1.63047,1.0239-.29588,2.025-.62212,3.01858-.99355a16.092,16.092,0,0,0,4.45926-2.49514c1.03132-.584,1.86562-2.93508,2.52551-5.93829.4853-2.19926.87968-4.74,1.19814-7.197.62953-4.8992.96318-9.46512,1.09964-10.2461a3.33344,3.33344,0,0,1,.61434,0c0,.11369-.7508,5.30876-1.47124,10.2535-.40956,2.79843-.80394,5.52132-1.0465,7.18216-.14423,1.01613-.23514,1.63788-.23514,1.64565a7.36845,7.36845,0,0,1-2.32073,4.70182,15.59682,15.59682,0,0,1-4.49723,2.86694,29.66665,29.66665,0,0,1-2.88193,1.11463,71.11539,71.11539,0,0,1-7.21993,1.9645q-2.571.5799-5.14952,1.08426c-.33365.06073-.6673.12924-.99354.19738-.51566.10591-1.02372.22-1.54716.32587-.84171.19737-1.66843.41734-2.495.64471a24.31544,24.31544,0,0,0-4.72478,1.82785,9.66387,9.66387,0,0,0-2.00985,1.365,3.0255,3.0255,0,0,0-.40957.40956,2.59733,2.59733,0,0,0-.34124.43252,1.75617,1.75617,0,0,0-.18959.31847q6.35924,1.547,12.73346,3.04876c1.90358.45474,3.79956.90244,5.70314,1.34978,1.60029.3566,3.208.71284,4.80828,1.05427,1.61529.31846,3.22318.62175,4.83847.91022.97836.174,1.96431.341,2.95026.4851,1.145.17442,2.29777.33365,3.45054.46289,1.115.12887,2.22963.23478,3.35223.31069,1.63047.12146,3.26854.1896,4.884.15183a18.14019,18.14019,0,0,0,4.73237-.62953c.1896-.053.3792-.11368.57639-.17442a.02747.02747,0,0,1,.02277-.00777,8.55649,8.55649,0,0,1,1.90358-.42475l.33365-.02259.25792-.02258a2.69971,2.69971,0,0,0,.49288-.09888,2.8698,2.8698,0,0,0,.89485-.46251,6.70939,6.70939,0,0,0,2.11595-3.86011,14.385,14.385,0,0,0,.25792-4.70219,13.21982,13.21982,0,0,0-.4627-2.30555c-.05314-.1896-.12887-.37142-.1896-.55361-.07572-.197-.15164-.417-.21237-.62175a10.94541,10.94541,0,0,1-.26533-1.25905,26.24464,26.24464,0,0,1-.19719-4.9903c.03037-.56879.09851-3.48091.1896-7.11364.04555-1.9719.09851-4.16339.15924-6.30971.13646-5.3469.29569-10.42051.40956-11.1789-.03037.76617-.08351,5.832-.12887,11.18631-.01518,1.57011-.023,3.17022-.038,4.687l.053-4.687.07591-7.40175c-.01518,2.10817-.038,4.81588-.06832,7.40175-.02259,2.41182-.04555,4.70219-.06814,6.28711,0,.19738,0,.387-.00759.56139.00759-.18219.00759-.37179,0-.56139l-.02277,2.14632c.00759,0,.01518-.43215.02277-1.17536-.01518,3.185-.02277,5.64981,0,6.16565a30.03792,30.03792,0,0,0,.46252,4.83106,9.18,9.18,0,0,0,.31106,1.12981,4.603,4.603,0,0,0,.20459.53843c.08351.19738.1746.39438.24274.59916a11.85409,11.85409,0,0,1,.60675,2.49515A14.95959,14.95959,0,0,1,358.483,421.687Z"/><path fill="#020202" d="M350.84516 410.44356a3.76734 3.76734 0 01.18813 1.76182 3.93875 3.93875 0 01-.62191 1.71532 3.49106 3.49106 0 01-1.37122 1.21688 3.753 3.753 0 01-1.725.416 10.66255 10.66255 0 001.43664-.87719 4.341 4.341 0 001.07927-1.14117A7.11536 7.11536 0 00350.84516 410.44356zM355.71919 425.54638s3.7525 1.87327.65728 8.72676c0 0-.026 2.696-9.41918.973l-47.62816-6.10673s-2.5156-8.24777 5.00324-8.82743l11.81131 2.65512s-2.05288-7.49978-.92234-9.71524a11.11 11.11 0 0113.21254-3.15327s-1.97032 11.35213 6.32374 16.39414C334.75762 426.49273 347.7854 427.51786 355.71919 425.54638zM415.28067 408.52223c-.03479.00808-1.61251-19.59428-1.60877-19.55963.17572 1.63137 1.88136 22.90176 1.94174 24.53469a29.90552 29.90552 0 01-.12253 4.851 9.35011 9.35011 0 01-.2223 1.15538c-.0466.19027-.10734.36138-.169.54843-.066.205-.14318.40848-.19638.61669a11.6802 11.6802 0 00-.42782 2.5278 14.77323 14.77323 0 00.52615 5.07139 10.33314 10.33314 0 001.01516 2.40356 5.76222 5.76222 0 001.84871 2.00147 3.96716 3.96716 0 001.32856.55526 3.81976 3.81976 0 00.72.09272l.63955-.004a11.76053 11.76053 0 012.319.33414 18.15468 18.15468 0 005.053.0677c1.65664-.16849 3.2863-.45028 4.9038-.7723 3.23337-.65168 6.43054-1.4153 9.632-2.165q2.39974-.56661 4.78837-1.17842c1.5998-.37959 3.19253-.78606 4.7873-1.18666 6.38261-1.59044 12.70526-3.40559 18.99561-5.31517l.02529-.00768a.65666.65666 0 00.463-.68659 1.98118 1.98118 0 00-.10836-.51023 3.05516 3.05516 0 00-.16024-.39109 3.90057 3.90057 0 00-.4167-.66808 4.21509 4.21509 0 00-.49351-.56691 4.85361 4.85361 0 00-.54111-.48929 10.49243 10.49243 0 00-2.39552-1.44444 25.28721 25.28721 0 00-5.15375-1.59381c-.87462-.16316-1.75078-.31635-2.62829-.4374-.875-.10224-1.76468-.228-2.62708-.31-1.73444-.18207-3.46936-.34608-5.19662-.55536A63.05256 63.05256 0 01441.6 413.53545a15.88965 15.88965 0 01-4.621-2.16833c-3.41844-1.6072-6.071-21.2839-6.48505-22.97719a2.82093 2.82093 0 00-.60929.04831c-.035.00864 4.10007 18.79418 4.10492 18.82929a7.359 7.359 0 002.65318 4.52575 15.57424 15.57424 0 004.68853 2.53927 54.62427 54.62427 0 0010.29934 2.353c1.73577.25957 3.47152.50441 5.20992.70974.87588.09631 1.71474.23063 2.5735.34364.85062.13092 1.69492.29244 2.53434.46207a24.432 24.432 0 014.84394 1.48592 9.7602 9.7602 0 012.10089 1.216 3.60056 3.60056 0 01.43762.37932 2.90815 2.90815 0 01.37465.41177 2.51835 2.51835 0 01.28645.43391 1.71561 1.71561 0 01.09333.21218c.02528.054.04416.16574.04372.12516l.48814-.69407q-9.375 3.01172-18.77949 5.92842c-1.5725.46894-3.14391.94411-4.72266 1.3923-1.58107.43968-3.16918.85266-4.75913 1.25737a92.68026 92.68026 0 01-9.63578 1.95349c-1.61905.233-3.24463.41979-4.86362.5a17.9467 17.9467 0 01-4.76279-.29439 12.62487 12.62487 0 00-2.5379-.42576l-.33758.004-.25449-.00323a2.57326 2.57326 0 01-.49828-.06724 2.72457 2.72457 0 01-.92775-.39638 6.70082 6.70082 0 01-2.38531-3.69562 14.48161 14.48161 0 01-.597-4.67031 12.72119 12.72119 0 01.3016-2.33578c.03843-.1925.0991-.37647.14869-.56531.05714-.206.12112-.4262.16137-.63771a10.22642 10.22642 0 00.17843-1.27339 25.827 25.827 0 00-.15944-4.98911c-.20065-1.64105-2.14676-22.88192-2.514-24.49z"/><path fill="#020202" d="M421.81873 416.51043a3.76716 3.76716 0 00-.06175 1.77076 3.93857 3.93857 0 00.74289 1.6665 3.4911 3.4911 0 001.45467 1.11578 3.7529 3.7529 0 001.75034.29169 10.66081 10.66081 0 01-1.49565-.77229 4.34075 4.34075 0 01-1.15805-1.06113A7.11535 7.11535 0 01421.81873 416.51043zM418.03635 431.92292s-3.60906 2.13662-.032 8.75141c0 0 .21858 2.68722 9.46462.29747l47.07006-9.49443s1.91982-8.40643-5.62122-8.44735l-11.5914 3.49232s1.51174-7.6273.22578-9.75631a11.11 11.11 0 00-13.40409-2.20111s2.77646 11.18233-5.13612 16.8041C439.012 431.369 426.09073 433.32244 418.03635 431.92292zM442.40888 115.62592c2.20009 23.41886 3.63691 46.85661 4.85175 70.2998 1.2601 23.44208 2.09693 46.89457 2.7602 70.35138q.96963 35.18575 1.18723 70.39009c.04983 23.47191-.00421 46.94632-.68163 70.43618L450.488 398.437l-1.19916-.125-9.5842-.99952c-3.19294-.37146-6.38763-.706-9.579-1.10888 3.2154-.09333 6.4274-.11812 9.64127-.18l9.636-.07053-1.23729 1.20841c-1.83366-23.42787-3.04382-46.87118-4.15024-70.31706q-1.54365-35.17163-2.28125-70.36313c-.493-23.461-.81227-46.92626-.7083-70.402C441.08446 162.60481 441.365 139.12472 442.40888 115.62592zM346.36937 123.98843a17.82749 17.82749 0 005.9322-3.14457 15.2 15.2 0 004.018-5.17736 21.428 21.428 0 001.85015-6.32079 27.6593 27.6593 0 00.12433-6.5871l.68385.81466a6.61677 6.61677 0 01-2.38675-1.47085 10.20367 10.20367 0 01-1.69144-2.03413 10.81036 10.81036 0 01-1.595-4.91666 9.11062 9.11062 0 01.13157-2.62142 4.14421 4.14421 0 011.42174-2.47079 4.0852 4.0852 0 012.6747-.7801 7.6384 7.6384 0 012.527.54391l-.06187-.01913a8.11526 8.11526 0 005.825-.6132 16.145 16.145 0 004.83491-3.73837 31.16961 31.16961 0 003.67047-4.97765 42.845 42.845 0 002.82546-5.4787.78825.78825 0 011.35694-.1617l.03158.04293a34.61832 34.61832 0 013.64943 6.363c.509 1.10127.97963 2.22055 1.42571 3.35434a29.15543 29.15543 0 011.19963 3.57317 38.75673 38.75673 0 01.93683 7.30709 38.09922 38.09922 0 01-.44935 7.37943 12.79656 12.79656 0 01-1.18092 3.7527 9.3311 9.3311 0 01-.51754.83952c-.08444.11778-.29707.49035-.45648.75139a11.263 11.263 0 01-1.19858 1.57232 12.2058 12.2058 0 01-3.03376 2.426 13.05537 13.05537 0 01-1.745.83432c-.29918.12111-.60748.20789-.94747.30783-.31473.07468-.605.16263-.92876.21555a12.596 12.596 0 01-12.8776-5.802.11266.11266 0 01.183-.13041 12.87 12.87 0 005.66986 3.95217 11.20858 11.20858 0 006.65383.324c.26479-.05813.54362-.16193.80665-.24111.22877-.08491.49345-.17351.74268-.29385a11.22667 11.22667 0 001.4449-.80514 11.04457 11.04457 0 002.44815-2.16547 9.12142 9.12142 0 00.91695-1.3215c.14034-.25672.21321-.41046.44116-.80291.16982-.27778.2835-.47532.39953-.70274a10.65775 10.65775 0 00.87121-3.097 45.57645 45.57645 0 00.36549-6.93844 41.52042 41.52042 0 00-.72139-6.93763 28.4171 28.4171 0 00-1.00069-3.2558c-.39508-1.10694-.82946-2.20424-1.28045-3.29528a40.613 40.613 0 00-3.1389-6.26617l1.3884-.11877a47.95157 47.95157 0 01-3.34183 5.43706 39.84979 39.84979 0 01-4.05947 4.88479 19.70277 19.70277 0 01-5.07771 3.84632 11.183 11.183 0 01-3.07891 1.01461 9.42254 9.42254 0 01-3.28755-.05708l-.06211-.01924c-1.36618-.40572-3.081-.45332-3.941.37713-.86712.80789-.90361 2.37389-.67028 3.8134a10.1867 10.1867 0 001.49518 4.04 8.19382 8.19382 0 001.36981 1.61788 4.93612 4.93612 0 001.6146 1.07677l.0476.01573a.93455.93455 0 01.63648.79911 26.40428 26.40428 0 01-.29988 7.12633 20.99442 20.99442 0 01-2.31646 6.72629 15.35764 15.35764 0 01-4.74087 5.278 16.30946 16.30946 0 01-6.47406 2.57371.11269.11269 0 01-.13053-.09117A.11473.11473 0 01346.36937 123.98843z"/><path fill="#020202" d="M359.27542 102.62684c1.31466 7.888-14.56237-6.16879-10.71952-17.79846s4.95525-13.04545 18.10184-14.46124S377.883 75.32233 377.883 75.32233s-7.44428 16.43531-18.00077 14.96694c0 0-6.96916-3.22875-5.45933 6.07874 0 0 1.39948 4.20443 3.126 5.23163zM373.18608 117.604a.56143.56143 0 01-.37707-.97777c.48561-.43976.76163-.73636.771-.74572a.56179.56179 0 01.82431.7635s-.30315.32748-.84116.815A.55968.55968 0 01373.18608 117.604zM364.19814 121.633h-.03182a7.52349 7.52349 0 01-2.13049-.4276.56141.56141 0 11.378-1.05729 6.41061 6.41061 0 001.81425.3621.56181.56181 0 01-.02994 1.12279zm2.00792-.15345a.56213.56213 0 01-.10853-1.11343 10.20717 10.20717 0 001.8264-.55579.56156.56156 0 11.42292 1.04046 11.34273 11.34273 0 01-2.03038.61753A.55234.55234 0 01366.20606 121.47952zm-5.76273-1.178a.555.555 0 01-.32373-.10386 9.93465 9.93465 0 01-1.5925-1.42408.56167.56167 0 01.83087-.756 8.83588 8.83588 0 001.411 1.26314.56223.56223 0 01-.32561 1.02081zm9.50163-.30316a.5622.5622 0 01-.28351-1.04794 17.53052 17.53052 0 001.63179-1.07975.56178.56178 0 01.66994.902 18.597 18.597 0 01-1.73659 1.149A.56229.56229 0 01369.945 119.99837zM357.70091 117.34671a.56381.56381 0 01-.47063-.25356q-.30737-.46737-.60444-.9918a.56147.56147 0 11.97683-.55391q.2793.49122.567.92817a.56242.56242 0 01-.46877.8711zM379.83584 93.33277a1.68647 1.68647 0 000-3.37092 1.68647 1.68647 0 000 3.37092z"/><path fill="#020202" d="M370.63323 93.535a1.68647 1.68647 0 000-3.37092 1.68647 1.68647 0 000 3.37092zM383.57752 88.0067c-.60046.09714-1.08677.13567-1.56536.17164-.47262.0293-.91753.03737-1.36232.045-.444.00818-.88934-.01421-1.3615-.02959a10.64707 10.64707 0 01-1.57624-.18708 3.45779 3.45779 0 012.932-1.46828 3.87632 3.87632 0 011.63846.34719A2.794 2.794 0 01383.57752 88.0067zM371.94785 88.0067a8.66026 8.66026 0 01-1.34115.28023 10.11553 10.11553 0 01-1.13963.07094 10.296 10.296 0 01-1.13074-.07024 7.81817 7.81817 0 01-1.34373-.28093A2.75761 2.75761 0 01369.473 86.673a3.15165 3.15165 0 011.38712.31777A2.37275 2.37275 0 01371.94785 88.0067zM379.02682 95.49017a1.948 1.948 0 01-.62361 1.42916 2.91473 2.91473 0 01-1.41577.762 3.62859 3.62859 0 01-1.55332-.01135 3.345 3.345 0 01-1.36255-.663 11.03448 11.03448 0 011.41881-.21205c.43789-.07877.861-.09888 1.25063-.20923A5.05435 5.05435 0 00379.02682 95.49017z"/><path fill="#b21919" d="M375.18616,87.25545a1.68647,1.68647,0,0,0,0-3.37092,1.68647,1.68647,0,0,0,0,3.37092Z"/><path fill="#020202" d="M377.64949 75.81138c2.41828.6427 6.666 16.202 6.666 16.202S387.93334 74.88458 377.64949 75.81138zM371.94785 102.96164a4.14847 4.14847 0 003.68732 1.04128c.31895-.01649.64631-.13784.979-.18339.32936-.10591.67005-.17614 1.0173-.27532a20.01512 20.01512 0 012.2043-.58257 6.05787 6.05787 0 01-1.70524 1.65583 7.15722 7.15722 0 01-1.07133.57017 5.84775 5.84775 0 01-1.21531.31719 3.70593 3.70593 0 01-2.55575-.466A2.70712 2.70712 0 01371.94785 102.96164zM352.93232 101.00255s-1.42821 20.96591-6.53654 23.09507c0 0 6.94055-2.542 9.13738-4.98657s4.45151-14.01138 3.74226-16.48421zM391.011 118.75593c-7.91763-4.99935-6.45535-20.97956-6.45535-20.97956s.425 12.75054-9.36945 14.73091l-1.19424 3.755z"/><path d="M303.04552,188.50025l-4.34041,2.68054.03661-.196a94.87046,94.87046,0,0,1,7.7041,11.07512,23.34874,23.34874,0,0,1,2.69774,6.25669,5.39522,5.39522,0,0,1,.10737,1.79168,2.44613,2.44613,0,0,1-.93765,1.68021,3.31437,3.31437,0,0,1-1.79249.5466,9.2263,9.2263,0,0,1-1.76594-.12345l.46549-.47374a20.85457,20.85457,0,0,0,1.10268,3.469,7.8923,7.8923,0,0,0,1.91693,2.90446,2.12438,2.12438,0,0,0,1.407.50883,7.18364,7.18364,0,0,0,1.64887-.44608,35.87813,35.87813,0,0,0,3.33632-1.532c2.19565-1.12378,4.3465-2.35645,6.479-3.61691,2.12746-1.2684,4.24836-2.56,6.3391-3.88176l1.03881-.65677-.15438,1.22-3.38686,26.76525q-1.6691,13.38579-3.45936,26.75589l-.18936-.54706c1.68279,1.51524,3.33177,3.06375,5.042,4.5535,1.72185,1.47928,3.48954,2.90575,5.26718,4.31895q5.34554,4.22476,11.04476,7.97714a109.00792,109.00792,0,0,0,24.28212,12.21323c1.07192.37637,2.16664.67385,3.26347.9653l3.28873.88257a55.24047,55.24047,0,0,0,6.69932,1.18068,46.40053,46.40053,0,0,0,13.55128-.2997,38.576,38.576,0,0,0,12.73327-4.56468,46.74981,46.74981,0,0,0,10.63951-8.38877l-.074.22719-7.57229-55.29393L405.697,198.8028l-3.708-27.65723-.04047-.30163.19169-.265a70.02378,70.02378,0,0,0,7.50563-13.289,45.29776,45.29776,0,0,0,3.80018-14.65939,24.05846,24.05846,0,0,0-3.28533-14.39285,13.19406,13.19406,0,0,0-1.044-1.551l-.55193-.75642c-.19157-.24631-.41028-.4714-.61391-.7083l-.62081-.70285-.31-.35146a3.12347,3.12347,0,0,0-.281-.23737,7.92631,7.92631,0,0,0-1.534-.83893,46.25246,46.25246,0,0,0-7.27417-2.17664l.70934-.20362-.03158.03a.76578.76578,0,0,1-.93437.07333.76575.76575,0,0,1-.095-.07333l-.03146-.03.365.203c-7.885-1.75816-15.94785-2.98838-23.99405-4.01556l.70817-.5314c-.70163,3.92439-1.47822,7.84148-2.54335,11.70534a41.14756,41.14756,0,0,1-1.9691,5.71121,12.84971,12.84971,0,0,1-1.54688,2.69154,4.76636,4.76636,0,0,1-1.21683,1.13811,2.40656,2.40656,0,0,1-1.7974.34661,4.63614,4.63614,0,0,1-2.55259-2.06886,17.98123,17.98123,0,0,1-1.46946-2.68991,46.62667,46.62667,0,0,1-2.04769-5.66062,111.48407,111.48407,0,0,1-2.74289-11.64955l.51766.28386c-2.47751,1.01934-4.92754,2.135-7.35651,3.27942-2.42792,1.1497-4.82719,2.362-7.16739,3.67849a49.50853,49.50853,0,0,0-6.71406,4.40713,9.77352,9.77352,0,0,0-3.30779,7.02488l.00023-.00579-.00011.00749h-.1517v-.00749l.00024-.00626a10.01154,10.01154,0,0,1,3.248-7.25235,49.80522,49.80522,0,0,1,6.68178-4.58918,128.82284,128.82284,0,0,1,14.47875-7.238l.42678-.18286.091.46683a110.72131,110.72131,0,0,0,2.84792,11.52242,45.76418,45.76418,0,0,0,2.0657,5.5225,17.06616,17.06616,0,0,0,1.411,2.52154,3.76336,3.76336,0,0,0,1.9471,1.634c.70163.1714,1.42689-.40835,1.97612-1.13314a11.85591,11.85591,0,0,0,1.38325-2.48271,40.11253,40.11253,0,0,0,1.8498-5.57262c1.00619-3.81322,1.7353-7.71171,2.38886-11.61844l.10058-.60069.60783.06912q6.08765.69228,12.1313,1.60939c4.03468.61754,8.057,1.29537,12.06264,2.20161l.36538.20316-.02457-.02334a.75656.75656,0,0,0-.50654-.19409.74927.74927,0,0,0-.41531.12374.73076.73076,0,0,0-.09123.07035l-.02468.02334.7097-.20374a47.48294,47.48294,0,0,1,7.54691,2.25125,9.31188,9.31188,0,0,1,1.85144,1.02069,4.54932,4.54932,0,0,1,.455.38982l.33193.373.66256.74648c.21731.25187.449.49169.654.75379l.59169.80554a14.485,14.485,0,0,1,1.11881,1.65565,23.66122,23.66122,0,0,1,2.97844,7.387,28.61873,28.61873,0,0,1,.562,7.91738,46.86442,46.86442,0,0,1-3.89784,15.19377,71.41878,71.41878,0,0,1-7.76656,13.58741l.15111-.56625,3.57258,27.67506,3.51317,27.6829,6.98879,55.37077.01685.13362-.091.09386a47.28359,47.28359,0,0,1-10.79716,8.44018,41.86992,41.86992,0,0,1-6.24857,2.857,44.18683,44.18683,0,0,1-6.64587,1.74073,46.91244,46.91244,0,0,1-13.69572.37976,55.82945,55.82945,0,0,1-6.76775-1.15366l-3.32253-.86876c-1.11086-.27877-2.2202-.564-3.30627-.92812A109.58738,109.58738,0,0,1,342.08955,280.403a147.07348,147.07348,0,0,1-21.70076-16.79439l-.231-.21795.04152-.32947q1.68945-13.38315,3.45715-26.75619l3.52966-26.74683.88431.56321c-2.11623,1.32326-4.24532,2.60821-6.40681,3.84989-2.16149,1.23963-4.34053,2.45131-6.58366,3.56288a36.73618,36.73618,0,0,1-3.45539,1.53056,7.733,7.733,0,0,1-1.94781.47994,3.05132,3.05132,0,0,1-2.00792-.73689,8.6706,8.6706,0,0,1-2.13167-3.272,21.61732,21.61732,0,0,1-1.10431-3.64047l-.12035-.56842.586.0945a4.2805,4.2805,0,0,0,2.96873-.24713,1.69546,1.69546,0,0,0,.65437-1.17191,4.88594,4.88594,0,0,0-.076-1.55314,22.83627,22.83627,0,0,0-2.48991-6.11483,94.48488,94.48488,0,0,0-7.42106-11.18534l-.09146-.121.12806-.07527,4.3962-2.58265Z"/><polygon points="327.374 208.979 348.215 197.539 328.146 210.285 327.374 208.979"/></svg>