<?xml version="1.0" encoding="iso-8859-1"?>
<!-- Generator: Adobe Illustrator 16.0.0, SVG Export Plug-In . SVG Version: 6.00 Build 0)  -->
<!DOCTYPE svg PUBLIC "-//W3C//DTD SVG 1.1//EN" "http://www.w3.org/Graphics/SVG/1.1/DTD/svg11.dtd">
<svg version="1.1" id="Capa_1" xmlns="http://www.w3.org/2000/svg" xmlns:xlink="http://www.w3.org/1999/xlink" x="0px" y="0px"
	 width="185.733px" height="185.734px" viewBox="0 0 185.733 185.734" style="enable-background:new 0 0 185.733 185.734;"
	 xml:space="preserve">
<g>
	<g>
		<path d="M49.354,80.6h87.022c1.934,0,3.504-1.57,3.504-3.504V19.275c0-1.935-1.57-3.504-3.504-3.504h-32.948L95.95,1.848
			c-0.586-1.093-1.703-1.795-2.943-1.843c-1.252-0.067-2.411,0.553-3.085,1.593l-9.184,14.173H49.354
			c-1.936,0-3.504,1.569-3.504,3.504v57.821C45.85,79.03,47.418,80.6,49.354,80.6z M92.583,10.388l2.89,5.387h-6.381L92.583,10.388z
			 M52.858,22.779h80.014v50.812H52.858V22.779z"/>
		<path d="M127.618,23.95H58.114c-1.935,0-3.504,1.569-3.504,3.504V68.92c0,1.934,1.569,3.504,3.504,3.504h69.501
			c1.934,0,3.504-1.571,3.504-3.504V27.454C131.123,25.516,129.552,23.95,127.618,23.95z M124.114,65.416H61.619V30.958h62.492
			v34.458H124.114z"/>
		<path d="M128.2,112.137c-1.934,0-3.504,1.57-3.504,3.504c0,18.035-14.671,32.709-32.706,32.709
			c-18.033,0-32.705-14.674-32.705-32.709c0-1.934-1.571-3.504-3.504-3.504c-1.251,0-2.303,0.694-2.919,1.684v-4.257
			c2.753-1.314,4.671-4.106,4.671-7.357c0-4.511-3.67-8.174-8.175-8.174c-4.507,0-8.176,3.67-8.176,8.174
			c0,3.251,1.92,6.043,4.671,7.357v72.659c0,1.937,1.569,3.504,3.504,3.504c1.934,0,3.504-1.567,3.504-3.504v-60.056
			c3.13,18.798,19.458,33.191,39.133,33.191c21.898,0,39.714-17.815,39.714-39.718C131.705,113.708,130.134,112.137,128.2,112.137z"
			/>
		<path d="M40.593,112.137c-1.936,0-3.504,1.57-3.504,3.504c0,18.035-14.673,32.709-32.706,32.709c-1.936,0-3.504,1.567-3.504,3.505
			c0,1.93,1.569,3.504,3.504,3.504c21.898,0,39.714-17.815,39.714-39.718C44.097,113.708,42.526,112.137,40.593,112.137z"/>
		<path d="M144.555,102.212c0-4.51-3.668-8.177-8.175-8.177c-4.508,0-8.176,3.667-8.176,8.177c0,3.245,1.92,6.037,4.671,7.358
			v72.659c0,1.93,1.571,3.504,3.505,3.504c1.933,0,3.504-1.574,3.504-3.504v-72.666C142.632,108.25,144.555,105.458,144.555,102.212
			z"/>
		<path d="M181.35,148.35c-18.034,0-32.705-14.674-32.705-32.709c0-1.934-1.571-3.504-3.505-3.504s-3.504,1.57-3.504,3.504
			c0,21.902,17.815,39.718,39.714,39.718c1.934,0,3.505-1.574,3.505-3.504C184.854,149.917,183.283,148.35,181.35,148.35z"/>
	</g>
</g>
<g>
</g>
<g>
</g>
<g>
</g>
<g>
</g>
<g>
</g>
<g>
</g>
<g>
</g>
<g>
</g>
<g>
</g>
<g>
</g>
<g>
</g>
<g>
</g>
<g>
</g>
<g>
</g>
<g>
</g>
</svg>
