<svg id="Capa_1" enable-background="new 0 0 512 512" height="512" viewBox="0 0 512 512" width="512" xmlns="http://www.w3.org/2000/svg"><g><path d="m344.935 409.303-48.59-14.798v-15.525c19.769-13.114 32.835-35.559 32.835-61.007v-49.252c0-31.293-25.459-56.752-56.752-56.752h-32.836c-31.293 0-56.752 25.459-56.752 56.752v49.252c0 25.448 13.066 47.893 32.834 61.007v15.525l-48.59 14.798c-31.531 9.603-38.149 27.058-38.149 40.01v62.687h104.574v-15h-89.574v-47.688c0-11.628 9.002-20.021 27.52-25.66l21.063-6.415 29.162 54.435 33.898-28.601.431.431.431-.431 33.898 28.601 29.162-54.435 21.063 6.415c18.518 5.641 27.52 14.034 27.52 25.66v47.688h-89.574v15h104.574v-62.688c.001-12.951-6.617-30.405-38.148-40.009zm-105.343-182.334h32.836c23.022 0 41.752 18.729 41.752 41.752v8.917h-116.34v-8.917c.001-23.023 18.73-41.752 41.752-41.752zm-41.751 91.004v-25.335h116.34v25.335c0 32.075-26.096 58.17-58.171 58.17s-58.169-26.095-58.169-58.17zm58.168 73.17c8.903 0 17.437-1.603 25.336-4.527v10.338l-25.336 25.336-25.335-25.336v-10.338c7.899 2.924 16.433 4.527 25.335 4.527zm-29.85 57.125-19.01-35.486 13.905-4.235 23.881 23.881zm59.701 0-18.775-15.84 23.882-23.881 13.904 4.235z"/><path d="m248.509 497h15v15h-15z"/><path d="m498.071 288.218c-14.131-15.886-33.489-16.837-48.331-14.34.817-12.322-3.321-24.824-11.871-34.613-9.286-10.631-21.818-15.455-33.518-12.897l-3.566.778-1.587 3.287c-7.569 15.67-5.91 32.555 3.13 44.682-7.218 2.225-14.244 6.288-20.306 13.104-15.759 17.719-18.434 48.654-6.504 75.231 12.046 26.834 36.168 42.854 64.528 42.854s52.482-16.021 64.528-42.854c11.931-26.578 9.256-57.513-6.503-75.232zm-86.904-47.509c5.284.204 10.832 3.188 15.404 8.424 4.894 5.603 9.315 15.126 8.028 25.574-3.818-.845-8.05-1.511-12.496-1.763-12.443-7.013-14.861-20.7-10.936-32.235zm79.723 116.598c-9.698 21.605-28.23 33.997-50.844 33.997s-41.146-12.392-50.844-33.997c-9.437-21.022-7.743-45.887 4.027-59.12 6.159-6.925 14.699-10.422 25.183-10.422 5.876 0 12.362 1.099 19.382 3.309l2.252.71 2.252-.71c19.543-6.152 34.952-3.692 44.564 7.113 11.771 13.233 13.465 38.097 4.028 59.12z"/><path d="m142.509 338.805v-22.501c0-12.406-10.094-22.5-22.5-22.5h-120v75c0 20.678 16.822 37.5 37.5 37.5h37.5c18.331 0 33.633-13.223 36.869-30.631 17.409-3.236 30.631-18.537 30.631-36.868zm-45 29.999c0 12.406-10.094 22.5-22.5 22.5h-37.5c-12.406 0-22.5-10.094-22.5-22.5v-60h82.5zm30-29.999c0 9.777-6.27 18.118-15 21.214v-51.215h7.5c4.136 0 7.5 3.364 7.5 7.5z"/><path d="m48.759 248.805h15v30h-15z"/><path d="m78.759 248.805h15v30h-15z"/><path d="m18.76 248.805h15v30h-15z"/><path d="m85.097 180h75c12.406 0 22.5-10.094 22.5-22.5v-135c0-12.406-10.094-22.5-22.5-22.5h-75c-12.406 0-22.5 10.094-22.5 22.5v22.499h15v-22.499c0-4.136 3.364-7.5 7.5-7.5h75c4.136 0 7.5 3.364 7.5 7.5v135c0 4.136-3.364 7.5-7.5 7.5h-75c-4.136 0-7.5-3.364-7.5-7.5v-97.501h-15v97.501c0 12.406 10.094 22.5 22.5 22.5z"/><path d="m115.097 135.001h15v15h-15z"/><path d="m107.597 30h30v15h-30z"/><path d="m261.922 131.25h7.5v15h45v-33.75h60.001v33.75h44.999v-15h7.5c12.406 0 22.5-10.094 22.5-22.5v-37.5c0-12.406-10.094-22.5-22.5-22.5h-7.5v-14.999h-44.999v33.75h-60.001v-33.75h-45v14.999h-7.5c-12.406 0-22.5 10.094-22.5 22.5v37.5c0 12.406 10.093 22.5 22.5 22.5zm165-67.5c4.136 0 7.5 3.364 7.5 7.5v37.5c0 4.136-3.364 7.5-7.5 7.5h-7.5v-52.5zm-37.499-14.999h14.999v82.499h-14.999zm-15 33.75v14.999h-60.001v-14.999zm-90.001-33.75h15v82.499h-15zm-30 22.499c0-4.136 3.364-7.5 7.5-7.5h7.5v52.5h-7.5c-4.136 0-7.5-3.364-7.5-7.5z"/><path d="m233.51 241.968h15v15h-15z"/><path d="m263.51 241.968h15v15h-15z"/></g></svg>