<svg xmlns="http://www.w3.org/2000/svg" enable-background="new 0 0 2000 2000" viewBox="0 0 2000 2000"><switch><g><path fill="#ffe6c4" d="M662.8,772.2c-2.1,58.2,118.2,136.4,234.6,130.3c124.6-6.6,150.2-104.7,254.8-101.4
				c121.9,4,250,142.4,237.5,249c-12.6,106.6-72.6,57.1-63.4,116.5c13.5,87.1,157.5,198.7,274.8,49.1
				c73.9-94.3,66.5-200.7-17.5-292.9c-80.2-88-131.2-72-136.8-128.1c-6.4-64.2,109.5-50.6,148.6-163.9
				c35.4-102.5-24.9-248.8-115.8-283.8c-86.7-33.3-80.4,22.9-208.7,10.9c-140.8-13.1-160-133.7-289.6-139
				c-116.5-4.8-245.6,86.7-251.9,173.7c-6.7,92,127.1,134.3,112.9,217.2C827.3,698.5,665.3,705.5,662.8,772.2z"/><path fill="#f9dede" d="M278.2,1485.1c60.6,29.6,240.3-23.6,304.3,9.3c37.9,19.5-12.6,44.8,23.4,70.6
				c56.6,40.6,275.9,45.8,404.6,2.6c88.4-29.7,74.5-62.3,149.4-71.8c80-10.1,119.5,24.1,263.8,29.3c46,1.7,155.2,5.6,190.9-20.6
				c35-25.7-9.8-72.3-74.1-97.9c-83.4-33.3-151.1-12.1-233.7-42.5c-101.6-37.4-54.9-90-133.9-108.2c-90-20.7-165.9,43.8-336.2,43.8
				c-186.6,0-262.3-77.5-370.4-58c-48.6,8.8-77,44.5-133.9,115.9C273.5,1431.4,244.7,1468.7,278.2,1485.1z"/><path fill="#ffe6c4" d="M676,334c58.7,41.3,64.8,139.4,57.2,197.5C716.6,658.7,621.7,691.2,637,768c16.4,82.2,131,74.8,163.7,161.1
				c37.9,100.1-49.6,285.4-194.9,311.9c-175.4,31.9-325.2-187.7-298.9-304.1c19.8-87.3,132.3-88.5,150.7-181.9
				c22.1-112.2-128.2-172.3-109.1-275.5C369.4,366.8,580.6,266.9,676,334z"/><path fill="#679208" d="M587.6,709c0,0-37.3,108.4,24.1,160.3c0,0-39.4,99.3,54.4,139.3s439.3-209,439.3-209l138.3-209
						L864.1,472.5L587.6,709z"/><path fill="#899208" d="M1148.6,701.8c0,0-53.1-13.2-45.9-86.8c7.2-73.6,64.4-93.3,64.4-93.3s-32.5-82.7,21.5-120.3
						c54.1-37.6,106.1-52,145.3-4.8c0,0,20,27.2,21.6,32.8c0,0,66,0.1,92.8,28c32,33.4,40,74.4,28.8,120c-11.2,45.6-28,50.2-28,50.2
						s14.4,35.4-5.6,64.2c-20,28.8-64,52-104,32c0,0-15.2,63.2-62.4,61.6c-47.2-1.6-65.6-64-65.6-64S1153.7,737.4,1148.6,701.8z"/><path fill="#899208" d="M1261.4,380.1c-19.2,56.2-83.6,63.1-83.6,63.1s17.5,80.4-28.9,129.4c-15.5,16.3-38,29.2-70.6,34.5
						c-6.4,1-13.2,1.8-20.4,2.2c-8.1,0.5-16.7,0.5-25.8,0.1c-1.6-0.1-3.1-0.1-4.7-0.2c-1.5-0.1-3.1-0.2-4.7-0.3
						c-0.7-0.1-1.5-0.1-2.2-0.2v0c-0.7,0-1.3-0.1-2-0.2c-3.6-0.3-7.3-0.7-11.1-1.1c-1.9-0.2-3.8-0.5-5.7-0.7
						c-3.8-0.5-7.6-1.1-11.5-1.7c0,0-0.2,0.3-0.6,0.8c-0.1,0.1-0.2,0.2-0.3,0.4c-0.5,0.7-1.3,1.6-2.2,2.7c0,0-0.1,0.1-0.1,0.1
						c-0.2,0.2-0.4,0.4-0.6,0.7c0,0.1-0.1,0.1-0.1,0.2c-0.2,0.2-0.4,0.4-0.6,0.6c-0.1,0.1-0.1,0.2-0.2,0.2c-0.1,0.1-0.1,0.1-0.2,0.2
						c-0.1,0.1-0.2,0.2-0.2,0.3c-0.2,0.2-0.3,0.3-0.5,0.5c-0.1,0.1-0.1,0.1-0.2,0.2c-0.2,0.2-0.5,0.5-0.7,0.8
						c-0.1,0.2-0.3,0.3-0.4,0.5c-0.3,0.3-0.6,0.6-0.8,0.9c0,0,0,0,0,0c-0.3,0.3-0.6,0.7-0.9,1c-0.1,0.1-0.1,0.1-0.2,0.2
						c-0.2,0.2-0.4,0.4-0.6,0.6c-0.1,0.1-0.1,0.2-0.2,0.2c-0.2,0.2-0.3,0.4-0.5,0.5c-0.7,0.7-1.4,1.4-2.1,2.2
						c-11.8,12-31.5,28.6-55.3,36.4c-10.5,3.4-21.8,5.1-33.6,3.9c-0.1,0-0.3,0-0.4,0h0c-0.4,0-0.7-0.1-1.1-0.1c-0.2,0-0.3,0-0.5-0.1
						c-0.5-0.1-0.9-0.1-1.4-0.2c-0.1,0-0.2,0-0.2,0c-1.1-0.2-2.1-0.3-3.2-0.5c-1.1-0.2-2.1-0.4-3.2-0.7c-1.5-0.4-3-0.8-4.5-1.2
						c-0.1,0-0.2-0.1-0.3-0.1c-1.1-0.3-2.1-0.7-3.2-1.1c0,0,0,0-0.1,0c-0.1,0-0.1-0.1-0.2-0.1c-0.3-0.1-0.6-0.2-0.9-0.3
						c-0.3-0.1-0.6-0.2-1-0.4c-0.1,0-0.1-0.1-0.2-0.1c-1.2-0.4-2.3-0.9-3.5-1.4c0,0-0.1,0-0.1-0.1c-0.3-0.1-0.6-0.3-0.9-0.4
						c-0.3-0.2-0.6-0.3-1-0.4c-0.2-0.1-0.3-0.2-0.5-0.2c-0.4-0.2-0.8-0.4-1.2-0.6c-0.3-0.2-0.6-0.3-0.9-0.5c-0.1,0-0.2-0.1-0.3-0.1
						c-0.1-0.1-0.2-0.1-0.3-0.2c-0.2-0.1-0.4-0.2-0.7-0.3c-0.3-0.2-0.6-0.3-1-0.5c-0.2-0.1-0.4-0.2-0.6-0.3
						c-0.4-0.2-0.7-0.4-1.1-0.6c-0.1-0.1-0.2-0.1-0.3-0.1c-0.1-0.1-0.3-0.2-0.4-0.2c-0.5-0.3-0.9-0.5-1.4-0.8
						c-0.1,0-0.1-0.1-0.2-0.1c-0.1-0.1-0.2-0.1-0.2-0.1c-0.2-0.1-0.4-0.2-0.5-0.3c-0.1-0.1-0.2-0.1-0.2-0.2
						c-0.1-0.1-0.3-0.2-0.4-0.3c-0.1,0-0.2-0.1-0.3-0.2c-0.2-0.1-0.4-0.3-0.6-0.4c-0.4-0.2-0.7-0.5-1.1-0.7
						c-0.1-0.1-0.2-0.1-0.3-0.2c-0.1-0.1-0.2-0.1-0.2-0.2c-0.2-0.1-0.4-0.2-0.5-0.4c-0.2-0.1-0.4-0.3-0.6-0.4c0,0-0.1,0-0.1-0.1
						c-0.4-0.3-0.8-0.6-1.2-0.8c-0.2-0.1-0.4-0.3-0.6-0.4c-1.6-1.1-3.1-2.3-4.7-3.6c-0.4-0.3-0.7-0.6-1.1-0.9
						c-0.6-0.5-1.1-0.9-1.7-1.4c-0.1-0.1-0.3-0.2-0.4-0.4c-0.1-0.1-0.2-0.2-0.4-0.3c-0.3-0.3-0.6-0.5-0.9-0.8
						c-0.2-0.1-0.3-0.3-0.5-0.4c-0.2-0.1-0.3-0.3-0.4-0.4c-0.2-0.2-0.4-0.3-0.6-0.5c-0.3-0.3-0.7-0.6-1-0.9c0,0-2.5,3.9-8.5,9.1
						c-0.2,0.1-0.3,0.3-0.5,0.4c-0.3,0.3-0.7,0.6-1,0.9c-0.2,0.2-0.4,0.3-0.5,0.4c-1.6,1.3-3.5,2.7-5.5,4.1
						c-0.2,0.2-0.5,0.3-0.7,0.5c-0.5,0.3-1,0.6-1.4,0.9c-0.5,0.3-1,0.6-1.5,1c-0.5,0.3-1,0.6-1.6,1c-1.9,1.1-3.9,2.2-6,3.3
						c-6.8,3.4-15.1,6.7-24.9,9.2c-10,2.5-21.7,4.3-35.2,4.8c0,0-7.1,0.9-17.8,0.3c-0.5,0-0.9-0.1-1.4-0.1c-0.4,0-0.7-0.1-1.1-0.1
						c-0.4,0-0.7-0.1-1.1-0.1c-0.4,0-0.9-0.1-1.4-0.1c-0.5,0-0.9-0.1-1.4-0.1c-0.7-0.1-1.4-0.2-2.2-0.3c-0.3,0-0.7-0.1-1-0.1
						c-0.4-0.1-0.8-0.1-1.1-0.2c-1-0.1-2-0.3-3-0.5c-16.3-2.7-36-9.5-51.7-25.3c-18.6-18.7-31.4-50.2-26.1-102.8
						c0,0-5.9-3.3-12.9-10.4c-18.3-18.4-44.1-62.3,8.1-138.9c1.6-2.3,3.2-4.6,4.9-7c0,0,23.7-46.6,88.4-34.3
						c0,0,55.1-123.4,193.6-54.8c0,0,27.7-26.4,68.7-20.7c0,0,68.4-85.4,163-0.8l34.1,39.3c0,0,34,4.5,56.8,20.4
						c2.5,1.7,4.9,3.6,7,5.7c0.9,0.9,1.8,1.8,2.7,2.7c0.3,0.3,0.6,0.6,0.8,0.9c0.3,0.3,0.5,0.6,0.8,1c0.2,0.2,0.3,0.4,0.5,0.6
						c0.6,0.8,1.2,1.6,1.8,2.4c0.2,0.3,0.5,0.7,0.7,1c0.2,0.4,0.4,0.7,0.7,1.1c0.6,1.1,1.2,2.2,1.8,3.3c0.2,0.4,0.3,0.8,0.5,1.1
						c0.2,0.4,0.3,0.8,0.5,1.2c0.2,0.4,0.3,0.8,0.4,1.2c0.3,0.8,0.5,1.6,0.7,2.4c0.1,0.4,0.2,0.8,0.3,1.2c0,0,0,0,0,0
						c0.1,0.4,0.2,0.8,0.3,1.2c0.1,0.5,0.2,0.9,0.2,1.4c0.1,0.8,0.2,1.6,0.3,2.4c0,0.4,0.1,0.7,0.1,1.1c0,0.2,0,0.4,0,0.7
						C1264.1,369.2,1263.3,374.4,1261.4,380.1z"/><path fill="#a5a816" d="M999.9,342.4c-109.1-18.8-65.1,83.2-66.2,163.3c-0.6,43-37.3,75.6-79.8,90.3
						c-30.2,10.4-63.3,11.8-88.6,1.5c-5.5-2.3-10.7-5.1-15.4-8.5c-4.2-3.1-8.2-6.1-12-9c-3.1-2.4-6.1-4.7-9-6.9
						c-30.9-23.8-51.5-39.5-102.7-44.2c-18.3-18.4-44.1-62.3,8.1-138.9c1.6-2.3,3.2-4.6,4.9-7c0,0,23.7-46.6,88.4-34.3
						c0,0,55.1-123.4,193.6-54.8c0,0,27.7-26.4,68.7-20.7c0,0,68.4-85.4,163-0.8l34.1,39.3C1212.3,424.7,1109.1,361.1,999.9,342.4z"/><path fill="#679208" d="M1188.6,1046c0,0,46.3,44.6,74.6-26.7c0,0,79.7,7.3,98.6-66.1c0,0,16.8-32.5,7.3-68.2
						c0,0,70.3-48.2,32.5-141.6c0,0-29.3-53.3-80.5-58.1c0,0-42.6-40-77.3-23.2c-34.7,16.8-43.5,39.6-43.5,39.6s-54.4,5.2-66.4,26.8
						c-12,21.6-4,46.4,0,51.2c0,0-55.2,33.4-44,79.1c11.2,45.7,33.6,52.1,33.6,52.1s-21.6,53,5.6,75.7c27.2,22.7,38,18.7,38,18.7
						L1188.6,1046z"/><path fill="#c0473f" d="M1161.5 966.8c0 0 32.5-48.2 52.4-70.3 0 0 4.2 6.3 0 24.1l-46.8 66.1L1161.5 966.8zM1047.1 852.6c0 0 47.6-112.4 196.7-249.4 0 0 22.5-26.5 28.2-54.8 5.7-28.3 15.1 10.9 15.1 10.9s-18.9 44.9-66.1 94c-47.2 49.1-149.3 211.6-149.3 211.6S1054.6 869.6 1047.1 852.6z"/><path fill="#899208" d="M895.3 617.6c-2.1 9-8.1 19.7-16 30.7 0 0 0 0 0 0-6.6 9.2-14.4 18.6-22.4 27.4-10.1 11.2-20.3 21.4-28.3 29-1 1-2 1.9-3 2.8-7.1 6.7-11.8 10.9-11.8 10.9s4.2 23.6-6.4 46.6c-8.7 19-27.6 37.6-67.4 41.8-9.7 1-20.7 1.2-33 .3-8.4-.6-17.4-1.7-27-3.3 0 0-59.2 27.8-107.5 12.7-32.6-10.2-60.3-39.9-61.5-110.9 0 0-15.6-5.5-31.9-17.2-3.5-2.5-7.3-5.2-11.2-8.3-15.9-12.5-33.7-31.2-39.7-67.4-9.6-57.8 8.4-154.7 109.2-154.7 0 0 10.1-84.9 88.3-89.1 6.6-.3 13.8-.1 21.4.8 13.8 1.6 29.4 5.5 46.9 12.3 71.9 27.7 28.8 72.7 134.8 82.9 119.8 11.5 63.7 116 66.6 138.1C896.2 608.8 896.2 613.8 895.3 617.6zM1203.3 1031.3c0 0-5.6 62.1-49.2 94.3 0 0 13.7 102.4-78.2 120.1-91.9 17.7-108-19.3-108-19.3l-13.7 12.1c0 0-109.6 28.9-111.2-86.3 0 0-61.9 1.1-105.1-42-6.1-6.1-11.9-13.1-17-21.1-13.1-20.3-22.2-47.2-23.8-82.7C690.7 858 821.3 837.1 839 837.1c0 0 0-141.9 195.1-163.6 0 0 10 1 24.5 5 42.7 11.8 125.1 49.8 112.5 165.8 0 0 1.6 56.4-37.9 74.2C1133.2 918.5 1211.4 945.9 1203.3 1031.3z"/><path fill="#c0473f" d="M915.1,1387.1c0,0,32.1,8.3,37.2-22.8c5.2-31-27.9-296.9-41.4-341.4c-13.4-44.5-15.5-49.7-15.5-49.7
						l23.8-12.4c0,0,16.6,97.2,23.8,92.1c7.2-5.2,18.6-104.5,18.6-104.5s22.8,24.8,21.7,44.5c0,0-34.1,135.5-17.6,191.4
						c16.6,55.9,17.6,40.3,24.8,9.3c7.2-31,16.6-173.8,14.5-210c0,0,6.2-9.3,32.1,5.2c0,0-25.9,196.6-6.2,169.7
						c19.7-26.9,50.7-87.9,50.7-87.9s18.6,4.1,17.6,21.7c0,0-79.7,95.2-85.9,161.4c-6.2,66.2,6.4,114.8,12.4,125.2
						C1036.2,1396.9,915.1,1387.1,915.1,1387.1z"/><path fill="#679208" d="M1264 367.4c13.8 9.7 15.6 13.5 8.6 34.2-17.8 52-77.4 58.4-77.4 58.4s40.3 184.3-173.7 149.7c0 0-41.3 55.1-93.5 49.9 69.3 52 133.4-33.5 133.4-33.5 213.9 34.6 173.7-149.7 173.7-149.7s59.6-6.3 77.4-58.4C1325.9 378.7 1287.2 372.9 1264 367.4zM878.9 635.5c0 0-20 30.8-80.9 32.9 0 0-12.6 1.6-29-1.1 29.8 22.6 68.9 17.5 68.9 17.5 45.4-1.6 68.1-19.1 76.7-27.9C903 653.4 891 646.7 878.9 635.5z"/><path fill="#679208" d="M1021.4 609.7c0 0-3.5 4.7-9.7 11.2 29.7 2 53.5-.9 72.4-7.2C1066.1 614.7 1045.4 613.5 1021.4 609.7zM798 668.4c0 0-114.6 14.8-101.1-119.7h0c-27.5 5-45.4 31.7-39.6 59 16.8 78.8 99.2 68.1 99.2 68.1 17.5-.6 31.6-3.6 42.8-7.5C798.9 668.4 798.4 668.4 798 668.4zM878.9 635.5c0 0-7 10.7-25.2 20 26.9 16.8 52.7 13.7 73.9 4.1C912 657.9 895.5 650.9 878.9 635.5z"/><path fill="#c0473f" d="M1169.1 1413.9c-125.5-3.2 75.4-9.2 93.6-11.8 23.9-3.5-89.2-7.9-176.7-7-54.8.6-60.2-16.3-60.2-16.3l-49-34.4-23.9 10c0 0-30.4 45.5-133.5 42.7s-37.7 4.3-37.7 4.3-155.2-2.9-97.4 4.6c7.5 1 23.9 3.3 16.6 5.6-.2.1-74.2 0-74.4.1-17.3 5.6 119.2 11.7 125.8 10.4 21.1-4.2 106 8.9 111.1-9.1 5.5-19.4 21.1 9.3 66.9 9.3 20.1 0 32.3-3.3 39.8-7 14.7-7.3 30.9-11.3 47.4-12.4.2 0 .3 0 .5 0 11.6-.7-20.7 19.9 58.6 10.4 17.7-2.1 41.8 9.4 74.7 9C1275.1 1420.6 1233.6 1415.5 1169.1 1413.9zM792.9 864.9c0 0-14.2-65.2-103-156.8 0 0 3.8-15.1 15.1-22.7 0 0 57.6 66.1 114.3 161.6L792.9 864.9zM860 795c0 0-60.5-72.8-81.3-210.7 0 0 1.9-16.1 25.5-26.5 0 0 22.7 137 74.6 211.6L860 795z"/><path fill="#a5a816" d="M1060.3,685.4c-1,59.3-81.1,49.7-132.8,57.4c-51.7,7.7-33.4,81.4-31.6,142.2c1.8,60.8-89,85.1-141.4,91.2
						c-52.4,6.1-16.7,133.9-16.7,133.9l-17-21.1c-13.1-20.3-22.2-47.2-23.8-82.7C690.7,858,821.3,837.1,839,837.1
						c0,0,0-141.9,195.1-163.6c0,0,10,1,24.5,5C1059.8,680.7,1060.4,682.9,1060.3,685.4z"/><path fill="#455908" d="M686.2 724C686.2 724 686.2 724 686.2 724c-1.1 0-1.9-.9-1.9-1.9 0-.3.3-34.1 26.8-38.6 1.1-.2 2.1.5 2.2 1.6.2 1.1-.5 2.1-1.6 2.2-23.2 4-23.5 33.5-23.5 34.8C688.1 723.1 687.3 724 686.2 724zM774.2 599.5c-.1 0-.2 0-.3 0-1.1-.2-1.8-1.2-1.6-2.2.1-.4 1.8-10.5 8.4-21.1 6.1-9.9 17.8-22.1 38.4-24.1 1.1-.1 2 .7 2.1 1.7.1 1.1-.7 2-1.7 2.1-36.5 3.5-43.4 41.6-43.4 42C776 598.8 775.1 599.5 774.2 599.5zM1291.1 578c-1 0-1.8-.8-1.9-1.8-2.8-33.5-17.9-45.9-18.1-46-.8-.7-1-1.9-.3-2.7.7-.8 1.9-1 2.7-.3.7.5 16.5 13.5 19.5 48.7.1 1.1-.7 2-1.8 2.1C1291.2 578 1291.2 578 1291.1 578zM1215.8 934.4c-.1 0-.2 0-.3 0-1.1-.2-1.8-1.2-1.6-2.2 4.4-25.2.6-35.1-3.3-39-3-3-6.3-2.4-6.3-2.4-1.1.2-2.1-.5-2.3-1.6-.2-1 .5-2.1 1.6-2.3.2 0 5.3-.9 9.7 3.5 6.6 6.6 8.1 20.8 4.4 42.4C1217.5 933.8 1216.7 934.4 1215.8 934.4zM890.3 988.7c-.2 0-.3 0-.5-.1-1-.3-1.6-1.3-1.4-2.4.3-1 6.9-25.2 40.1-29.8 1.1-.1 2 .6 2.2 1.6.1 1.1-.6 2-1.6 2.2-30.5 4.2-36.6 26-36.9 26.9C892 988.1 891.2 988.7 890.3 988.7z"/><g><path fill="#455908" d="M980.5,1006.8c-0.3,0-0.6-0.1-0.9-0.2c-0.9-0.5-1.3-1.7-0.8-2.6c12.5-23.7-23.7-60.5-24.1-60.9
						c-0.8-0.8-0.7-2,0-2.7c0.8-0.8,2-0.8,2.7,0c1.6,1.6,38.6,39.2,24.7,65.4C981.9,1006.4,981.2,1006.8,980.5,1006.8z"/></g><g><path fill="#455908" d="M1052,995.6c-0.3,0-0.6-0.1-0.9-0.2c-42.7-23.2-51.9-7.8-52-7.7c-0.5,0.9-1.7,1.3-2.6,0.8
						c-0.9-0.5-1.3-1.6-0.8-2.6c0.1-0.2,2.2-4.1,8.7-6.1c7.6-2.3,22.2-2.1,48.6,12.2c0.9,0.5,1.3,1.7,0.8,2.6
						C1053.3,995.2,1052.6,995.6,1052,995.6z"/></g><g><path fill="#455908" d="M1102,1104.5c-1.1,0-1.9-0.8-1.9-1.9c-0.5-32.5-33.2-35-34.6-35.1c-1.1-0.1-1.9-1-1.8-2.1s1-1.9,2-1.8
						c0.4,0,37.6,2.8,38.2,38.9C1103.9,1103.6,1103.1,1104.5,1102,1104.5C1102,1104.5,1102,1104.5,1102,1104.5z"/></g><path fill="#c0473f" d="M1316.5,557.9"/><path fill="#a5a816" d="M545.4,502c-44.9,9.1-2.7,31.7-19.6,119.5c-7.1,36.9-31.7,52.7-57.9,58.5c-15.9-12.5-33.7-31.2-39.7-67.4
				c-9.6-57.8,8.4-154.7,109.2-154.7c0,0,10.1-84.9,88.3-89.1C645.5,444.1,588.1,493.4,545.4,502z"/><g><path fill="#1f38ff" d="M1349.2,381.2c0,0,10.1,25.5,4.8,76c-5.3,50.4-34.6,117-34.6,117s-1.6-158.1,7-174.9
						S1349.2,381.2,1349.2,381.2z"/><path fill="#593737" d="M1386.3,273c0,0,59.2-1.9,52.9,45l-52.9-19.3c0,0-17.9-15-14.4-20.3C1375.5,273,1386.3,273,1386.3,273z"/><path fill="#422626" d="M1439.1,318c0,0-13.1-18.6-20.9-18.9c-7.8-0.3-32-0.4-32-0.4s6.7,17.7,10.9,19.3
						C1401.3,319.6,1439.1,318,1439.1,318z"/><path fill="#1f9dff" d="M1355.6,424.1c4.2,0,21-1.6,34.5-18.2c0,0,0,0,0,0c7.6-9.2,13.4-21.7,14.1-38
						c1.8-45.5-24.2-94.1-24.2-94.1s-6.8-1.7-14.6-1.3c-6,0.4-12.7,2-17.2,6.8c-10.3,11-20.8,68.4-21.4,71.5
						C1316.6,405.8,1349.1,424.1,1355.6,424.1z"/><path fill="#ffa816" d="M1394.9,375.9c1.9,19.6-4.5,29.6-4.7,29.9c7.6-9.2,13.4-21.7,14.1-38c1.8-45.5-24.2-94.1-24.2-94.1
						s-6.8-1.7-14.6-1.3c-1.6,0.8-15,7.9-10.4,26.2C1359.9,318.1,1392.9,356,1394.9,375.9z"/><ellipse cx="1365.6" cy="295.8" fill="#422626" rx="5.8" ry="5.7"/><path fill="#1f77ff" d="M1320,401.9c1.3,1.4,2.8,2.7,4.5,3.9c1.6,1.1,3.2,1.5,4.9,1.4c16.4-1.3,36.1-56.6,36.1-56.6
						s-6.1-6.5-11.8-16.8c-7.2-12.7-13.7-31.2-8.2-50.5c0,0-7.4,14.2-15.2,32.6c-5.5,13-11,26.7-13.3,34.7
						C1312.1,367.9,1308.3,389.2,1320,401.9z"/><path fill="#ffa816" d="M1375.9,443.5c0.5,0,0.9-0.3,1.1-0.7c0.2-0.3,3.9-7.9,1.1-12.3c-1.2-1.9-3.4-2.9-6.4-3
						c-1.7,0-2.8-0.5-3.4-1.6c-2.5-4.2,2.4-15.5,4.5-19.5c0.3-0.6,0.1-1.3-0.5-1.6c-0.6-0.3-1.4-0.1-1.7,0.5
						c-0.8,1.6-8.1,15.8-4.4,21.9c0.8,1.2,2.3,2.7,5.5,2.8c2.2,0,3.6,0.6,4.3,1.8c1.7,2.7-0.3,8.1-1.2,10c-0.3,0.6,0,1.3,0.6,1.6
						C1375.5,443.4,1375.7,443.5,1375.9,443.5z"/><path fill="#ffa816" d="M1365.5,442.2c0.7,0,1.2-0.5,1.2-1.2c0.3-5.2,1.6-11.2,3.1-11.8c0.3-0.1,0.7,0.2,1,0.4
						c4.2,3.5-1.1,10.5-1.1,10.6c-0.4,0.5-0.3,1.3,0.2,1.7c0.5,0.4,1.3,0.3,1.7-0.2c2.4-3.1,5.6-9.9,0.8-13.9
						c-1.5-1.3-2.8-1.1-3.6-0.8c-3.6,1.5-4.5,11-4.6,13.9C1364.3,441.6,1364.8,442.2,1365.5,442.2
						C1365.5,442.2,1365.5,442.2,1365.5,442.2z"/><path fill="#1593ff" d="M1320,401.9c2.3-12.5,9.5-51.1,12.4-62.8c1.9-7.6,0-16.6-2.2-23.3c-5.5,13-11,26.7-13.3,34.7
						C1312.1,367.9,1308.3,389.2,1320,401.9z"/><path fill="#1f5eff" d="M1329.4,407.2c16.4-1.3,36.1-56.6,36.1-56.6s-6.1-6.5-11.8-16.8l0,0c-5.7,9.2-10.1,19.2-13.1,29.6
						C1335.5,381.6,1329.7,406.2,1329.4,407.2z"/><path fill="#1f38ff" d="M1323.7,411.2c0,0-17.9,124.3-39.3,151.9c0,0,29.8-32.2,45-75.9C1344.6,443.3,1323.7,411.2,1323.7,411.2z"/></g><g><path fill="#847373" d="M546.1,1180.9c0,0,114.5,15.5,130.1-2.5c15.7-18-10.7-70-10.7-70l-135.2-6.4L546.1,1180.9z"/><path fill="#847373" d="M715 1360.5c-.9 3.4-3.3 5.7-6.7 7.3-4.5 2.1-10.7 2.8-17.6 2.7-1.7 0-3.4-.1-5.1-.2-6.3-.4-12.9-1.3-19.3-2.5-1.2-.2-2.4-.4-3.5-.7-6.4-1.2-12.2-2.6-16.9-3.9-6.3-1.6-10.4-2.9-10.4-2.9l-1.2-52.8-2.8-120.7-1.9-80.3-.8-97 81-14.2c0 0 6.7 207.4 6.8 310C716.8 1334.8 716.3 1355.5 715 1360.5zM595.3 1355.6c-1 4.4-3.9 7.8-8 10.2-4.5 2.7-10.5 4.3-17.1 5.2-1.7.2-3.5.4-5.3.6-6.2.5-12.8.5-19.2.2-1.3-.1-2.5-.1-3.8-.2-5.7-.4-11.1-.9-15.8-1.5-2.2-.3-4.3-.5-6.1-.8-15.2-2.2-27.5-181.5-32.9-275.9-1.9-33.8-3-56.8-3-56.8s18.7-20.3 51.2-21.5c32.5-1.2 45.3 76.1 45.3 76.1s.4 4.9 1.1 13.3c1.3 16.5 3.6 46.8 6.1 80.7.9 12.5 1.8 25.5 2.7 38.5C594.4 1284.4 597.7 1345.2 595.3 1355.6z"/><path fill="#dbcaca" d="M657,1039.6c0,0,30.5,32.8,8.6,68.8c0,0,30-12.8,30-43.6c0-30.8-12.4-49.7-12.4-49.7
						S661.4,1022.9,657,1039.6z"/><path fill="#998a8a" d="M565.6 1055.6c0 0-.9.7-2.5 1.6-4-7.5-13.2-12.4-22.9-15.6 3-29.7 24.6-59 25.3-59.9C548.1 1012.1 565.6 1055.6 565.6 1055.6zM894.3 968.1c-2.8 7.3-51.6 113.7-162.8 86.6 0 0-30.7-10.7-34.2-42.7-1.1-10-29.3-30-31.8-52.8-5.5-49.9 13.5-113.1 13.5-113.1s4.7-3.1 12.1-7.6c20.5-12.4 61.8-34.9 81.4-28.1 25 8.6 113.4 134.3 121.3 155C894.2 966.8 894.4 967.6 894.3 968.1z"/><path fill="#dbcaca" d="M521.6,1037.2c0,0-31.6,62.1,17.7,85.7c0,0,24.1,7,31.6,0c0,0-39.5-13.5-24.7-41.3
						c14.8-27.8,14.8-27.8,14.8-27.8S539,1033,521.6,1037.2z"/><path fill="#5e5454" d="M712.8,955.2c0,0-2.6-22.8,18.3-26.6C731.2,928.7,735,952.2,712.8,955.2z"/><path fill="#ad9c9c" d="M782.5,1019.4c0,0.8,0,1.7,0,2.5c0,0.4,0,0.9,0,1.3c-0.3,10.8-2,20.6-4.7,29.5c-0.1,0.3-0.2,0.7-0.3,1v0
						c-3.3,10.4-7.9,19.6-13.3,27.7c-0.2,0.3-0.4,0.7-0.7,1c-5.7,8.2-12.1,15.3-18.7,21.2c-0.3,0.3-0.5,0.5-0.8,0.7
						c-7.9,7-15.8,12.4-22.8,16.5h0c-0.3,0.2-0.7,0.4-1,0.6c-12,6.9-20.8,9.8-20.8,9.8c-5.8,2.7-11.4,4.9-16.8,6.8
						c-0.6,0.2-1.1,0.4-1.7,0.6c-27.5,9-49.3,7-66.1-0.6c0,0,0,0,0,0c-0.5-0.2-1-0.4-1.4-0.7c-11.8-5.6-21.1-14.1-28.2-23.4
						c-0.3-0.3-0.5-0.7-0.8-1c-12.8-17.2-18.4-37-18.8-47.6c-0.1-3-0.9-5.6-2.2-8c-4.1-7.5-13.2-12.4-22.9-15.6
						c-14.9-4.9-30.9-5.7-30.9-5.7l6.4-190.6c100.8-48.6,163.1,0.9,163.1,0.9v122.4l18.3,43.4c0,0-30.2,0-43.1,33.9
						c-3.8,10.2-1.1,16.7,4.8,20.8c0.3,0.2,0.5,0.4,0.8,0.5c4,2.5,9.3,4,14.9,4.9c0.3,0.1,0.6,0.1,1,0.1c4.7,0.6,9.5,0.8,14,0.7
						c0.3,0,0.7,0,1,0c3.9-0.1,7.5-0.4,10.6-0.8c0.4,0,0.8-0.1,1.2-0.2c3.1-0.4,5.5-0.9,6.6-1.4c1.7-0.6,4.6-2,8.2-4.2
						c0.3-0.2,0.6-0.4,0.9-0.6c4.6-3,10.1-7.3,15.2-13.4c0.2-0.3,0.4-0.5,0.7-0.8c3.3-4.1,6.3-8.9,8.7-14.6c0.1-0.3,0.3-0.6,0.4-0.9
						c2.4-5.8,4.2-12.5,5-20.1c0-0.3,0.1-0.7,0.1-1c0.2-2.4,0.3-4.8,0.3-7.4c0-4.1-0.3-7.9-0.9-11.4c-0.1-0.4-0.1-0.7-0.2-1.1
						c-1-5.5-2.6-10.3-4.7-14.5c-0.2-0.3-0.3-0.6-0.5-0.9c-2.6-5-5.7-9-9-12.2c-0.2-0.2-0.5-0.5-0.7-0.7
						c-9.5-9.1-19.8-11.6-19.8-11.6c18.3-5.5,18.3-26.6,18.3-26.6c11.4,7.4,20.3,15.7,27.2,24.1h0c0.3,0.3,0.5,0.6,0.8,1
						c4.8,5.9,8.6,11.9,11.6,17.8c0.2,0.4,0.4,0.7,0.6,1.1c4.1,8.1,6.7,15.9,8.4,22.7v0c0.1,0.5,0.2,0.9,0.3,1.4
						C783.1,1010.1,782.5,1019.4,782.5,1019.4z"/><path fill="#998a8a" d="M515.9,845.3l-0.8,24.6l10.8,102.8l-16.3,63.3c0,0-26.6,36.6-104.5,27.5c-49.3-5.8-94.1-55.2-120.4-90.7
						C269.3,952,260.2,936,260.2,936s122.8-127.4,153-134.7C443.5,794,515.9,845.3,515.9,845.3z"/><ellipse cx="551" cy="926.4" fill="#5e5454" rx="4.8" ry="15" transform="rotate(-17.936 551.015 926.504)"/><ellipse cx="655.6" cy="926.4" fill="#5e5454" rx="15" ry="4.8" transform="rotate(-67.251 655.572 926.357)"/><path fill="#877a7a" d="M515.9 845.3l-.8 24.6c-7.2 10.6-17.3 18.4-31 14.9-34.2-8.8-14.8-8.2-56 0-41.2 8.2-14.5 26.1-55.7 38.9-41.2 12.8-57.4-11.1-70.2 22.1-3.7 9.4-10.1 18.6-17.6 26.8C269.3 952 260.2 936 260.2 936s122.8-127.4 153-134.7C443.5 794 515.9 845.3 515.9 845.3zM893.7 965.5c-12.1-7.8-25.6-18.2-42.2-19.7-23-2-28.8-8.8-44-39.5-15.1-30.7 0-36.3-65.9-45.5-34.5-4.8-46.8-14.3-50.7-22.3 20.5-12.4 61.8-34.9 81.4-28.1C797.4 819.1 885.8 944.8 893.7 965.5z"/><path fill="#5e5454" d="M590.4 1223.7c4 60.7 7.3 121.5 4.9 131.9-1 4.4-3.9 7.8-8 10.2-4.5 2.7-10.5 4.3-17.1 5.2-1.7.2-3.5.4-5.3.6-6.2.5-12.8.5-19.2.2-1.3-.1-2.5-.1-3.8-.2-5.7-.4-11.1-.9-15.8-1.5-2.2-.3-4.3-.5-6.1-.8-15.2-2.2-27.5-181.5-32.9-275.9 3.2 6.6 6.4 16.6 8.4 32 5.5 41.2 8.6 53.3 14 61.7s6.1 18.9 6.4 37.1c.3 18.1-13.1 33.7-6.4 61 6.7 27.3-2.5 38.3 21.3 41.1 23.9 2.8 30 9.6 40 0 10-9.6 9.2 1.4 0-28.9-9.2-30.3-1.8-38.9 0-66.3C571.8 1215.8 581.4 1217.2 590.4 1223.7zM715 1360.5c-.9 3.4-3.3 5.7-6.7 7.3-4.5 2.1-10.7 2.8-17.6 2.7-1.7 0-3.4-.1-5.1-.2-6.3-.4-12.9-1.3-19.3-2.5-1.2-.2-2.4-.4-3.5-.7-6.4-1.2-12.2-2.6-16.9-3.9-6.3-1.6-10.4-2.9-10.4-2.9l-1.2-52.8c4.9 5.1 10.6 9.1 17.4 11.6 33.8 12.4 44-5.6 58.1-12.4 2.2-1.1 4.5-1.5 6.8-1.4C716.8 1334.8 716.3 1355.5 715 1360.5z" opacity=".43"/><path fill="#998a8a" d="M543 1358.4c-.6 5.2-.9 9.8-1.1 13.3-5.7-.4-11.1-.9-15.8-1.5 0 0-13.9-23.7-3.9-27.8C532.1 1338.2 544.4 1346.1 543 1358.4zM565.6 1356.3c0 7.2-.4 12-.8 15.3-6.2.5-12.8.5-19.2.2-.4-8.7-.8-27.4 2.8-29.5C553.8 1339.2 565.6 1337.8 565.6 1356.3zM587.3 1353.6c0 4.9 0 9 0 12.2-4.5 2.7-10.5 4.3-17.1 5.2-.7-8.7-1.6-30.3 4.7-29.2C582.7 1343.2 587.4 1341.3 587.3 1353.6zM665 1356c-1 4.3-1.7 8.1-2.2 11.3-6.4-1.2-12.2-2.6-16.9-3.9-2.5-6.4-8.2-23.1.2-25.6C656.5 1334.7 667.8 1343.9 665 1356zM687.8 1356.3c-.7 6.4-1.5 10.8-2.2 14-6.3-.4-12.9-1.3-19.3-2.5.6-9.2 2.3-25.7 5.8-27.3C677.9 1338.1 689.8 1337.9 687.8 1356.3zM709.6 1356c-.5 4.7-1 8.7-1.3 11.8-4.5 2.1-10.7 2.8-17.6 2.7.4-9.2 1.8-29.3 7.8-27.6C706.2 1345.2 711 1343.9 709.6 1356z"/><path fill="#dbcaca" d="M659.9 1067.3c-14.9 30.7-35.9 41.6-51.5 45.2-5.7 1.3-11.1 1.8-15.8 1.8-2.8 0-5.4-.2-7.7-.4-.3-.3-.5-.7-.8-1 6 .7 14.6.9 24.1-1.3 15.4-3.5 36.1-14.3 50.8-44.7C659.3 1066.9 659.6 1067.1 659.9 1067.3zM675.7 1072.3c-5.6 33-24.4 49.5-39.7 57.6-7.7 4.1-15.4 6.5-21.5 8 0 0 0 0 0 0-.5-.2-1-.4-1.4-.7 6.3-1.4 14.3-3.8 22.5-8.2 15.1-8 33.6-24.4 39.1-56.9C675.1 1072.2 675.4 1072.2 675.7 1072.3zM686.3 1132.3c-1.3 2-2.6 3.9-4 5.6-.6.2-1.1.4-1.7.6 1.7-2 3.3-4.3 4.8-6.7 7.9-12.5 14.8-32.6 4.3-58.8.3 0 .7 0 1 0C701.3 1099.4 694.3 1119.7 686.3 1132.3zM721 1120.7L721 1120.7c-.4.2-.7.4-1.1.6 1.6-12-.2-30.6-18.6-49.2.4 0 .8-.1 1.2-.2C720.4 1090.3 722.4 1108.6 721 1120.7zM744.7 1103.5c-.3.3-.5.5-.8.7-2.4-10.6-8.9-25.7-26.5-37.8.3-.2.6-.4.9-.6C735.5 1077.9 742.2 1092.9 744.7 1103.5zM764 1081.3c-.2.3-.4.7-.7 1-4.3-11.3-13-25.4-30-29.8.2-.3.4-.5.7-.8C750.8 1056.2 759.6 1070 764 1081.3zM777.7 1052.6c-.1.3-.2.7-.3 1-6.5-5.9-19.1-15.3-34.6-16.5.1-.3.3-.6.4-.9C758.5 1037.5 771 1046.7 777.7 1052.6zM782.4 1021.9c0 .4 0 .9 0 1.3-5.9-5.3-16.8-11.3-34.2-7.1 0-.3.1-.7.1-1C765.3 1011 776.3 1016.6 782.4 1021.9zM780 996.7c-3.7-2.7-8.6-5.3-14.4-5.8-6-.5-12 1.2-17.9 5.3-.1-.4-.1-.7-.2-1.1 5.9-4 12-5.8 18.2-5.2 5.5.5 10.3 2.8 14 5.4v0C779.8 995.8 779.9 996.3 780 996.7zM771.3 972.6c-8.6-1.7-20.3-1.5-28.5 8.1-.2-.3-.3-.6-.5-.9 8.2-9.5 19.7-9.8 28.4-8.3C771 971.8 771.1 972.2 771.3 972.6z"/><g><path fill="#dbcaca" d="M759.2,953.7c-8.9-0.2-20.1,2.3-25.8,13.8c-0.2-0.2-0.5-0.5-0.7-0.7c5.7-11.4,16.7-14.1,25.7-14.1h0
						C758.7,953.1,758.9,953.4,759.2,953.7z"/></g><g><path fill="#847373" d="M576.4,1123.4c-0.5,6.2,1.7,11.1,4.3,16.6c2.2,4.7,3.8,10.1,8.5,12.8c1.1,0.7,2.1-1.1,1-1.7
						c-4.2-2.5-5.8-7.9-7.8-12.1c-2.4-5.2-4.5-9.7-4-15.6C578.5,1122.2,576.5,1122.2,576.4,1123.4L576.4,1123.4z"/></g><path fill="#706565" d="M515.9 845.3l9.9 127.3-16.3 63.3c0 0-15.2 18.5-38.6 23.3 0 0 34.8-43.9 38.6-103.9C513.2 895.3 515.9 845.3 515.9 845.3zM683.2 1015.2c0 0-13.4-24.3-13.5-42.6-.2-18.3 9.3-126.4 9.3-126.4v122.4l18.3 43.4L683.2 1015.2z"/></g><g><path fill="#c96848" d="M804.7 259.4L840 316l57.1-9c0 0-11.1-8-26.9-6.2-15.8 1.9-25 10.8-25 10.8l-21.7-77L804.7 259.4zM944.4 199.6l84.9 70.1c0 0 30.3-44.6 28.1-27.6-1.3 10.1-29.3 39.8-29.3 39.8L931 211.1l9.7-7.6"/><path fill="#c97c4a" d="M960.7,187.9c-0.7,9-22.3,21.3-22.3,21.3C895.5,237.4,923,310.8,923,310.8l-10.5,1.2L897,219.5
							c0,0-18.7,14.6-35.7,21.1c-17,6.4-34.2,3.2-34.2,3.2c1.7,14-20.8,49.5-20.8,49.5c-2.2,26-8.3,54.6-8.3,54.6l-7.4,7.1
							c0,0-4.9-41.1-6.6-64.4c-0.3-4.2-0.5-7.8-0.6-10.5c-0.3-17.7-51.7-62.2-3.9-107.8c47.9-45.6,114.2-32.2,114.2-32.2
							s36.3,20.9,55.4,35.7C956.2,181,960.9,185.6,960.7,187.9z"/><circle cx="901.6" cy="119.6" r="13.7" fill="#a24a31"/><circle cx="984.2" cy="145.1" r="13.7" fill="#a24a31"/><path fill="#864a31" d="M896.5,122.9c-7.9,16.2-10.9,40.5,0.6,55.9c8.8,11.7,26.1,17.6,40.2,18.7c33.8,2.7,57.1-45.1,41.5-73.2
							C962.1,93.8,912.8,89.6,896.5,122.9z"/><path fill="#c97c48" d="M913.7,141.8c-2.7-3.8-2.7-8.9,0.1-12.6c3.1-4.3,8.9-8.3,19.7-6.4c21.3,3.6,35.7,10.2,33.9,22.2
							c-1.8,12-16,15-14.8,24.9c1.2,9.9-8.4,21.4-22,17.6c-13.6-3.8-23.6-19-16.2-29.4C919,151.7,916.4,145.6,913.7,141.8z"/><ellipse cx="926.8" cy="141" fill="#864a31" rx="5.9" ry="7.3" transform="rotate(-71.573 926.834 141.056)"/><ellipse cx="950.6" cy="147.9" fill="#864a31" rx="5.9" ry="7.3" transform="rotate(-71.573 950.615 147.922)"/><path fill="#a24a31" d="M936.9 168.5c1.2-.3 2.4-.5 3.6-.5 1-.1 1.9-.8 1.9-1.9 0-1-.9-2-1.9-1.9-1.6.1-3.1.3-4.6.7C933.4 165.3 934.5 169.1 936.9 168.5L936.9 168.5zM931.2 164c-1-1.4-2.3-2.4-3.9-2.9-1-.3-2.2.4-2.4 1.3-.2 1.1.3 2.1 1.3 2.4.1 0 .2.1.3.1-.3-.1 0 0 .1 0 .2.1.4.3.6.4-.2-.1-.1-.1 0 0 .1.1.2.2.2.2.1.1.2.2.3.3.2.2-.2-.3.1.1.6.8 1.7 1.3 2.6.7C931.4 166.1 931.9 164.9 931.2 164L931.2 164zM927.4 182.4c5.1-.1 10 1.9 15.2 1.5 2.5-.2 2.5-4.1 0-3.9-5.1.4-10-1.6-15.2-1.5C924.9 178.7 924.9 182.5 927.4 182.4L927.4 182.4z"/><path fill="#c97c48" d="M790.6 354.9c0 0 15.8-36.5 35.6-41.2 19.6-4.7 34.1 3 15.9 5.2S790.6 354.9 790.6 354.9zM912.5 312.1c0 0 51.9 6.4 55.1 3.1 3.3-3.3-16.6-12.4-38.1-8.9C911.7 309.2 912.5 312.1 912.5 312.1z"/><path fill="#b56a40" d="M959.4,191.6c-4.8,8.3-21.1,17.6-21.1,17.6C895.5,237.4,924,313.4,924,313.4l-11.5-1.3L897,219.5
					c0,0-18.7,14.6-35.7,21.1c-17,6.4-34.2,3.2-34.2,3.2c1.7,14-20.8,49.5-20.8,49.5c-2.2,26-8.3,54.6-8.3,54.6l-7.4,7.1
					c0,0-4.9-41.1-6.6-64.4c10.3-12.1,25.2-33.6,28.3-59.7c4.8-40.8,4.4-66,38.1-49.5c33.7,16.5,48.9,34.5,66.3,16.2
					c1.1-1.2,2.4-2.4,3.7-3.5c5.7,1.9,11.5,3,16.9,3.4C945.4,198.1,952.9,195.8,959.4,191.6z"/><g><path fill="#c97c4a" d="M779.6,184.6c-48.5,12.5-81.2-38.7-82-81.5c-0.2-10,0.6-21.5,7.7-29.2c5.8-6.4,14.6-8.4,22.9-8.1
						c17.6,0.7,38.7,10.7,48,26.1c7,11.7,7.3,28.7-6.1,36c-8.9,4.9-26.4,4.3-26.9-8.9c-0.1-3.2-5.1-3.2-5,0
						c0.5,11.9,11.2,17.3,22.1,16.6c12.2-0.8,22.9-8.8,25.3-21.1c4.9-24.9-19-43.2-39.7-50.3c-19.3-6.5-43.4-4.4-50.7,17.7
						c-3.9,11.9-3,25.7-0.8,37.8c2.4,13.1,7.2,25.9,14.3,37.2c15.7,25.1,42.6,40.2,72.3,32.5C784,188.6,782.7,183.8,779.6,184.6
						L779.6,184.6z"/></g></g><g><path fill="#ffc792" d="M1235.8,1204.2c0,0,39.5,76,39.1,101.1s8.3,104.8,8.3,104.8l7.6,4.9c0,0-3.3-122.8-10.1-156.4
						s-14.5-56.4-14.5-56.4L1235.8,1204.2z"/><path fill="#68181a" d="M1155.9,631.3l18.6,57l14.2,413.5C1079.5,1116.9,1135.8,715.3,1155.9,631.3z"/><path fill="#ffd69f" d="M1314.5,1414.1c0,0,5.1-101.2-18.5-134.1c-23.6-32.9-39.9-44.7-41.6-60.7c-1.7-16-42.7-12.6-52.8,17.7
						c-10.1,30.4-7.6,182.1-7.6,182.1h-12.7c0,0,1.7-202.4-16.9-215.9c-18.6-13.5-17.7,46.4-16.9,59.9c0.8,13.5-4.2,156-4.2,156h-11
						l-10.1-422.5c0,0,0.3-342.1-16.7-322.8c0,0-21.8,8-40.2,19.6c-0.2,0.1-0.5,0.3-0.7,0.4c-1.2,0.8-2.4,1.6-3.6,2.4
						c-19.6,12.8-35.7,26.2-38.3,9.4c-0.5-3.1,0-6.2,1.2-9.3c0,0,0,0,0,0c4-10,15.3-20.1,24.5-32.6c16.3-22.4,34.3-47.2,50.7-55.3
						c2.2-1.1,4.3-1.9,6.5-2.3c30-6.3,56.5-13.4,56.5,16.6c0,0-16.7,32.5,0,229c16.7,196.5,11.7,253,45.4,273.2
						c33.7,20.2,77.6,37.1,92.8,70c15.2,32.9,18.5,90.2,18.5,114.7c0,24.5,4.2,104.6,4.2,104.6H1314.5z"/><path fill="#68181a" d="M1148.7,1423.3c0,0-17.3-14.5-33.2-6.9c-15.9,7.6-15.9,11.1-15.9,11.1L1148.7,1423.3z"/><path fill="#68181a" d="M1195.5 1419.3c0 0-17.3-14.5-33.2-6.9-15.9 7.6-15.9 11.1-15.9 11.1L1195.5 1419.3zM1324 1413.8c0 0-17.3-14.5-33.2-6.9-15.9 7.6-15.9 11.1-15.9 11.1L1324 1413.8z"/><path fill="#68181a" d="M1290.8 1415.1c0 0-17.3-14.5-33.2-6.9s-15.9 11.1-15.9 11.1L1290.8 1415.1zM1083.2 660.7c-2.4 10.5-12.3 25.1-17.8 32.8-.2.1-.5.3-.7.4-1.2.8-2.4 1.6-3.6 2.4 3.7-4.9 17.6-23.7 20.4-36 .1-.5.6-.8 1.1-.7S1083.3 660.2 1083.2 660.7z"/><polygon fill="#68181a" points="1114.5 604.2 1123.7 557.8 1135.8 557.8 1132.9 601"/><path fill="#ff8b6d" d="M1125.1,607.5c0,0,4.1,36.9,33.4,29.8c29.3-7.1,12.5-25.6-4.6-29.8C1136.7,603.3,1124.3,603,1125.1,607.5
						z"/><path fill="#d34718" d="M1112.1 694.1c0 0 22.7 3 19.9 14.2-2.8 11.1-13.7 57.6-13.7 57.6L1112.1 694.1zM1154.7 711.6l-13.8 27.9c-1.4 2.9-1.3 6.3.3 9.1l15.6 27.1L1154.7 711.6zM1130.5 788.8l-10.9 13.4.3 9.8 17 20.5c3.8 4.6 10.8 4.7 14.7.2l8.2-9.5-1.1-15.4-12.8-18.4C1142.2 784.1 1134.5 783.9 1130.5 788.8zM1121.8 916h3.4c5.3 0 9.6 4.3 9.6 9.6v45.8c0 4.8-3.5 8.8-8.2 9.5l-4.4.6L1121.8 916zM1162.9 862.1l-14.4 2.9c-5 1-8.3 5.7-7.6 10.7l5.5 39.9c.7 4.8 4.7 8.3 9.5 8.3h11.8L1162.9 862.1zM1169.3 944.3l-13 2.7c-4.9 1-8.2 5.6-7.6 10.6l3.8 30c.7 5.3 5.6 9.1 10.9 8.3l9.5-1.4L1169.3 944.3zM1123.4 1041.9l18.5 14c2.3 1.7 3.7 4.4 3.8 7.3l1.8 41.8c.1 1.9-.4 3.8-1.4 5.4l-20.3 33.8L1123.4 1041.9zM1176.1 1033.2l-13.5 2.2c-5 .8-8.5 5.3-8 10.3l2.9 32c.4 4.4 3.7 7.9 8 8.6l19.2 3.2C1184.6 1089.5 1178.4 1059.8 1176.1 1033.2zM1199.1 1118.4v40.7c0 4.3 2.9 8.1 7.1 9.3l27.1 7.3c6.1 1.7 12.1-2.9 12.1-9.3V1146c0 0-19.3-10.5-24.8-13.6C1215 1129.3 1201.6 1121.1 1199.1 1118.4zM1157.8 1109.4l-7 32.9c-1.1 5.3 2.4 10.5 7.7 11.5l7.5 1.3c5.2.9 10.1-2.5 11.1-7.6l6.1-31.2c.9-4.4-1.4-8.7-5.4-10.6l-6.5-3C1165.6 1100.1 1159.1 1103.3 1157.8 1109.4zM1126.3 1163.1L1126.3 1163.1c5.2 0 9.4 4.1 9.6 9.2l1.3 32.8c.2 5.5-4.1 10-9.6 10h-.1L1126.3 1163.1zM1160.3 1201.4l14.7-25.1c2.5-4.3 7.9-6 12.4-3.8l18.8 8.9c4.4 2.1 6.5 7.1 5 11.7l-8.3 25.4c-1.9 5.9-8.8 8.4-14.1 5.2l-19.6-11.9C1169.2 1211.9 1168.1 1203 1160.3 1201.4zM1272.4 1163.1l-4.7 27.6c-.8 4.9 2.2 9.7 7.1 10.9l31 8C1305.8 1209.6 1299.4 1180.2 1272.4 1163.1z"/><path fill="#68181a" d="M1094.1 632.5l22.8-2.4C1116.9 630.1 1099.7 652.4 1094.1 632.5zM1028.8 700c0 0 8.1-7.4 9.7-10.9C1040.1 685.6 1028.4 694.6 1028.8 700z"/><path fill="#d34718" d="M1105.5 658.6c0 0 22.8 12.6 26.8 3.7s3.5-21.5 3.5-21.5h-16.1L1105.5 658.6zM1099.2 608.4l-16.4 29.8-40.2 39.1c0 0-14.1 11.8-18.7 19 4-9.9 15.3-20.1 24.5-32.6C1064.8 641.4 1082.7 616.5 1099.2 608.4zM1295.5 1186.4c0 0-8.4-69.2 10.3-100.9 18.7-31.7 24-75.5 24-75.5s-9.9 51.3-36.2 83.1c0 0-15.7 72.8-6.9 93.4C1295.5 1206.9 1295.5 1186.4 1295.5 1186.4z"/><path fill="#68181a" d="M1315.8,958.1c0,0,2.9,14.5,0,31.4s10.6,34.3,10.6,34.3s9.6,3.2,9.6-13.8
						C1336.1,992.8,1315.8,958.1,1315.8,958.1z"/></g><g><path fill="#d15b37" d="M1340.4 1123.3c0 0-10.2 8.4-12.2 14.3s-13-12.2-2.1-30.6c10.9-18.4 18.4-14.2 18.4-14.2s-11.6.3-11.6 16.1C1332.9 1117.6 1336.2 1121.3 1340.4 1123.3zM1529.2 1207.3c0 0-24.1 60.8-23.6 80.6.5 19.8 3.5 53.4 3.5 53.4h-8.7l-6.4-88.9L1529.2 1207.3zM1391.8 1213.8c0 0-3.8 31.2-17 38.7-13.2 7.6 0 77.9 0 77.9l-8.5-2.8c0 0-16.1-67.6-10.4-92.6 5.7-25 17.3-44.4 17.3-44.4L1391.8 1213.8z"/><path fill="#e77046" d="M1340.4,1320.6c0,0-12.8-97.5-16.1-133.2c-3.4-35.7,0.7-77.4,41.7-63.9s119.1,67.3,129.2,57.2
							s1.3-72.5-3.4-95.4s-6.1-34.3,18.8-16.8c24.9,17.5,43.7,24.9,43.7,33s-22.5,16.5-32,13.1c0,0,18.5,52,8.4,88
							c-10.1,36-41,44.1-43.7,111.3l1.3,38.8h-9.4c0,0-4-102-6.7-103.4c-2.7-1.3-82.7-14.8-91.5-34.3c0,0-10.1,25.6-26.9,33.6
							c-16.8,8.1-3.4,86.1-3.4,86.1l-8.7-2.7L1340.4,1320.6z"/><path fill="#8e4a37" d="M1509.1,1079.4c-0.7,3-0.5,8.2,6.5,10.5c7.1,2.4,7.9-1.9,6.2-3.8c-1-1.2-6.1-6.5-8.7-7.6
							C1511,1077.8,1509.5,1077.5,1509.1,1079.4z"/><path fill="#d15b37" d="M1497,1087.7c1.2-2.9-0.1-6.2-2.9-7.5c-3.4-1.5-8.3-5-12-13.3c-6.1-13.8-16.1-13.2-16.1-13.2
							s-6.4,18.5,4.5,26.1c11,7.6,23.5,12.8,25.7,9.3C1496.6,1088.6,1496.8,1088.2,1497,1087.7z"/><path fill="#8e4a37" d="M1491.4,1069c0,0-34.8-48.4-39.7-60.7s-9.8-33.7,8.5-40.3c18.4-6.6,21.4,0.6,16.8,0
							c-9-1.2-25.1,4.6-25.4,21c-0.2,15.3,4,20.8,6.8,13.1c2.8-7.8,10.6-13.8,13.2-10c2.6,3.8-5.3,0.8-8.7,11.5
							c-3.4,10.8,1,27.6,6.3,25.5c5.3-2.1,12.3-19.5,20-15.5c7.8,4,1.9,2.5-3.8,6.1c-5.7,3.6-13.8,12.7-7.8,16.3
							c6.1,3.6,13.1,2.6,10,5.3c-3,2.6-9.5,0-8.9,2.6c0.6,2.6,14.4,19.9,14.9,21.6C1494.4,1067.1,1493.7,1068.6,1491.4,1069z"/><path fill="#f48c6c" d="M1469.6 1183c-5.1-1.8-10.3-3.7-15.4-5.5-4-1.4-5.8 5-1.8 6.4 5.1 1.8 10.3 3.7 15.4 5.5C1471.9 1190.9 1473.6 1184.4 1469.6 1183L1469.6 1183zM1433.3 1169.5c-3.8-1.1-7.2-2.7-10.5-4.9-3.6-2.4-6.9 3.4-3.4 5.8 3.7 2.5 7.8 4.3 12.1 5.6C1435.6 1177.1 1437.4 1170.7 1433.3 1169.5L1433.3 1169.5zM1399.7 1152.1c-3.8-1.2-7.5-2.4-11.3-3.6-4.1-1.3-5.8 5.1-1.8 6.4 3.8 1.2 7.5 2.4 11.3 3.6C1402 1159.8 1403.8 1153.4 1399.7 1152.1L1399.7 1152.1zM1396.9 1173c-5.2-1-10.2-2.7-15.1-4.9-3.8-1.8-7.2 3.9-3.4 5.8 5.3 2.5 10.8 4.5 16.6 5.6C1399.3 1180.3 1401.1 1173.9 1396.9 1173L1396.9 1173zM1442.8 1199.2c5 3.2 10.4 5.9 15.9 8.1 4 1.6 5.7-4.9 1.8-6.4-5-2-9.8-4.5-14.3-7.4C1442.5 1191.1 1439.2 1196.9 1442.8 1199.2L1442.8 1199.2zM1361.4 1147.6c-4.3-.5-8.2-2.6-11.2-5.7-3-3.1-7.7 1.6-4.7 4.7 4.3 4.5 9.8 7 15.9 7.6C1365.6 1154.7 1365.6 1148 1361.4 1147.6L1361.4 1147.6zM1366.5 1132.3c-3-1.7-6.1-3.4-9.1-5-3.8-2.1-7.1 3.7-3.4 5.8 3 1.7 6.1 3.4 9.1 5C1366.9 1140.1 1370.3 1134.4 1366.5 1132.3L1366.5 1132.3zM1484 1201.6c4.7-.3 9-1.5 13.1-3.7 3.8-2.1.4-7.8-3.4-5.8-3 1.7-6.3 2.6-9.8 2.8C1479.8 1195.2 1479.7 1201.9 1484 1201.6L1484 1201.6zM1511.1 1162.5c-.2-5.5-.4-11-.6-16.5-.2-4.3-6.8-4.3-6.7 0 .2 5.5.4 11 .6 16.5C1504.6 1166.8 1511.3 1166.8 1511.1 1162.5L1511.1 1162.5zM1417.9 1196.3c3.5.7 6.9 1.6 10.2 3 1.7.7 3.7-.7 4.1-2.3.5-1.9-.7-3.4-2.3-4.1-3.3-1.3-6.7-2.3-10.2-3C1415.5 1189 1413.7 1195.5 1417.9 1196.3L1417.9 1196.3zM1361.9 1171.8c-7.4-2.8-15.3-4.3-23.2-4.4-4.3-.1-4.3 6.6 0 6.7 7.4.1 14.5 1.5 21.4 4.2C1364.1 1179.7 1365.8 1173.3 1361.9 1171.8L1361.9 1171.8zM1385.8 1197.1c3.1.9 6.3 1.7 9.4 2.6 4.1 1.1 5.9-5.3 1.8-6.4-3.1-.9-6.3-1.7-9.4-2.6C1383.4 1189.5 1381.7 1196 1385.8 1197.1L1385.8 1197.1z"/><path fill="#e77046" d="M1341.3,1328.6l1.6,13.1c0,0,13.4,11.9,17.3,12.5c4,0.6,12.9,0,12.9,0s-3.8-9.4-12-9.4s-10.7-10-10.7-10
							L1341.3,1328.6z"/><path fill="#d15b37" d="M1365.2,1321.7l1.8,14.1c0,0,13.4,11.9,17.3,12.5c4,0.6,12.9,0,12.9,0s-3.8-9.4-12-9.4
							s-10.9-11.1-10.9-11.1L1365.2,1321.7z"/><path fill="#e77046" d="M1479,1352.6c0,0,5.9,6.1,10.8,8.1c4.9,2,9.4,1.4,12,0c2.6-1.4-0.9-5.2-6.3-6.3
							c-5.4-1.1-7.1-1.8-7.1-1.8H1479z"/><path fill="#d15b37" d="M1500.4,1341.4c0,0,5.9,6.1,10.8,8.1s9.4,1.4,12,0c2.6-1.4-0.9-5.2-6.3-6.3s-8.3-2.5-8.3-2.5
							L1500.4,1341.4z"/><g><path fill="#a95b37" d="M1553.7,1090.6c-2.2-1.8-6.5-1.9-8.5,0.1c-0.9,0.9-0.3,2.7,1,4.2c4.8,5.3,5.5,10,8.2,8.2
						C1556.4,1101.6,1558,1094.1,1553.7,1090.6z"/></g></g><g><path fill="#ed8118" d="M695.3,1241.3c0,0-97.5,131.1-91.9,157.6c5.7,26.5,68,36,96,24.6c28-11.4,75.1-63.4,86.1-84.2
						c11-20.8,58.2-69.1,5.8-76.7C738.8,1255,695.3,1241.3,695.3,1241.3z"/><path fill="#ffa45e" d="M724.1 1275.8c0 0 28.7 147.5 41.6 149.3 12.9 1.9 24.9-.9 19.8-11.1-5.1-10.2-15.4-138.2-15.4-138.2H724.1zM815.5 1275.8l7.5 137.4c0 0-22.9 14.1-24.7 4-1.8-10.1-16-136.4-16-136.4L815.5 1275.8z"/><path fill="#ffa45e" d="M765.7,1425.2c0,0,27.6-37.2,59.8,4C825.4,1429.1,781.2,1438.1,765.7,1425.2z"/><path fill="#ffa45e" d="M861.6 1424c0 0-14.2-38.5-63.3-8.8C798.3 1415.2 789.6 1433.9 861.6 1424zM603.4 1372.8c7.4-21.1 25.2-36.7 46.9-41.9 20.6-4.9 46.9-5.4 61.1 17.3 25.5 40.7-12 65.1-12 65.1s63.6-5.5 69.6 5.9c6 11.4-57.1 19.2-109.1 11.9C618 1425.2 590.6 1409.5 603.4 1372.8z"/><g><path fill="#ffba34" d="M745.6,1291.9c-11.1-18.1-47-19.6-71.3-14.4c-22.6,4.8-30.5,14.3-38.2,9.3c-11.5-7.4,3.5-30.2-7.6-57.7
					c-11.6-28.6-39.3-32.3-37.3-47.5c2.2-17,37.3-15.1,45.8-38.2c8.2-22.3-18.2-40.9-9.3-56c9.5-16.3,41.8,2.5,75.5-17.8
					c22.9-13.8,23.1-31.5,40.7-33.1c18.1-1.6,22.2,16.7,46.7,20.4c26.4,4,41.5-14.3,51.8-5.9c9.8,8-3.6,24.7,5.9,45
					c10.8,22.9,36.9,20.3,40.7,39c2.9,14-11.3,17.7-12.7,37.3c-2.1,28,25,43.6,17.8,56.9c-6.2,11.4-28.9,4.5-33.9,16.1
					c-4.9,11.3,13.7,23.7,8.5,35.6c-4.3,9.8-18.7,5.6-27.2,17.8c-8,11.5-0.7,23.4-6.8,27.2c-9.3,5.8-26.2-22.1-49.2-19.5
					c-17.4,1.9-25.7,19.8-33.1,16.1C745.6,1319,753.3,1304.4,745.6,1291.9z"/><path fill="#ffd69f" d="M712.5,1107.2c-21.8,12.7-32,61.4,0,101.1c32,39.7,68.5,41.6,79.3,16c10.9-25.6,2.6-93-22.1-111.1
							C750,1098.8,725.6,1099.6,712.5,1107.2z"/><path fill="#d34718" d="M727.5,1119l5.5,62.5c0,0,32.6-4.8,32.6-11C765.7,1164.2,727.5,1119,727.5,1119z"/><path fill="#68181a" d="M733,1181.5c0,0,16.6,17.9,21.1,14.1c4.5-3.8,11.5-25.1,11.5-25.1L733,1181.5z"/><path fill="#68181a" d="M770.1,1219.5c-0.1,0-0.2,0-0.3-0.1c-0.4-0.2-10.9-4.1-16.6-23.7c-0.1-0.5,0.1-1,0.6-1.2
							c0.5-0.1,1,0.1,1.2,0.6c5.4,18.6,15.3,22.4,15.4,22.4c0.5,0.2,0.7,0.7,0.6,1.2C770.9,1219.3,770.5,1219.5,770.1,1219.5z"/><path fill="#68181a" d="M754.1 1222.7c-.5 0-.9-.4-.9-.9s.4-.9.9-.9c19.7 0 30.5-16.7 30.6-16.8.3-.4.9-.6 1.3-.3.4.3.6.9.3 1.3C786.2 1205.2 774.9 1222.7 754.1 1222.7zM757.3 1152c-.4 0-.8-.3-.9-.8-.1-.5.3-1 .8-1.1.2 0 19.3-3.6 24.2-17.6.2-.5.7-.8 1.2-.6.5.2.7.7.6 1.2-5.3 15.1-24.9 18.7-25.7 18.9C757.4 1152 757.4 1152 757.3 1152zM701.6 1174.4c-1 0-1.9 0-2.9-.1-.5 0-.9-.5-.8-1s.5-.9 1-.8c14.4 1.4 24.4-8.7 24.5-8.8.4-.4 1-.4 1.3 0 .4.4.4 1 0 1.3C724.3 1165.3 715.3 1174.4 701.6 1174.4zM724.1 1200.3h-49.3c-.5 0-.9-.4-.9-.9s.4-.9.9-.9h49.3c.5 0 .9.4.9.9S724.6 1200.3 724.1 1200.3zM695.3 1236.8c-.2 0-.5-.1-.7-.3-.4-.4-.4-1 0-1.3l28.8-28.8c.4-.4 1-.4 1.3 0 .4.4.4 1 0 1.3l-28.8 28.8C695.7 1236.7 695.5 1236.8 695.3 1236.8zM709.7 1252.2c-.2 0-.4 0-.5-.2-.4-.3-.6-.9-.3-1.3l23.4-35.8c.3-.4.9-.6 1.3-.3.4.3.6.9.3 1.3l-23.4 35.8C710.3 1252 710 1252.2 709.7 1252.2zM785.5 1165.1c-.2 0-.4-.1-.5-.2-.4-.3-.5-.9-.2-1.3l25.6-36.5c.3-.4.9-.5 1.3-.2.4.3.5.9.2 1.3l-25.6 36.5C786.1 1165 785.8 1165.1 785.5 1165.1zM829.6 1171.4C829.6 1171.4 829.6 1171.4 829.6 1171.4c-12.1-.2-38.2-1.6-38.4-1.6-.5 0-.9-.5-.9-1 0-.5.5-1 1-.9.3 0 26.4 1.4 38.4 1.6.5 0 .9.4.9 1C830.6 1171 830.2 1171.4 829.6 1171.4zM832.9 1205.7c-11.4 0-40.8-16.2-42.1-17-.5-.3-.6-.8-.4-1.3.3-.5.8-.6 1.3-.4 9.5 5.3 35.8 18.6 42.8 16.6.5-.1 1 .1 1.2.6.1.5-.1 1-.6 1.2C834.4 1205.6 833.7 1205.7 832.9 1205.7z"/></g><g><path fill="#d34718" d="M603,1402.8c-7.3-6.1-17.2-16.7-19.3-30.8c-2.2-14.4,3.9-29.4,18.1-44.5c50.3-53.4,63.6-89.4,44.4-120.2
						l0.8-0.5c19.5,31.3,6.1,67.6-44.5,121.4c-14,14.9-20,29.6-17.9,43.7c2,13,10.6,22.9,17.6,29L603,1402.8z"/><path fill="#d34718" d="M653,1221.8c0,0-32.7-21.6-33.3-38.1s6.6-20.2,6.6-20.2S655.6,1197.1,653,1221.8z"/></g></g><g><path fill="#d8a887" d="M1301.5,1544.3c0,0,4.9,18,7.6,28.4c0,0-10.8,17.4-16.7,12s-3.2-19.7-11.1-29.6L1301.5,1544.3z"/><path fill="#eaba96" d="M1227.4,1486.3c0,0-11,6.2-1.8,33.8c9.2,27.6,28.7,46,45.9,45.4c17.2-0.6,38.9-22.9,36.1-39.6
					c-2.9-16.7-24.6-73.1-46.4-65.5C1239.4,1468.1,1227.4,1486.3,1227.4,1486.3z"/><path fill="#422626" d="M1284,1495c-4.8-8.4-13-8.7-23-7.3c-3.7,0.5-5.3,3.6-7.6,8.6c-10.3,22.2-26.6,22.9-35.4,19.6
					c-5.7-2.1-9-7.9-8-13.9c2.4-14.4,15-42.1,38-51c33.2-12.9,50.6,1.9,87.1,44.6c5,5.9,19.5,20.5,10.3,29.4
					c-9.2,8.8-31,34.6-37.5,34.6C1302.5,1559.7,1297.4,1518.4,1284,1495z"/><path fill="#e77046" d="M1232.6,1534.8c0,0,9,21.1,7.8,28.2c0,0,11.2,0.1,10.3-5.1C1249.7,1552.2,1232.6,1534.8,1232.6,1534.8z"/><path fill="none" stroke="#e77046" stroke-linecap="round" stroke-miterlimit="10" stroke-width="3" d="M1277.1,1538.7c1,9.1-2.6,15.3-9.2,16.4"/><ellipse cx="1252" cy="1526.6" fill="#68181a" rx="3.6" ry="8.3" transform="rotate(-40.439 1252.004 1526.657)"/><path fill="#e77046" d="M1268.6,1487.1c0,0-6,5.4-11,0c-5-5.4-8.4-13.6-8.4-13.6s3.4-4.9,6.7-2.7
					C1259.3,1473,1268.6,1487.1,1268.6,1487.1z"/><path fill="none" stroke="#e77046" stroke-linecap="round" stroke-miterlimit="10" stroke-width="3" d="M1240.9,1520.1c0,0,7-9.9,14.9-4.3"/><path fill="#422626" d="M1268.6,1487.1c0,0,14.4,8.6,10.5,22.1c-4,13.5,1.4,20.3,7,22.9c5.6,2.6,10.7,6.3,8.9,14.8
					c-1.8,8.5-12.1,18.6,0.4,18.6s16.3-7,20.2-10.4c3.9-3.4-15.6-65.1-17.5-65.6C1296.2,1489,1268.6,1487.1,1268.6,1487.1z"/><g><polygon fill="#eaba96" points="1330.5 1810.8 1329 1843 1329 1854.2 1309.5 1854.2 1318 1815.1"/><path fill="#5e5454" d="M1334,1682.2c0,0-36.3-7.2-39.1,13.9c-2.8,21.1-2,130.6,2.9,130.6c4.9,0,52.1-2.3,51.2-8.3
					C1348.2,1812.4,1334,1682.2,1334,1682.2z"/><path fill="#706565" d="M1336.7,1861.6c0,0-1.7-22-16.7-19.9c-14.9,2-18.7,15.1-19.4,19.9
					C1300.6,1861.6,1323.5,1864.7,1336.7,1861.6z"/></g><g><polygon fill="#eaba96" points="1231.6 1858.8 1210.2 1857.3 1237.6 1807 1254 1813.8"/><path fill="#5e5454" d="M1268.5,1686.5c0,0-50.1,124.6-46.5,125.5c3.6,0.9,42.2,18.4,46.5,12.4c4.3-6,50-117.3,46.5-129.8
					C1311.4,1682.2,1277.3,1681.5,1268.5,1686.5z"/><path fill="#706565" d="M1237.6,1863.9c0,0,7.7-15.1,4.5-19.4c-3.2-4.3-20.6,3.3-21.6-6.1c0,0-18.5,5.6-27.5,12.8s-9,9.2-6,10
					C1190,1861.8,1237.6,1863.9,1237.6,1863.9z"/></g><g><path fill="#d15b37" d="M1311.6,1562.3c0,0,6.9,6.6,14.7,10.6c7.7,4,16.1,26.3,7.7,38.4c-7.5,11-2.7,61-2.7,61s-55.9,9.6-56.7,2.9
					s-8.8-50.5-6.6-71.9s7.9-29.2,12.1-34.1c4.5-5.2,11,7.1,18.7,2C1306.5,1566.2,1311.6,1562.3,1311.6,1562.3z"/><path fill="#5e5454" d="M1271.4,1676c0,0-2.6-27.8-3.9-58.9c-1.3-31,5.5-38.8,10.1-45.4c3.3-4.8,4.6-3.6,4.6-3.6
					c-11.2,11.7-10.6,37.7-10.6,37.7c15.6,13.9,31.1,7.6,31.1,7.6c4.2-45.7,14.4-41.1,19.5-42.9c5.1-1.7,24,8.7,12.8,42.7
					c-3.8,11.5-3.1,39.4-0.6,71.2c4.5,58.8-74.9,35.7-66.2,4C1270.1,1680.6,1271.4,1676,1271.4,1676z M1321.2,1616.3
					c5.2-0.1,9.9-3.2,12.2-7.9c2.2-4.5,4.2-10.6,3-16.7c-2.3-11.9-9.5-20.3-14-18.4c-4.5,1.8-13.6,6.1-14.1,25.1
					C1307.9,1613.5,1312.4,1616.5,1321.2,1616.3z"/><path fill="#847373" d="M1297.9,1686.5c19.7-0.7,4.7-73.2,4.7-73.2s-15.4,6.3-31.1-7.6C1268.1,1657.3,1278.1,1687.2,1297.9,1686.5
					z"/></g><g><polygon fill="#864a31" points="572.1 1851.1 956.1 1854.2 682.3 1779"/><path fill="#c97c48" d="M718.2 1705.7c-12.1-1.3-23.8-4.5-35.9-5.8-3.2-.4-3.2 4.6 0 5 12.1 1.3 23.8 4.5 35.9 5.8C721.4 1711.1 721.4 1706.1 718.2 1705.7L718.2 1705.7zM704.7 1712.8c-10.4-1.1-20.8-2.2-31.2-3.2-3.2-.3-3.2 4.7 0 5 10.4 1.1 20.8 2.2 31.2 3.2C707.9 1718.1 707.9 1713.1 704.7 1712.8L704.7 1712.8zM695.8 1723c-12.7-1.1-25.4-2.5-38-4.1-3.2-.4-3.2 4.6 0 5 12.7 1.6 25.3 3 38 4.1C699 1728.2 699 1723.2 695.8 1723L695.8 1723zM680.9 1734.1c-8-.8-15.9-1.7-23.9-2.5-3.2-.3-3.2 4.7 0 5 8 .8 15.9 1.7 23.9 2.5C684.1 1739.4 684.1 1734.4 680.9 1734.1L680.9 1734.1zM671.6 1746.1c-9.4-1.4-18.9-2.5-28.5-3.3-3.2-.3-3.2 4.8 0 5 9.1.7 18.1 1.7 27.1 3.1C673.4 1751.4 674.7 1746.6 671.6 1746.1L671.6 1746.1zM659.3 1758.6c-9.4-1-18.9-2-28.3-2.9-3.2-.3-3.2 4.7 0 5 9.4 1 18.9 2 28.3 2.9C662.5 1764 662.5 1759 659.3 1758.6L659.3 1758.6zM648 1770.3c-9.1-1.3-18.3-2.3-27.5-3-3.2-.3-3.2 4.7 0 5 8.7.7 17.5 1.7 26.2 2.9C649.8 1775.6 651.2 1770.8 648 1770.3L648 1770.3zM636 1779.5c-9.4-1-18.9-2-28.3-2.9-3.2-.3-3.2 4.7 0 5 9.4 1 18.9 2 28.3 2.9C639.2 1784.8 639.2 1779.8 636 1779.5L636 1779.5zM626.1 1790c-8-.8-15.9-1.7-23.9-2.5-3.2-.3-3.2 4.7 0 5 8 .8 15.9 1.7 23.9 2.5C629.3 1795.4 629.3 1790.4 626.1 1790L626.1 1790zM615 1803c-8.5-.9-16.9-1.8-25.4-2.6-3.2-.3-3.2 4.7 0 5 8.5.9 16.9 1.8 25.4 2.6C618.2 1808.4 618.2 1803.4 615 1803L615 1803zM599.4 1816.1c-7-.7-14-1.5-21-2.2-3.2-.3-3.2 4.7 0 5 7 .7 14 1.5 21 2.2C602.6 1821.4 602.6 1816.4 599.4 1816.1L599.4 1816.1zM593.3 1828.1c-10.9-1.1-21.8-2.3-32.7-3.4-3.2-.3-3.2 4.7 0 5 10.9 1.1 21.8 2.3 32.7 3.4C596.5 1833.4 596.5 1828.4 593.3 1828.1L593.3 1828.1zM583.6 1836.7c-9.4-1-18.9-2-28.3-2.9-3.2-.3-3.2 4.7 0 5 9.4 1 18.9 2 28.3 2.9C586.8 1842 586.7 1837 583.6 1836.7L583.6 1836.7zM580.1 1843.9c-12.8-1.5-25.5 2-38.3 1.6-3.2-.1-3.2 4.9 0 5 12.8.4 25.5-3.1 38.3-1.6C583.3 1849.2 583.3 1844.2 580.1 1843.9L580.1 1843.9z"/><path fill="#c97c48" d="M1141.3,1636.6c0,0,140.6,79.6,145.8,95c5.1,15.3-25.8,91.9-97,112.6c-45.9,13.3-279.8,19.8-480.8-2.6
					c-96-10.7-137.7,12.1-137.2,9.6c1.5-7,130-146.8,144.9-146.6c14.9,0.2,318.5,42,366.3,0.8
					C1131.1,1664.2,1133.8,1663.4,1141.3,1636.6z"/><path fill="#864a31" d="M1240.6,1692.8c-20.8-12.5-90-53.9-99.3-56.2c-11-2.7-9.1,9-9.1,9l92.5,51c-0.2,0.4-0.3,0.6-0.3,0.6
					l49.6,26.9c12.5-4.6,13.9,16,13.9,16C1298.4,1721.5,1258.3,1698.6,1240.6,1692.8z"/><g opacity=".64"><path fill="#864a31" d="M738.8 1725.9c-19.7 31.7-49.2 56.2-68.9 88-5.4 8.8 8.4 16.8 13.8 8.1 19.7-31.7 49.2-56.2 68.9-88C758.1 1725.2 744.2 1717.2 738.8 1725.9L738.8 1725.9zM790.5 1733.3c-1.3 15.2-7.4 29.7-12.9 43.7-5.7 14.6-11.1 29.1-13.1 44.7-.5 4.3 4.1 8 8 8 4.8 0 7.5-3.7 8-8 1.9-15.1 8.3-29.6 13.7-43.6 5.6-14.5 10.9-29.1 12.2-44.8.4-4.3-3.9-8-8-8C793.9 1725.3 790.9 1728.9 790.5 1733.3L790.5 1733.3z"/><path fill="#864a31" d="M688 1768.7c15.8-.2 32.5 4.7 48.5 8.1 16.2 3.4 33.5 8.3 50.2 8.1 10.3-.1 10.3-16.1 0-16-15.8.2-32.5-4.7-48.5-8.1-16.2-3.4-33.5-8.3-50.2-8.1C677.8 1752.8 677.7 1768.8 688 1768.7L688 1768.7zM867.6 1753c13.8-3.3 34.5-7.5 43.6 7.3 9.1 14.8 1 38.2-9.6 50.1-13.1 14.6-35 18.1-53.5 14.7-4.6-.8-10.1-1.7-14.1-4.3-3.1-2.1-4.1-5.7-4.8-9.3-1.4-7.8-.6-16.3.8-24 1.7-9.1 4.6-17.7 12-23.8C849.2 1757.8 858.7 1755.2 867.6 1753c10-2.4 5.8-17.9-4.3-15.4-10.6 2.6-21.3 6.1-30.1 12.8-9.4 7.1-15.2 17.1-17.8 28.5-2.4 10.4-3.7 21.6-2.4 32.3 1.6 13.1 7.7 22.5 20.6 26.8 24.2 8.2 54.8 5.2 74.6-11.8 17.5-15 28.3-45 19.9-67.4-4.3-11.4-13.6-19.5-25.2-23-13.2-4-26.6-1.4-39.6 1.7C853.3 1739.9 857.5 1755.4 867.6 1753zM952.8 1832.1c2.3-14.2 4.2-28.5 4.5-42.9.3-11.6-.6-23.3-1.5-34.9-4 2.3-8 4.6-12 6.9 16.5 8.8 32.4 18.7 47.2 30.2 4.8 3.7 11.3 2.6 13.4-3.5 5-15 14.7-28.3 18-43.9-3.3 1.9-6.6 3.7-9.8 5.6 1.5.2.9-.2 1.9 1.6.6 1.2 1.3 2.4 1.9 3.6 1.6 3.1 3.2 6.2 4.9 9.3 3.6 6.7 7.4 13.3 11.4 19.8 8.9 14.4 18.8 28.2 29.8 41 6.7 7.8 18-3.5 11.3-11.3-11.6-13.6-21.7-28.3-30.8-43.6-4-6.8-7.8-13.7-11.5-20.7-3.3-6.4-6.8-13.9-14.7-15.2-4.1-.6-8.9 1-9.8 5.6-3.3 15.5-13 28.9-18 43.9 4.5-1.2 8.9-2.4 13.4-3.5-15.9-12.3-32.6-23.2-50.4-32.7-5-2.6-12.5.5-12 6.9 1.9 24.9 1.5 48.9-2.5 73.6-.7 4.3 1.1 8.6 5.6 9.8C946.8 1838.8 952.1 1836.4 952.8 1832.1L952.8 1832.1zM1057.2 1748.1c15.3 14.6 30.5 29.1 45.8 43.7 3.5 3.3 7 7.4 11.2 9.8 4.3 2.4 9 2.3 13.7 1.4 5.1-1 10.1-2.1 15.1-3.3 28.6-6.6 54.2-19.9 71-44.6 5.8-8.5-8-16.5-13.8-8.1-14.2 20.9-36.5 31.3-60.5 37-4.3 1-8.7 1.9-13 2.9-3.4.7-4.1 1.3-6.8-1-3.5-3-6.7-6.4-10-9.5-13.8-13.2-27.7-26.4-41.5-39.6C1061.1 1729.6 1049.8 1740.9 1057.2 1748.1L1057.2 1748.1z"/><path fill="#864a31" d="M1058 1753.2c31-6.9 63.6-15 85.7-39.6 6.9-7.6-4.4-19-11.3-11.3-20.3 22.5-50.3 29.2-78.6 35.5C1043.7 1740 1048 1755.4 1058 1753.2L1058 1753.2zM1075 1785.7c17.8-4 35.5-8.7 52.4-15.8 18.7-7.9 37-19.2 47.7-37 5.3-8.9-8.6-16.9-13.8-8.1-9.2 15.4-26.2 24.9-42.4 31.4-15.5 6.3-31.8 10.4-48.1 14.1C1060.7 1772.5 1064.9 1788 1075 1785.7L1075 1785.7z"/></g></g><g><path fill="#eaba96" d="M1208.5,1644.3c0,0-34.9,23.4-34.9,27.1c0,3.7,16.5,12.6,19.3,10.5c2.8-2.2-0.3-5.9-2.1-5.5
					c-1.8,0.4,0.6-3.7,2.7-6.5c2.1-2.7,5.6-4.7,8.5-8.2c2.9-3.4,9.7-15.7,9.7-15.7L1208.5,1644.3z"/><path fill="#e77046" d="M1273,1578.6c-7.6,8.5-19.1,21.1-28.4,30.7c-15.4,15.7-50.9,36.9-50.9,36.9s1.8,7.2,15.9,17.5
						c0,0,3.7,4,12.2-2.5c9.7-7.3,31.1-32.3,45.4-49.4C1267,1593.6,1269.9,1584.5,1273,1578.6z"/></g><g><path fill="#eaba96" d="M1246.5,1666.7c0,0-30.2,23.7-31.7,27.4c-1.5,3.7,9.3,10.5,14.9,10.5s8.7-11,4.3-10.5
					c-4.4,0.5-7.1,4.7-7.1,4.7s-2.8-2.6,0-3.4c2.8-0.8,15.1-9.4,18.9-15.5c3.8-6,7.9-9.7,7.9-9.7L1246.5,1666.7z"/><path fill="#e77046" d="M1319.4,1573.6c0,0-8,3.3-10.7,18c-2.7,14.7-64.8,73.7-69.6,76.8c0,0-3.1,9.3,22.4,15.9
					c0,0,40.8-37.3,68.3-73.7c0,0,11.6-11.7,4.1-27.9C1333.8,1582.7,1328.3,1569.2,1319.4,1573.6z"/></g></g></g></switch></svg>